<?xml version="1.0" standalone="no"?>
<!DOCTYPE svg PUBLIC "-//W3C//DTD SVG 20010904//EN"
 "http://www.w3.org/TR/2001/REC-SVG-20010904/DTD/svg10.dtd">
<svg version="1.0" xmlns="http://www.w3.org/2000/svg"
 width="70.000000pt" height="70.000000pt" viewBox="0 0 70.000000 70.000000"
 preserveAspectRatio="xMidYMid meet">
<metadata>
Created by potrace 1.11, written by Peter Selinger 2001-2013
</metadata>
<g transform="translate(0.000000,70.000000) scale(0.100000,-0.100000)"
fill="#000000" stroke="none">
<path d="M20 616 c0 -14 6 -28 13 -32 6 -4 9 -4 5 1 -4 4 -3 14 3 21 6 7 8 18
4 24 -11 18 -25 11 -25 -14z"/>
<path d="M395 603 c-2 -7 -11 -13 -20 -13 -8 0 -23 -8 -32 -18 -16 -15 -18
-40 -18 -230 l0 -212 23 0 c12 0 25 6 28 14 3 8 12 12 20 9 7 -3 16 1 19 9 7
18 159 18 177 0 7 -7 20 -12 31 -12 10 0 15 -5 12 -10 -4 -6 5 -10 19 -10 l26
0 0 219 0 219 -35 16 c-19 9 -35 20 -35 24 0 13 -209 8 -215 -5z"/>
<path d="M67 583 c-13 -12 -7 -33 8 -33 8 0 15 9 15 20 0 20 -11 26 -23 13z"/>
<path d="M127 552 c-19 -21 -22 -42 -6 -42 16 0 36 23 36 43 0 22 -10 22 -30
-1z"/>
<path d="M290 561 c0 -5 -12 -12 -26 -15 -17 -5 -24 -12 -20 -21 2 -7 1 -15
-4 -17 -5 -2 -5 -9 1 -18 8 -11 12 -12 16 -2 2 6 11 12 19 12 8 0 17 7 20 15
4 8 9 13 14 10 4 -2 5 7 2 20 -4 23 -22 36 -22 16z"/>
<path d="M25 538 c-9 -22 4 -43 17 -30 7 7 7 16 0 29 -10 17 -11 17 -17 1z"/>
<path d="M192 530 c-26 -28 -27 -36 -8 -43 15 -6 41 34 34 54 -3 8 -11 5 -26
-11z"/>
<path d="M75 502 c-15 -10 -13 -34 3 -39 7 -3 12 5 12 21 0 29 0 29 -15 18z"/>
<path d="M118 458 c-13 -16 -15 -25 -7 -34 9 -11 13 -11 24 0 17 17 23 48 10
52 -5 2 -18 -6 -27 -18z"/>
<path d="M280 472 c0 -5 -11 -13 -25 -16 -24 -6 -36 -26 -15 -26 5 0 7 -7 4
-15 -4 -9 0 -15 10 -15 9 0 16 5 16 10 0 6 3 9 8 9 25 -4 32 3 29 28 -3 25
-27 47 -27 25z"/>
<path d="M22 437 c4 -26 20 -30 24 -5 1 9 -5 19 -13 22 -10 4 -14 0 -11 -17z"/>
<path d="M180 430 c-16 -30 -2 -45 21 -24 10 9 19 23 19 31 0 20 -28 16 -40
-7z"/>
<path d="M64 394 c3 -9 6 -18 6 -20 0 -3 5 -2 10 1 16 10 12 35 -6 35 -11 0
-14 -5 -10 -16z"/>
<path d="M117 372 c-11 -11 -13 -22 -7 -32 7 -12 12 -10 29 9 31 36 10 58 -22
23z"/>
<path d="M280 379 c0 -7 -3 -9 -7 -6 -12 12 -41 -23 -36 -44 6 -22 14 -24 31
-7 7 7 12 9 12 4 0 -4 6 -1 14 7 8 8 13 22 12 33 -3 20 -26 32 -26 13z"/>
<path d="M20 350 c0 -11 6 -20 14 -20 9 0 14 9 13 20 -1 11 -7 20 -14 20 -7 0
-13 -9 -13 -20z"/>
<path d="M186 351 c-9 -10 -14 -25 -10 -35 6 -15 8 -14 25 5 34 39 19 68 -15
30z"/>
<path d="M69 328 c-9 -32 -7 -47 6 -42 17 7 21 44 5 44 -5 0 -10 -1 -11 -2z"/>
<path d="M122 294 c-13 -15 -16 -54 -4 -54 12 0 37 34 38 51 1 19 -17 20 -34
3z"/>
<path d="M270 290 c-13 -10 -28 -16 -33 -13 -5 3 -5 -3 1 -13 5 -11 7 -25 5
-31 -6 -17 -3 -16 36 3 25 13 30 20 26 41 -6 34 -7 34 -35 13z"/>
<path d="M20 260 c0 -13 5 -20 13 -17 6 2 12 10 12 17 0 7 -6 15 -12 18 -8 2
-13 -5 -13 -18z"/>
<path d="M186 264 c-20 -19 -20 -30 -1 -38 8 -3 19 3 25 14 21 39 5 54 -24 24z"/>
<path d="M62 222 c5 -23 28 -27 28 -4 0 10 -7 19 -15 19 -9 0 -15 -7 -13 -15z"/>
<path d="M128 206 c-18 -13 -25 -56 -10 -56 4 0 15 12 26 26 21 29 10 49 -16
30z"/>
<path d="M282 213 c-6 -3 -10 -8 -7 -13 3 -4 -3 -7 -13 -6 -9 0 -16 -5 -14
-11 1 -7 -2 -13 -7 -13 -5 0 -7 -9 -4 -20 5 -20 23 -28 23 -11 0 5 11 12 25
15 21 5 24 11 21 32 -6 31 -7 33 -24 27z"/>
<path d="M187 177 c-9 -11 -17 -27 -17 -34 0 -22 26 -14 40 12 18 34 1 51 -23
22z"/>
</g>
</svg>
