<svg xmlns="http://www.w3.org/2000/svg" id="Layer_1" data-name="Layer 1" viewBox="0 0 220 220">
  <path fill="#ffc24b" d="M47.84 160.58c2.17 2.18 4.5 1.76 7.76 1.87 4.37.15 93.86.56 114-.79 1.92-.13 3.75-2.95 4.08-4.85 2.69-15.31.5-28.23 1-42.47 0-.43.18.79-.09.45s-1.07 0-1.59 0c-8.54-.45-115.62-.11-122.52 0-.86 0-3.44-1.35-4.2-.92-1.38.78-.74 1.47-.9 3-.01.05-1.88 39.35 2.46 43.71Z"/>
  <path fill="#4e809b" d="M45.18 114.82c7.19.22 28.81-.19 32.35 0 3.37.18 84.32 1.47 97.2 0 .18-4.08.16-13.25-1-15.81-25.27-.1-86.76.24-91.27.49a239.06 239.06 0 0 1-37.03-.5Z"/>
  <circle cx="52.32" cy="131.35" r="6.95" fill="#fff" stroke="#000" stroke-miterlimit="10" stroke-width=".62"/>
  <path fill="#1f0818" d="M53.17 168.48q-.18 5.58.15 11.15a3.5 3.5 0 0 0 .51 1.27c.49 1 1.93.93 3 .91 3.72-.11 7 .2 10.68-.38a3 3 0 0 0 2.21-1.6 3.49 3.49 0 0 0 .2-1.29c.11-3.63 0-7.26-.19-10.88M153.3 168.38a69.06 69.06 0 0 0 .38 12 3.05 3.05 0 0 0 .74 1.21c.39.52 1.33.48 1.94.49 3.78.1 6.88.16 10.53-.07a5.19 5.19 0 0 0 2-1c.84-.65.92-2 .91-3.2l-.11-11.24"/>
  <path fill="#88889f" d="M46.83 161.32c-4.12 1.43-2.44 6.06-1 7.7s5.84 1.43 7.9 1.57c3.78.27 79.19-.77 113.11-1.24 1.79 0 3.6.24 5.27-.45a5.77 5.77 0 0 0 3.58-4.12c.37-2-1.25-3.72-3-4.19-2.36-.65-121.24-.87-125.86.73Z"/>
  <path fill="#f44545" d="M56.86 165.28a3.13 3.13 0 0 1-1.06 2.6c-.93.72-3.75 1-4-1.08-.19-1.41 0-1.74.59-2.42a2.55 2.55 0 0 1 2.77-.7 2 2 0 0 1 1.7 1.6Z"/>
  <path d="M56 165.53v.2c0 .05 0 .15 0 0v.15a2.5 2.5 0 0 1-.07.26c0 .05 0 .1-.05.15s-.06.13 0 0l-.07.14c-.08.15-.18.29-.27.44v-.05l-.06.07-.13.14-.07.06c-.11.11.06 0 .08-.05s-.07.05-.11.07l-.22.12c-.13.07 0 0 .07 0l-.15.06a4.21 4.21 0 0 1-.61.16h.05a.76.76 0 0 0-.15 0H53.67c.18 0 0 0 0 0h-.17l-.16-.05s-.2-.08-.05 0l-.16-.1h-.06s.16.14.1.07l-.11-.09a1.5 1.5 0 0 0-.11-.13s.11.17.07.1 0-.06-.05-.09l-.08-.13v.1-.1a1 1 0 0 1 0-.16s-.05-.24 0-.12a1.11 1.11 0 0 1 0-.17 2 2 0 0 1 0-.23 3.53 3.53 0 0 1 0-.46v-.16c0-.05 0 .19 0 0v-.13a.32.32 0 0 0 0-.09s-.1.21 0 .1.09-.16.14-.23.14-.19 0-.07 0 0 0-.07a3.71 3.71 0 0 1 .27-.29l.14-.13h-.06l.11-.08.2-.11h.1c.03 0-.17.06-.07 0l.2-.06h.67l.29.06.38.07s-.32-.06-.21 0h.15a.66.66 0 0 1 .2.06l.14.05-.12-.05h.07l.3.18c.07 0-.09-.07-.09-.07l.07.06.15.15c.09.1-.1-.17 0 0l.1.17c0 .07 0 .06 0 0v.07l.06.26a.93.93 0 0 0 1.14.65 1 1 0 0 0 .65-1.15 2.89 2.89 0 0 0-2.37-2.25 1.15 1.15 0 0 1-.26 0s.25.05.11 0h-.16a4.48 4.48 0 0 0-.82-.09 3.41 3.41 0 0 0-1.26.21 3.84 3.84 0 0 0-1.8 1.53 3 3 0 0 0-.41 1.94 3.31 3.31 0 0 0 .8 2.2 3.7 3.7 0 0 0 3.57.69 3.21 3.21 0 0 0 1.69-1.05 4.13 4.13 0 0 0 .91-3.11.93.93 0 0 0-1.79.5Z"/>
  <path fill="#f44545" d="M162.4 164a3.17 3.17 0 0 0-.28 2c.42 1.51 3 2 4.08 1.48a2.63 2.63 0 0 0 1.41-3 2.66 2.66 0 0 0-3-1.65 2.6 2.6 0 0 0-2.21 1.17Z"/>
  <path d="M161.6 163.52a3.88 3.88 0 0 0-.46 2.19 2.8 2.8 0 0 0 1.1 1.95 4.77 4.77 0 0 0 3.8.82 3.53 3.53 0 0 0 2.57-3.63 3.15 3.15 0 0 0-1.24-2.22 3.8 3.8 0 0 0-2.44-.75 6.73 6.73 0 0 0-1.35.16 3.19 3.19 0 0 0-2 1.48 1 1 0 0 0 .33 1.27 1 1 0 0 0 1.28-.34 1.74 1.74 0 0 1 .11-.18c-.12.18 0 0 0 0a1.85 1.85 0 0 1 .14-.14c.15-.14-.12.05 0 0s.2-.12.3-.17.06 0 0 0a.7.7 0 0 0 .19-.06 1.28 1.28 0 0 1 .28-.07h.13-.08 1.14l.23.06s.35.13.14 0a2.21 2.21 0 0 1 .34.18s.23.16.06 0l.17.14.1.11s.15.22 0 0a1.18 1.18 0 0 1 .11.19.54.54 0 0 1 .07.13c0-.11 0-.12 0 0s.08.43.06.19a3.38 3.38 0 0 1 0 .45c0-.2 0-.05 0 0v.18c0 .06-.05.14-.07.21s0 .1 0 0a.91.91 0 0 1-.07.14 2.14 2.14 0 0 1-.2.32c.13-.18 0 0 0 .05s-.11.11-.16.16l-.08.07c.1-.08-.09.06-.1.06l-.19.12c-.2.12.22-.07 0 0l-.23.07h-.16.14-.11a4.09 4.09 0 0 1-.7 0c-.22 0 .21 0 0 0h-.13l-.37-.09-.3-.1h-.06c-.06 0-.18-.08-.23-.1l-.31-.19c-.17-.12.15.14 0 0l-.17-.16-.09-.11c-.05-.05 0 0 0 .07l-.06-.09a.71.71 0 0 0-.08-.15c0 .14.06.16 0 .07a.49.49 0 0 1 0-.11v-.35a2 2 0 0 1 0-.25v-.16a3 3 0 0 1 .12-.4c0-.11.12-.16 0 0 0 0 0-.09.06-.13a.93.93 0 0 0-1.61-.93ZM66.94 151.45c-.09-3.76-.23-7.53-.12-11.29s.19-7.8 1.21-11.38a6.5 6.5 0 0 1 4.32-4.78 14.62 14.62 0 0 1 2.37-.47l1-.15c.12 0 .43-.08.11 0a57.44 57.44 0 0 1 6-.29c3.81-.11 7.62-.17 11.43-.23q14.72-.19 29.43-.13c7.31 0 14.7-.08 22 .52l.62.06c.12 0 .64.07.43 0a10.4 10.4 0 0 1 2.68.71 7 7 0 0 1 3.84 4.26 23.2 23.2 0 0 1 1 7.41c0 3.27-.14 6.53-.26 9.79a262.6 262.6 0 0 0-.16 5.63.93.93 0 0 0 1.86 0c.1-6.64 1-13.5.09-20.1-.67-4.72-3.12-8.5-8-9.41a50 50 0 0 0-7.34-.51c-4.18-.14-8.36-.2-12.55-.23q-15.39-.14-30.8.07c-6.58.08-13.29-.11-19.85.51-2.88.28-6 .8-8 3.12-2.2 2.57-2.42 6.13-2.76 9.35a93.72 93.72 0 0 0-.44 11.24c0 2.09.09 4.18.14 6.27a.93.93 0 0 0 1.86 0Z"/>
  <path d="M76.46 119.22v12a.93.93 0 0 0 1.86 0v-12a.93.93 0 0 0-1.86 0ZM142.24 119.22v12a.93.93 0 0 0 1.86 0v-12a.93.93 0 0 0-1.86 0Z"/>
  <path fill="#1f0818" d="M79.46 104.21c-.65 3.58-.14 7.28-.22 10.91a3.23 3.23 0 0 0 .32 1.8c.54.88 1.73 1 2.76 1 11 .3 52-.2 58.28.09a110.65 110.65 0 0 0 .06-14.54c-3.25-.16-40.18-.49-58.56-.15 0 .04-2.46-.08-2.64.89Z"/>
  <path fill="#fff" d="M78.6 104a33.29 33.29 0 0 0-.35 6.39c0 1.11.08 2.23.1 3.34a11.28 11.28 0 0 0 .13 3c.72 2.48 3.74 2.2 5.81 2.24 4.32.07 8.65.06 13 .06 10.86 0 21.72-.1 32.58-.1 3.58 0 7.18-.07 10.75.09a.9.9 0 0 0 .9-.9 125.94 125.94 0 0 0 .06-14.54.93.93 0 0 0-.9-.9c-6.18-.29-12.4-.19-18.58-.23-10.35-.07-20.69-.1-31 0l-7.42.08c-1.6 0-4.37-.35-5 1.54-.38 1.1 1.35 1.57 1.73.48.18-.51 4.46-.24 4.9-.24l6.74-.07h14.78c9 0 18 .06 27 .17 2.31 0 4.63 0 6.94.13l-.89-.9a128.23 128.23 0 0 1-.06 14.54l.89-.89c-7.56-.35-15.18-.1-22.75-.07-10 0-20.08.12-30.12 0-1.76 0-3.52 0-5.28-.08-1.21 0-2.21-.11-2.31-1.56-.08-1.14 0-2.32 0-3.47a38.4 38.4 0 0 1 .23-7.58c.04-1.21-1.69-1.7-1.88-.53ZM46.39 99.13c.82-12.88 4.68-24.07 8.79-36.3 1.19-3.55 2.7-7.29 5.83-9.35a15.45 15.45 0 0 1 5.56-2c18.9-3.67 40.42-3.78 61.09-4 8.75-.1 18.38-.09 27.22 2.13 7.19 1.81 9.71 9.32 10.26 11.19a229.62 229.62 0 0 1 6 24.09c.83 4.33 1.62 8.16 2.45 12.49a1.54 1.54 0 0 1 0 .88 1.4 1.4 0 0 1-1.19.63c-3.83.43-8.62.28-12.74.33-39.54.5-75.92-.23-113.2.17"/>
  <path d="M47.32 99.13c.73-10.89 3.84-21.32 7.27-31.62 1.43-4.28 2.55-9.68 6.19-12.71 2.06-1.71 4.77-2.22 7.33-2.69s5.4-.93 8.12-1.29A303.67 303.67 0 0 1 109 48.64c5.6-.13 11.2-.19 16.81-.26 5.3-.06 10.62-.13 15.92.2a82.9 82.9 0 0 1 8.46.94 23.5 23.5 0 0 1 6.91 1.86 14.7 14.7 0 0 1 6.34 7.32 72.71 72.71 0 0 1 3.08 10.24q1.9 7 3.31 14c.54 2.71 1 5.41 1.58 8.12l.81 4.11.37 1.88c-.06-.3.15.68.13.7-.13.18-1 .17-1.15.19-5.27.49-10.63.24-15.91.3q-17.25.18-34.51.13c-22.17 0-44.34-.23-66.51-.08-2.74 0-5.47 0-8.21.07a.93.93 0 0 0 0 1.85c23.24-.24 46.48-.05 69.72 0q18 0 36-.09c5.75-.05 11.53.08 17.26-.19 1.5-.07 4.7.23 5.08-1.81a10.21 10.21 0 0 0-.51-3.45l-.9-4.57a287.4 287.4 0 0 0-7.15-30 20.12 20.12 0 0 0-3.87-7.1c-3-3.49-7-4.56-11.41-5.31-11.13-1.89-22.61-1.26-33.85-1.1-11.66.17-23.33.48-34.93 1.68a144.19 144.19 0 0 0-16.17 2.42 13.69 13.69 0 0 0-6.51 3 15.83 15.83 0 0 0-3.67 5.55 156.64 156.64 0 0 0-5.25 15.58 121.81 121.81 0 0 0-3.9 16.21 90.72 90.72 0 0 0-.91 8.06c-.08 1.2 1.78 1.19 1.86 0Z"/>
  <path fill="#ffc24b" d="M53.81 60.82c0-3.69 2.45-7.09 3.42-8.81 1.46-2.57 14.39-7.15 42-7.73 9.56-.2 19.1-.77 28.66-1.12 9.11-.33 18.47-.6 27.09 2.37 4.09 1.4 7.14 3.23 9.51 6.84 1.63 2.49.95 5.92 1.67 8.81-1.68-4.32-2.8-13.54-22.81-14.3-6.87-.26-14.12-.15-21-.2a363.69 363.69 0 0 0-37 1.54c-3.8.33-10.29 1-14.08 1.54-8.82 1.18-13.7 2.35-17.09 13.24"/>
  <path fill="#4e809b" d="M111.83 37.8c27.16-.12 46 6.48 51.16 12-4.16-2.26-6.23-3.25-9.72-3.85-25.56-4.42-90.85-2.56-96.66 7.05.04-2.27 10.17-15 55.22-15.2Z"/>
  <circle cx="52.29" cy="131.37" r="5.49" fill="none" stroke="#000" stroke-miterlimit="10" stroke-width=".62"/>
  <circle cx="52.35" cy="131.43" r="4.01" fill="#f44545"/>
  <circle cx="54.51" cy="152.03" r="6.95" fill="#fff" stroke="#000" stroke-miterlimit="10" stroke-width=".62"/>
  <circle cx="54.49" cy="152.06" r="5.49" fill="none" stroke="#000" stroke-miterlimit="10" stroke-width=".62"/>
  <circle cx="54.55" cy="152.12" r="4.01" fill="#f44545"/>
  <circle cx="167.2" cy="131.35" r="6.95" fill="#fff" stroke="#000" stroke-miterlimit="10" stroke-width=".62"/>
  <circle cx="167.23" cy="131.37" r="5.49" fill="none" stroke="#000" stroke-miterlimit="10" stroke-width=".62"/>
  <circle cx="167.17" cy="131.43" r="4.01" fill="#f44545"/>
  <circle cx="165" cy="152.03" r="6.95" fill="#fff" stroke="#000" stroke-miterlimit="10" stroke-width=".62"/>
  <circle cx="165.03" cy="152.06" r="5.49" fill="none" stroke="#000" stroke-miterlimit="10" stroke-width=".62"/>
  <circle cx="164.97" cy="152.12" r="4.01" fill="#f44545"/>
  <ellipse cx="86.99" cy="110.73" fill="#fff" stroke="#1f0818" stroke-miterlimit="10" stroke-width=".62" rx="5.63" ry="4.09"/>
  <text fill="#1f0818" font-family="MagicalMysteryTour, Magical Mystery Tour" font-size="6.51" transform="translate(83.45 112.31)">gb</text>
  <ellipse cx="133.08" cy="110.73" fill="#fff" stroke="#1f0818" stroke-miterlimit="10" stroke-width=".62" rx="5.63" ry="4.09"/>
  <text fill="#1f0818" font-family="MagicalMysteryTour, Magical Mystery Tour" font-size="6.51" transform="translate(129.55 112.31)">gb</text>
  <text fill="#fff" font-family="MagicalMysteryTour, Magical Mystery Tour" font-size="6.82" transform="translate(95.83 112.39)">djh 73if</text>
  <path fill="#84a226" d="M122.29 131.53a.58.58 0 0 0-.43.2 1.89 1.89 0 0 0-.3.39c.39.08.77.17 1.16.27a1.6 1.6 0 0 0-.13-.57c-.08-.18-.18-.27-.3-.29ZM92.49 132.85a.72.72 0 0 1 .12-.21.28.28 0 0 1 .17-.11.36.36 0 0 1 .32.09s.08.09.12.15q.91-.22 1.92-.42a.7.7 0 0 1 .11-.21.37.37 0 0 1 .21-.12.55.55 0 0 1 .26 0 .53.53 0 0 1 .19.15l2-.34v-.3c-.07-.34-.14-.69-.22-1l-.26-1a43.56 43.56 0 0 0-7.18 1.76c0 .22 0 .45.08.66.06.37.11.71.17 1a4.07 4.07 0 0 0 .14.52 33.6 33.6 0 0 1 1.92-.54c-.08-.01-.08-.05-.07-.08ZM103.19 129.32l-.16-.49-1 .1h-.31c-.6.06-1.19.13-1.76.21l-.59.08-.81.12v.39a13 13 0 0 0 0 1.37v.64l.78-.11.57-.08.72-.1a1.36 1.36 0 0 1 .13-.27.6.6 0 0 1 .36-.3.44.44 0 0 1 .37.2 1.05 1.05 0 0 1 .16.26c.67-.08 1.35-.14 2-.2 0-.19 0-.38-.08-.58a11.67 11.67 0 0 0-.38-1.24ZM109.55 130.08a2.42 2.42 0 0 0 0-.41 1.61 1.61 0 0 0-.2-.52 1.5 1.5 0 0 0-.32-.38 1.59 1.59 0 0 0-.39-.23h-.74a1.3 1.3 0 0 0-.26.14.82.82 0 0 0-.23.26.73.73 0 0 0-.07.36 1.4 1.4 0 0 0 0 .23.71.71 0 0 0 0 .17v.32a.81.81 0 0 1-.1.54.4.4 0 0 1-.33.17.35.35 0 0 1-.27-.13 1.16 1.16 0 0 1-.21-.37 2.59 2.59 0 0 1-.14-.55 3.77 3.77 0 0 1-.06-.69 2.74 2.74 0 0 1 0-.4c-.76 0-1.51.08-2.24.13v.2a7.73 7.73 0 0 0 .21 1.56 3.84 3.84 0 0 0 .2.6 77.6 77.6 0 0 1 5-.17v-.38a3.62 3.62 0 0 0 .15-.45ZM113.14 128.65c-.93-.05-1.85-.09-2.77-.1v.07c0 .42 0 .85.06 1.26a8.73 8.73 0 0 0 .15 1.06c.73 0 1.48 0 2.25.07a13.41 13.41 0 0 0 .31-2.25ZM118.8 131a1 1 0 0 0-.3-.25 1.19 1.19 0 0 0-.47-.13.66.66 0 0 0-.36.05 2.07 2.07 0 0 0-.24.17l-.23.17a.57.57 0 0 1-.34 0 .63.63 0 0 1-.39-.17 1.1 1.1 0 0 1-.25-.41 2.39 2.39 0 0 1-.12-.57 3.86 3.86 0 0 1 0-.68c0-.1 0-.22.06-.33-.72-.08-1.43-.15-2.15-.2v.21a7.44 7.44 0 0 0 0 1.57 5.29 5.29 0 0 0 .13.6c1.58.11 3.2.29 4.84.55a1.46 1.46 0 0 0 0-.29.74.74 0 0 0-.18-.29Z"/>
  <path fill="#84a226" d="M124.78 130.65a42.33 42.33 0 0 0-4.57-1.13 1.86 1.86 0 0 0-.1.25 12.86 12.86 0 0 0-.4 1.31c0 .23-.08.44-.13.66.66.12 1.32.24 2 .38a1.89 1.89 0 0 1 .3-.39.58.58 0 0 1 .43-.2c.12 0 .22.11.3.29a1.6 1.6 0 0 1 .13.57c.64.15 1.28.32 1.91.5.05-.34.1-.68.13-1s.01-.82 0-1.24ZM125.58 131.66a11.77 11.77 0 0 0-.09 1.48 37.89 37.89 0 0 1 4.2 1.56.79.79 0 0 0 .21-.38.86.86 0 0 0-.08-.49 1.14 1.14 0 0 0-.49-.51l-.78-.43c-.24-.14-.39-.29-.42-.45a.9.9 0 0 1 .09-.55c-.83-.34-1.66-.67-2.52-.95Z"/>
  <path fill="#4e809b" d="M90.57 133.59a3.08 3.08 0 0 0 .28.61 1.68 1.68 0 0 0 .37.45.54.54 0 0 0 .47.13.8.8 0 0 0 .44-.22 1 1 0 0 0 .22-.35 1.48 1.48 0 0 0 .07-.42v-.38a1.34 1.34 0 0 1 0-.28.7.7 0 0 1 0-.14q-1.09.3-1.89.57ZM96 132.41l.09.27a2.78 2.78 0 0 0 .13.37 1.31 1.31 0 0 0 .21.36.83.83 0 0 0 .33.26.73.73 0 0 0 .47 0 .56.56 0 0 0 .41-.29 1.72 1.72 0 0 0 .18-.58 3.72 3.72 0 0 0 0-.67v-.3c-.68.11-1.32.22-1.94.34a.82.82 0 0 1 .12.24ZM93.33 133a3.18 3.18 0 0 1 .2.45 3.1 3.1 0 0 0 .21.45 1.12 1.12 0 0 0 .29.32.56.56 0 0 0 .43.07.68.68 0 0 0 .35-.17.67.67 0 0 0 .19-.29 1.67 1.67 0 0 0 .07-.41v-.45a2.8 2.8 0 0 1 0-.29 1.26 1.26 0 0 1 0-.27c-.67.14-1.31.28-1.89.42ZM99.25 131.66l-.78.11v.62a2.49 2.49 0 0 0 .08.35 1.45 1.45 0 0 0 .18.35.84.84 0 0 0 .27.26.64.64 0 0 0 .4.08.8.8 0 0 0 .47-.18.86.86 0 0 0 .26-.34 1.67 1.67 0 0 0 .13-.45l.09-.47a3.29 3.29 0 0 1 .16-.5l-.72.09ZM101.73 131.78a3.63 3.63 0 0 0 .16.46 2 2 0 0 0 .23.43 1 1 0 0 0 .34.32.74.74 0 0 0 .48.09.69.69 0 0 0 .4-.17 1 1 0 0 0 .23-.34 2.13 2.13 0 0 0 .1-.42 1.74 1.74 0 0 0 0-.4c0-.18 0-.38-.08-.57-.69 0-1.36.12-2 .19a2.67 2.67 0 0 1 .14.41ZM104.82 131.76a2.56 2.56 0 0 0 1 .84 2.92 2.92 0 0 0 1.4.28 3.06 3.06 0 0 0 .88-.14 2.42 2.42 0 0 0 .62-.33 1.79 1.79 0 0 0 .41-.46 4.87 4.87 0 0 0 .28-.56 2.9 2.9 0 0 0 .11-.38.2.2 0 0 1 0-.07c-1.72 0-3.39.06-5 .17a3.61 3.61 0 0 0 .3.65ZM110.6 131.09c0 .15.08.33.14.54a3.69 3.69 0 0 0 .23.58 1.63 1.63 0 0 0 .3.48.57.57 0 0 0 .38.21.59.59 0 0 0 .39-.17 2.2 2.2 0 0 0 .33-.44 4.11 4.11 0 0 0 .25-.56l.17-.54v-.15l-2.24-.09c.04.05.04.05.05.14ZM114.4 131.81a2.56 2.56 0 0 0 .85.94 2.88 2.88 0 0 0 1.36.44 2.63 2.63 0 0 0 .94-.07 2.3 2.3 0 0 0 .73-.31 1.64 1.64 0 0 0 .49-.49 1.26 1.26 0 0 0 .2-.61 53.17 53.17 0 0 0-4.84-.57 3.54 3.54 0 0 0 .27.67ZM119.47 132.32a2.06 2.06 0 0 0 0 .36 1.61 1.61 0 0 0 .08.38 1 1 0 0 0 .2.32.62.62 0 0 0 .37.18.83.83 0 0 0 .84-.32 2.23 2.23 0 0 0 .24-.4 3.42 3.42 0 0 1 .21-.43 1.59 1.59 0 0 1 .13-.22q-1-.21-2-.39c0 .2-.05.35-.07.52ZM122.74 132.55a4.23 4.23 0 0 0 0 .48 2.4 2.4 0 0 0 .11.48 1.14 1.14 0 0 0 .25.39.79.79 0 0 0 .44.21.62.62 0 0 0 .43-.06.88.88 0 0 0 .31-.27 1.54 1.54 0 0 0 .2-.38 2.4 2.4 0 0 0 .1-.38c-.62-.19-1.26-.37-1.89-.53.04.01.05.03.05.06ZM125.52 133.63a1.07 1.07 0 0 0 .14.39 1 1 0 0 0 .29.33 2.34 2.34 0 0 0 .53.28l.45.16.52.14.53.11.49.05a1.7 1.7 0 0 0 1-.2 35.63 35.63 0 0 0-4-1.6 2.06 2.06 0 0 0 .05.34ZM121.56 132.12a.25.25 0 0 0 0 .07l1.21.28v-.08c-.44-.1-.77-.19-1.21-.27ZM95.14 132.35q-1 .19-1.92.42c.58-.14 1.22-.28 1.89-.42s.03.01.03 0Z"/>
  <path fill="#4e809b" d="M90.55 133.49a.19.19 0 0 0 0 .07q.8-.27 1.89-.57c-.66.13-1.31.32-1.89.5ZM95.91 132.2c.62-.12 1.26-.23 1.94-.34ZM101.56 131.37a48.1 48.1 0 0 0 0 0ZM99.82 131.58l.72-.09ZM98.47 131.77l.78-.11ZM99.82 131.58l-.57.08ZM104.48 131.1a76.85 76.85 0 0 0 0 0ZM110.58 130.94l2.24.09c-.76-.03-1.51-.03-2.24-.09ZM114.13 131.09c1.61.12 3.23.3 4.84.57v-.05a69.97 69.97 0 0 0-4.84-.52ZM122.72 132.39v.08c.63.16 1.27.34 1.89.53a.45.45 0 0 0 0-.11c-.61-.18-1.25-.35-1.89-.5ZM119.58 131.74v.06q1 .18 2 .39a.25.25 0 0 1 0-.07l-2-.38ZM125.49 133.16v.11a35.63 35.63 0 0 1 4 1.6.74.74 0 0 0 .18-.17 37.89 37.89 0 0 0-4.2-1.56Z"/>
  <path fill="#ffc24b" d="M122.56 129.36a.62.62 0 0 0 .51-.13.66.66 0 0 0 .27-.45.73.73 0 0 0-.11-.52.66.66 0 0 0-.45-.27.63.63 0 0 0-.5.12.71.71 0 0 0-.27.46.69.69 0 0 0 .11.51.64.64 0 0 0 .44.28ZM97.3 129.4a10.48 10.48 0 0 0-.43-1.17c-.13-.3-.28-.6-.45-.91-.88.16-1.7.33-2.45.5a1.85 1.85 0 0 1 0 .23 1.14 1.14 0 0 1-.09.26.82.82 0 0 1-.16.22.56.56 0 0 1-.27.12.48.48 0 0 1-.29 0 1.44 1.44 0 0 1-.25-.18 2.43 2.43 0 0 1-.2-.25 24.71 24.71 0 0 0-2.54.77V131.29a49.58 49.58 0 0 1 7.19-1.67.83.83 0 0 0-.06-.22ZM98.52 129.36l.81-.11.59-.08c.58-.08 1.17-.15 1.76-.21h.31l1-.11a14.7 14.7 0 0 0-1.01-2.3l-.58.07-1.88.23-.5.07a13.27 13.27 0 0 0-.36 1.37l-.14 1.07ZM104.08 128.73h.18c.66-.05 1.35-.09 2.06-.12v-.22a4.55 4.55 0 0 1 .1-.66 1.48 1.48 0 0 1 .25-.52.58.58 0 0 1 .45-.22.67.67 0 0 1 .32 0 1 1 0 0 1 .25.23 1.34 1.34 0 0 0 .26.23.54.54 0 0 0 .33.08.94.94 0 0 0 .68-.26.91.91 0 0 0 .21-.59 2.13 2.13 0 0 0-.11-.58c-1.52 0-3 .07-4.42.16a4.46 4.46 0 0 0-.45 1.27 5.83 5.83 0 0 0-.11 1.2ZM108.2 128.48a.85.85 0 0 0-.31.06h.67a.8.8 0 0 0-.36-.06ZM110.37 128.54c.91 0 1.83 0 2.77.09a13.53 13.53 0 0 0-.14-2.38q-1.16-.07-2.31-.09a10.89 10.89 0 0 0-.24 1.19 11.69 11.69 0 0 0-.08 1.19ZM114 128.68c.71 0 1.42.11 2.14.19v-.28a2.91 2.91 0 0 1 .21-.63 1.45 1.45 0 0 1 .32-.46.52.52 0 0 1 .42-.16.42.42 0 0 1 .32.13 1.75 1.75 0 0 1 .16.27.72.72 0 0 0 .25.24.68.68 0 0 0 .36.14 1 1 0 0 0 .73-.18.85.85 0 0 0 .32-.6 2.54 2.54 0 0 0 0-.39c-1.48-.26-3-.44-4.45-.57a4 4 0 0 0-.58 1.19 5.82 5.82 0 0 0-.2 1.11Z"/>
  <path fill="#ffc24b" d="M120.23 129.45a46.17 46.17 0 0 1 4.55 1.08 13.85 13.85 0 0 0-.14-1.48c0-.28-.09-.58-.16-.89a39.72 39.72 0 0 0-3.21-.82c-.21.35-.41.69-.57 1s-.33.76-.47 1.11Zm2-1.34a.63.63 0 0 1 .5-.12.66.66 0 0 1 .45.27.73.73 0 0 1 .11.52.66.66 0 0 1-.27.45.62.62 0 0 1-.51.13.64.64 0 0 1-.44-.28.69.69 0 0 1-.11-.51.71.71 0 0 1 .32-.46ZM126.2 129c-.11.37-.22.75-.32 1.16l-.15.64c.86.27 1.71.58 2.56.91l.21-.52c.08-.23.15-.49.22-.76s.09-.44.13-.68c-.83-.37-1.69-.7-2.55-1l-.1.25ZM97.34 129.55a49.58 49.58 0 0 0-7.19 1.67.28.28 0 0 1 0 .09 43.56 43.56 0 0 1 7.18-1.76ZM98.52 129.37l.81-.12-.81.11ZM101.68 129c-.59.06-1.18.13-1.76.21a8.56 8.56 0 0 1 1.76-.21ZM102 128.93l1-.1ZM102 128.93h-.31ZM99.92 129.17l-.59.08ZM104.26 128.72h-.18a108.14 108.14 0 0 0 .18 0ZM108.56 128.54h-.71.74ZM110.37 128.54a52.4 52.4 0 0 0 0 0ZM114 128.68c.72 0 1.43.12 2.15.2a37.3 37.3 0 0 0-2.15-.2Z"/>
  <path fill="#ffc24b" d="M120.21 129.52a42.33 42.33 0 0 1 4.57 1.13v-.11a46.17 46.17 0 0 0-4.55-1.08ZM125.7 130.94c.86.28 1.69.61 2.52.95a.69.69 0 0 1 0-.13 41.1 41.1 0 0 0-2.56-.91Z"/>
  <path fill="#f44545" d="m96.25 127-.23-.37a1.79 1.79 0 0 0-.31-.36 1.07 1.07 0 0 0-.37-.24.89.89 0 0 0-.86.14 1.18 1.18 0 0 0-.24.31 2.48 2.48 0 0 0-.18.63c0 .24-.06.46-.08.65a61.6 61.6 0 0 1 2.43-.48l-.16-.28ZM92.52 127.94a4.14 4.14 0 0 1-.24-.43 2.16 2.16 0 0 0-.29-.43 1.4 1.4 0 0 0-.38-.3.75.75 0 0 0-.5 0 .82.82 0 0 0-.42.19 1.06 1.06 0 0 0-.26.33 2.05 2.05 0 0 0-.15.42c0 .15-.06.3-.08.46l-.09.7c.74-.25 1.59-.49 2.51-.72ZM101.43 126.59l.57-.07c0-.06 0-.11-.08-.16a4.94 4.94 0 0 0-.27-.42 2.82 2.82 0 0 0-.33-.36 1.39 1.39 0 0 0-.41-.23.91.91 0 0 0-.47-.06 1 1 0 0 0-.47.15 1.39 1.39 0 0 0-.37.31 2 2 0 0 0-.28.41 3.85 3.85 0 0 0-.19.47c0 .08 0 .17-.08.25l.5-.06ZM109 125.94a1.61 1.61 0 0 0-.48-.59 2 2 0 0 0-.73-.36 3.07 3.07 0 0 0-.94-.11 2.35 2.35 0 0 0-1.32.41 3.12 3.12 0 0 0-.86 1c1.38-.09 2.86-.15 4.41-.16a1.07 1.07 0 0 0-.08-.19ZM113 126.22a1.9 1.9 0 0 0-.36-.92.9.9 0 0 0-.73-.39 1 1 0 0 0-.44.09 1.27 1.27 0 0 0-.34.27 1.53 1.53 0 0 0-.25.39 3.41 3.41 0 0 0-.18.48c.75 0 1.52 0 2.3.08ZM119.2 126.54a1.75 1.75 0 0 0-.41-.66 2.09 2.09 0 0 0-.68-.46 3.34 3.34 0 0 0-.93-.22 2.28 2.28 0 0 0-1.35.26 3.22 3.22 0 0 0-1 .87c1.45.12 2.93.3 4.42.55a1.35 1.35 0 0 0-.05-.34ZM124.3 127.36a4.42 4.42 0 0 0-.15-.48 2.22 2.22 0 0 0-.23-.43 1.52 1.52 0 0 0-.34-.33 1 1 0 0 0-.44-.18 1 1 0 0 0-.49 0 1.35 1.35 0 0 0-.44.2 1.91 1.91 0 0 0-.37.33 3.79 3.79 0 0 0-.3.4l-.23.37c1 .22 2.1.47 3.15.77l-.16-.65ZM127.66 126.89a1.12 1.12 0 0 0-.39.23 1.72 1.72 0 0 0-.34.37 3 3 0 0 0-.28.44 7 7 0 0 0-.31.69c.86.28 1.7.6 2.54.95 0-.33.07-.69.09-1.1a3 3 0 0 0 0-.52 2.16 2.16 0 0 0-.16-.47 1 1 0 0 0-.12-.16l-.94-.4ZM96.42 127.32c-.84.15-1.66.31-2.43.48.73-.15 1.55-.32 2.43-.48Z"/>
  <path fill="#f44545" d="M92.62 128.11c-.92.23-1.77.47-2.51.72v.09a24.71 24.71 0 0 1 2.54-.77ZM99.55 126.82l-.5.06ZM102 126.52l-.57.07ZM99.55 126.82l1.88-.23ZM109.06 126.14a77.67 77.67 0 0 1 0 0ZM110.69 126.16q1.16 0 2.31.09c-.78 0-1.55-.07-2.3-.08ZM119.29 127c-1.49-.25-3-.43-4.42-.55 1.45.06 2.94.24 4.42.55ZM124.48 128.16a.5.5 0 0 1 0-.12c-1-.3-2.1-.55-3.15-.77v.07c1.02.23 2.09.5 3.15.82ZM126.3 128.75c.86.31 1.72.64 2.55 1v-.19a33.8 33.8 0 0 0-2.54-.95Z"/>
  <path fill="#f9468b" d="M128.11 126.88a.74.74 0 0 0-.39 0l.94.4a1 1 0 0 0-.15-.2.84.84 0 0 0-.4-.2Z"/>
  <path d="M98.55 133.68a4 4 0 0 1 .06 1.37q-.14 1-.87 1.17a1.07 1.07 0 0 1-.91-.22 2.26 2.26 0 0 1-.61-1.05c-.09-.3-.18-.44-.28-.42s-.11.2-.1.58v.56a2.07 2.07 0 0 0 0 .22v.18a1 1 0 0 1-.78.68 1 1 0 0 1-1.08-.57l-.41-.91c-.08-.17-.15-.25-.2-.24v.05a.29.29 0 0 1 0 .09.36.36 0 0 0 0 .1 2.09 2.09 0 0 0 0 .24c.06 1-.28 1.57-1 1.71-.46.09-.86-.16-1.19-.74 0-.1-.1-.19-.14-.29l-.13-.33a4 4 0 0 1-.2-.71c0-.13 0-.27-.08-.39l-.06-.38v-.74a.84.84 0 0 0-.05-.17v-.16a1.24 1.24 0 0 1 0-.16 1.36 1.36 0 0 0 0-.17 15.12 15.12 0 0 1-.21-4.95 3.43 3.43 0 0 1 .26-1 1.3 1.3 0 0 1 .39-.45 1.13 1.13 0 0 1 .53-.24 1.22 1.22 0 0 1 1.2.47 3.53 3.53 0 0 1 .19.3l.15.26.21.36q.35.58.54.54c.16 0 .27-.23.32-.61a.78.78 0 0 1 0-.16 1.1 1.1 0 0 0 0-.18v-.33c0-.13.06-.27.1-.4s0-.12 0-.17a.59.59 0 0 1 .06-.14 1.2 1.2 0 0 1 .88-.68q.92-.17 1.71 1.17a8.26 8.26 0 0 1 .51 1c.15.35.29.71.43 1.1s.25.8.37 1.22.21.88.3 1.36a1.06 1.06 0 0 0 0 .19v.55l.09.34.09.35c0 .13.06.25.08.37s-.19.31-.17.43Zm-.74-2.11a14.68 14.68 0 0 0-1.56-4.57c-.45-.76-.91-1.1-1.37-1a.82.82 0 0 0-.63.49 1.69 1.69 0 0 0-.1.27c0 .11-.05.23-.08.36s0 .21 0 .32a3.06 3.06 0 0 1 0 .32c-.07.54-.27.83-.57.89s-.58-.18-.88-.71l-.35-.58a1.34 1.34 0 0 0-.18-.28.86.86 0 0 0-.88-.35.89.89 0 0 0-.68.51 2.89 2.89 0 0 0-.24.89 14.82 14.82 0 0 0 .22 4.84 3.81 3.81 0 0 0 .43 1.22c.25.45.53.64.84.58.53-.1.77-.55.73-1.36a1.36 1.36 0 0 1 .08-.55c.06-.2.15-.3.28-.33s.41.1.57.42l.4.9a.67.67 0 0 0 .72.4.69.69 0 0 0 .53-.47 1.9 1.9 0 0 0 .06-.35 3.68 3.68 0 0 0 0-.51c0-.55.12-.85.38-.9s.51.17.66.66c.23.79.61 1.13 1.14 1 .32-.06.52-.35.6-.88a3.93 3.93 0 0 0-.12-1.23Z"/>
  <path d="M104.21 133.93a2 2 0 0 1-.12 1 1 1 0 0 1-.9.7 1.16 1.16 0 0 1-1.13-.54 1.56 1.56 0 0 1-.2-.39l-.23-.6c-.14-.43-.26-.64-.34-.63s-.25.29-.37.83a1.57 1.57 0 0 0-.06.28v.26c0 .08 0 .15-.06.2a.86.86 0 0 1 0 .13 1.2 1.2 0 0 1-1 .79.92.92 0 0 1-.54-.1 1.17 1.17 0 0 1-.44-.38.78.78 0 0 1-.11-.18l-.09-.22a2.1 2.1 0 0 1-.11-.45 13.23 13.23 0 0 1-.06-1.66 1.49 1.49 0 0 1-.11-.28v-.26a14.22 14.22 0 0 1 .65-5.9c.33-1 .85-1.49 1.59-1.56a1.34 1.34 0 0 1 1 .28 2.65 2.65 0 0 1 .43.4 2.89 2.89 0 0 1 .38.56 15.87 15.87 0 0 1 1.01 2.79 13.83 13.83 0 0 1 .59 2.78 1.85 1.85 0 0 1 0 .67 11.61 11.61 0 0 1 .22 1.48Zm-.55-2.17a14.12 14.12 0 0 0-1.74-5.39c-.42-.77-.92-1.13-1.48-1.07s-1 .5-1.31 1.34a14 14 0 0 0-.63 5.76 1.4 1.4 0 0 0 .25.69.73.73 0 0 0 .68.35.82.82 0 0 0 .73-.52 2.11 2.11 0 0 0 .07-.25c0-.16.08-.38.15-.67.16-.69.38-1.05.66-1.07s.49.26.69.86a3.41 3.41 0 0 0 .38.89.88.88 0 0 0 .83.41.73.73 0 0 0 .62-.51 1.69 1.69 0 0 0 .1-.82Zm-2.31-3.76a.7.7 0 0 1-.14.5.66.66 0 0 1-.46.26.63.63 0 0 1-.5-.16.72.72 0 0 1-.09-1 .6.6 0 0 1 .45-.25.73.73 0 0 1 .5.15.79.79 0 0 1 .24.5Z"/>
  <path d="M109.93 132.31a3.62 3.62 0 0 1-.2 1.42 3.32 3.32 0 0 1-.35.68 3 3 0 0 1-.44.48 2.78 2.78 0 0 1-1.7.53 2.88 2.88 0 0 1-2.63-1.25 5.62 5.62 0 0 1-.81-3v-.28a2.17 2.17 0 0 1 0-.26 4 4 0 0 1 0-.51 2.51 2.51 0 0 1 0-.27V128.96a5.49 5.49 0 0 1 .62-2.84 2.74 2.74 0 0 1 2.46-1.56 3.8 3.8 0 0 1 1.09.12 2.65 2.65 0 0 1 .83.44 2 2 0 0 1 .55.68 2.34 2.34 0 0 1 .21.92 1 1 0 0 1-.4.91 2.15 2.15 0 0 1 .33.58 2.24 2.24 0 0 1 .13.71 1.15 1.15 0 0 1 .12.25c0 .09.07.19.1.28a3 3 0 0 1 .09.62v.69a3.45 3.45 0 0 1-.12.58 1.91 1.91 0 0 1 .15.44 3.12 3.12 0 0 1-.03.53Zm-.39-2.19a2.11 2.11 0 0 0-.34-1.11 1.12 1.12 0 0 0-1-.52 1 1 0 0 0-.61.22.79.79 0 0 0-.31.62 1.62 1.62 0 0 0 0 .2 1.77 1.77 0 0 0 0 .2 1.24 1.24 0 0 1 0 .16.78.78 0 0 1 0 .16c.06.46-.08.7-.42.71-.19 0-.35-.16-.48-.5a4 4 0 0 1-.21-1.24c0-1.34.24-2 .82-2a.62.62 0 0 1 .32.05 2.67 2.67 0 0 1 .35.34.62.62 0 0 0 .48.2 1 1 0 0 0 .67-.25.81.81 0 0 0 .23-.6 1.77 1.77 0 0 0-.66-1.38 2.58 2.58 0 0 0-1.68-.46 2.45 2.45 0 0 0-2.18 1.38 5.23 5.23 0 0 0-.58 2.68 5.13 5.13 0 0 0 .75 2.82 2.64 2.64 0 0 0 2.35 1.12 2.52 2.52 0 0 0 1.5-.46 2.65 2.65 0 0 0 .69-1 3.34 3.34 0 0 0 .31-1.34Zm-2.51-.3v-.21a.9.9 0 0 0-.23.48c.06.23.14.34.23.34s.12-.12.1-.34a1 1 0 0 0-.13-.27ZM113.33 126.18a9.73 9.73 0 0 1 .13 1.21v1.24a2.81 2.81 0 0 0 0 .29 2.45 2.45 0 0 1 0 .27v.27a2.45 2.45 0 0 1 0 .27v.27a2.72 2.72 0 0 0 0 .28v.56c0 .46 0 .92-.11 1.36 0 .22-.06.43-.11.65s-.09.43-.15.64l-.1.33-.1.32a3.76 3.76 0 0 1-.25.53c-.28.53-.63.79-1 .77s-.7-.3-1-.88a2 2 0 0 1-.11-.26c0-.09-.07-.19-.11-.3a4.5 4.5 0 0 1-.17-.63 6.11 6.11 0 0 1-.13-.7c0-.23 0-.46-.07-.7a5.48 5.48 0 0 1 0-.7v-.7a2.72 2.72 0 0 0 0-.28 2.28 2.28 0 0 1 0-.26v-.25a2.11 2.11 0 0 1 0-.26V128.65a2.81 2.81 0 0 0 0-.29 9.73 9.73 0 0 1 .34-2.3q.42-1.5 1.53-1.47c.78.02 1.25.55 1.41 1.59Zm-.33 0c-.13-.85-.49-1.28-1.09-1.3s-1 .39-1.2 1.23a9.73 9.73 0 0 0-.33 2.22 11.76 11.76 0 0 0 .23 2.73 5.69 5.69 0 0 0 .16.59 4.87 4.87 0 0 0 .21.53c.2.45.43.68.67.69s.49-.2.72-.61a4 4 0 0 0 .23-.51c.07-.18.13-.38.19-.59a11.64 11.64 0 0 0 .36-2.58v-1.2c0-.4-.09-.76-.15-1.16Z"/>
  <path d="M119.11 134a1.76 1.76 0 0 1-.84 1.34 2.84 2.84 0 0 1-1.89.43 2.9 2.9 0 0 1-2.47-1.55 5.48 5.48 0 0 1-.45-3.07 2.46 2.46 0 0 1 0-.28v-.26a4.05 4.05 0 0 1 .12-.5 2.44 2.44 0 0 1 0-.27V128.95a5.57 5.57 0 0 1 .94-2.75 2.76 2.76 0 0 1 2.62-1.27 3.43 3.43 0 0 1 1.06.26 2.47 2.47 0 0 1 .78.54 2.07 2.07 0 0 1 .47.76 2.27 2.27 0 0 1 .1.94 1.13 1.13 0 0 1-.15.51 1.45 1.45 0 0 1-.33.36 2.13 2.13 0 0 1 .29 1.33 1.13 1.13 0 0 1-.19.56 1.49 1.49 0 0 1-.44.39 1.17 1.17 0 0 1 .5 1.22 1.62 1.62 0 0 1-.53 1.09 1.26 1.26 0 0 1 .41 1.11Zm-.14-2.23a.89.89 0 0 0-.94-1.08.8.8 0 0 0-.59.21.71.71 0 0 1-1.22-.35 3 3 0 0 1-.12-1.25 3.54 3.54 0 0 1 .12-.69 3 3 0 0 1 .21-.59c.2-.44.45-.65.73-.62a.62.62 0 0 1 .48.4.68.68 0 0 0 .26.24.65.65 0 0 0 .35.14 1 1 0 0 0 .73-.19.76.76 0 0 0 .31-.59 1.77 1.77 0 0 0-.5-1.46 2.47 2.47 0 0 0-1.61-.68 2.44 2.44 0 0 0-2.32 1.13 5.22 5.22 0 0 0-.88 2.59 5.08 5.08 0 0 0 .42 2.88 2.6 2.6 0 0 0 2.2 1.38 2.52 2.52 0 0 0 1.68-.37 1.42 1.42 0 0 0 .72-1.15Zm-1.75-1.11.06-.05.07-.05h.13a.41.41 0 0 0-.1-.09.26.26 0 0 1-.09-.09l-.09-.08a.35.35 0 0 1 0-.08c-.08-.14-.15-.22-.22-.22s-.26.13-.4.43c.09.22.21.35.36.36a.47.47 0 0 0 .28-.18Z"/>
  <path d="M124.6 135.26a2.06 2.06 0 0 1-.37.91 1 1 0 0 1-1 .46 1.17 1.17 0 0 1-1-.81 1.92 1.92 0 0 1-.1-.44c0-.18 0-.39-.07-.63 0-.45-.08-.68-.16-.7s-.32.22-.57.71a1.65 1.65 0 0 0-.14.26 1.63 1.63 0 0 1-.11.23c0 .08-.08.14-.1.19a.72.72 0 0 1-.07.11 1.21 1.21 0 0 1-1.21.5.92.92 0 0 1-.5-.23 1.38 1.38 0 0 1-.33-.48 1.17 1.17 0 0 1-.06-.2v-.24a2.32 2.32 0 0 1 0-.46 13.66 13.66 0 0 1 .36-1.62 1.39 1.39 0 0 1 0-.3.61.61 0 0 1 0-.14.41.41 0 0 1 0-.12 14.24 14.24 0 0 1 2.12-5.55 2 2 0 0 1 1.93-1.11 1.39 1.39 0 0 1 .89.52 2.6 2.6 0 0 1 .32.51 3.58 3.58 0 0 1 .23.63 15.56 15.56 0 0 1 .44 3 13.23 13.23 0 0 1-.12 2.84 2.09 2.09 0 0 1-.21.64 11.16 11.16 0 0 1-.17 1.52Zm0-2.24a14.08 14.08 0 0 0-.32-5.66c-.21-.85-.6-1.32-1.16-1.41s-1.13.23-1.6 1a13.71 13.71 0 0 0-2.07 5.42 1.27 1.27 0 0 0 .06.73.72.72 0 0 0 .57.51.84.84 0 0 0 .84-.32l.13-.23.31-.6c.34-.63.64-.92.91-.87s.41.38.45 1a3.19 3.19 0 0 0 .15 1 .86.86 0 0 0 .69.6.71.71 0 0 0 .73-.33 1.72 1.72 0 0 0 .33-.86Zm-1.28-4.23a.74.74 0 0 1-.26.45.7.7 0 0 1-.52.13.59.59 0 0 1-.43-.28.69.69 0 0 1-.12-.52.71.71 0 0 1 .27-.45.59.59 0 0 1 .5-.13.64.64 0 0 1 .45.28.73.73 0 0 1 .13.52Z"/>
  <path d="M129.73 136.56c-.16.72-.75 1.07-1.76 1a4.22 4.22 0 0 1-.49 0h-.27l-.27-.06-.27-.07-.26-.07a4.29 4.29 0 0 1-.54-.19 1.85 1.85 0 0 1-1-.76 2.32 2.32 0 0 1-.21-1 12 12 0 0 1 .4-3.08l.22-.83a10.3 10.3 0 0 1 .27-1.32l.19-.7c.06-.21.12-.43.19-.62a5.36 5.36 0 0 1 .2-.53l.22-.46c.52-1 1.13-1.4 1.84-1.24a1.28 1.28 0 0 1 .5.24 1.31 1.31 0 0 1 .35.42l.13.27c.04.09.07.2.09.3a3 3 0 0 1 .06.66c0 .37 0 .72-.09 1s-.1.65-.17.95a7.2 7.2 0 0 1-.31 1l-.17 1.05h.13l.77.44a1.07 1.07 0 0 1 .21.13.65.65 0 0 1 .18.15 1.75 1.75 0 0 1 .25.39 1.06 1.06 0 0 1 .1.71 1.22 1.22 0 0 1-1 1 1.3 1.3 0 0 1 .37.49 1.06 1.06 0 0 1 .14.73Zm.17-2.23a.76.76 0 0 0-.08-.49 1.28 1.28 0 0 0-.5-.51l-.77-.43c-.35-.2-.49-.44-.42-.75a2.55 2.55 0 0 1 .1-.29 7.71 7.71 0 0 0 .29-.75 4.79 4.79 0 0 0 .21-.74 8.1 8.1 0 0 0 .25-1.91 1.94 1.94 0 0 0 0-.54 1.86 1.86 0 0 0-.16-.47.93.93 0 0 0-.66-.54c-.54-.13-1 .23-1.46 1a5.26 5.26 0 0 0-.4 1c-.12.37-.25.79-.37 1.27a12 12 0 0 0-.39 3 1.76 1.76 0 0 0 .17.86 1.44 1.44 0 0 0 .82.61 6.11 6.11 0 0 0 2 .45c.77.03 1.25-.23 1.37-.77Z"/>
  <path fill="none" d="M92.64 148.07ZM121.84 148.53h-.63.63ZM121.46 146.49ZM107.92 152.89ZM95 152.36ZM95 146.17h.58ZM95.59 150.34h-.58Z"/>
  <path d="M92.64 146ZM92.84 150.15h-.2ZM92.84 152.21ZM95.09 152.37h.51ZM95 148.23h.58ZM107.49 152.89ZM108.52 152.9h2.11ZM106.71 150.8h3.56c-1.27.04-2.42.03-3.56 0ZM110.64 148.78h-3.93c1.29-.02 2.56 0 3.93 0ZM107.48 152.89h-.61ZM112.05 150.85h4-4ZM113.7 148.78ZM116.81 148.72h-.74ZM116 148.74h-1.33ZM116.07 150.81ZM113.36 152.91h1.94ZM122.17 148.52h-.33ZM122.18 146.45h-.72Z"/>
  <path fill="#4e809b" d="M76.9 150.7a.53.53 0 0 0 .36.24.65.65 0 0 0 .39 0 .77.77 0 0 0 .29-.19.5.5 0 0 0 .08-.12l-1.22-.2a1.69 1.69 0 0 0 .1.27ZM79.44 151a.82.82 0 0 0 .19.37.72.72 0 0 0 .41.23.55.55 0 0 0 .49-.1 1.74 1.74 0 0 0 .41-.44l-1.54-.21a.62.62 0 0 0 .04.15ZM74.15 150a.5.5 0 0 0 .37.31.74.74 0 0 0 .49 0 .78.78 0 0 0 .2-.11l-1.08-.22ZM83.9 151.76a.93.93 0 0 0 .14.36 1 1 0 0 0 .26.28 1.14 1.14 0 0 0 .36.15.86.86 0 0 0 .39 0 1 1 0 0 0 .35-.18 1.16 1.16 0 0 0 .26-.28 1 1 0 0 0 .15-.34v-.13l-1.94-.2a.87.87 0 0 0 .03.34ZM92.64 152.2c-1.42-.11-2.85-.22-4.27-.35a.84.84 0 0 0 .12.62 1.57 1.57 0 0 0 .51.53 3.52 3.52 0 0 0 .73.34 6.12 6.12 0 0 0 .87.2 2.6 2.6 0 0 0 .88 0 2.44 2.44 0 0 0 .8-.32 2 2 0 0 0 .6-.59 1.66 1.66 0 0 0 .18-.35h-.19ZM95.09 152.37a2.64 2.64 0 0 0 0 .68 1.64 1.64 0 0 0 .12.4 1.21 1.21 0 0 0 .24.35 1.44 1.44 0 0 0 .34.27 1 1 0 0 0 .4.12A1.09 1.09 0 0 0 97 154a1.46 1.46 0 0 0 .5-.68 2.93 2.93 0 0 0 .15-.76l-2-.13ZM99.85 152.64c0 .22 0 .43.06.65a4.94 4.94 0 0 0 .12.51.77.77 0 0 0 .2.34 1 1 0 0 0 .34.22 2.9 2.9 0 0 0 .57.15l.48.08h.57a5.52 5.52 0 0 0 .57 0 3.89 3.89 0 0 0 .51 0 2.64 2.64 0 0 0 .57-.14 1.35 1.35 0 0 0 .38-.2.68.68 0 0 0 .21-.25.58.58 0 0 0 .08-.23 1.21 1.21 0 0 0 0-.18.66.66 0 0 0-.3-.46 1.24 1.24 0 0 0-.4-.2l-.53-.19-1.66-.06ZM107.48 152.89h-1.79v.24a4.33 4.33 0 0 0 .11.51 2.49 2.49 0 0 0 .21.56 1.48 1.48 0 0 0 .3.45.6.6 0 0 0 .88 0 1.85 1.85 0 0 0 .32-.44 3.21 3.21 0 0 0 .22-.54 3 3 0 0 0 .12-.48.82.82 0 0 0 0-.18v-.08h-.44ZM108.53 152.92l.08.24c0 .17.08.35.11.55a1.67 1.67 0 0 0 .15.54 1.12 1.12 0 0 0 .3.41.85.85 0 0 0 .56.18 1.38 1.38 0 0 0 .52-.09 1 1 0 0 0 .35-.26 1.23 1.23 0 0 0 .21-.37 1.41 1.41 0 0 0 .07-.41 1.21 1.21 0 0 0-.06-.38 2.17 2.17 0 0 0-.15-.35v-.06h-2.11ZM113.39 153.77a1 1 0 0 0 .09.37 1.11 1.11 0 0 0 .21.32 1 1 0 0 0 .32.21.85.85 0 0 0 .39.07.82.82 0 0 0 .37-.1.91.91 0 0 0 .3-.25 1.12 1.12 0 0 0 .2-.33.78.78 0 0 0 .06-.37v-.8h-1.94ZM122.59 153.19a1.18 1.18 0 0 0 .19.37 1.38 1.38 0 0 0 .7.49.94.94 0 0 0 .41 0 1.09 1.09 0 0 0 .75-.38 1.4 1.4 0 0 0 .36-.67 2.43 2.43 0 0 0 0-.47q-1.26.09-2.52.15a3.1 3.1 0 0 0 .11.51ZM127.8 152.35a3 3 0 0 0 1.07.78 2.66 2.66 0 0 0 1.39.15 2.47 2.47 0 0 0 1.28-.56 2.83 2.83 0 0 0 .68-.92c-1.48.18-3 .34-4.48.47ZM134.71 151.61a2.59 2.59 0 0 0 1 .5 2.82 2.82 0 0 0 1.26 0 3.26 3.26 0 0 0 1.13-.45 2.62 2.62 0 0 0 .79-.8.36.36 0 0 1 0-.09 95.7 95.7 0 0 1-4.34.73ZM144.07 149.81a1.11 1.11 0 0 0 .4.32.84.84 0 0 0 .59 0 1.21 1.21 0 0 0 .47-.22 1 1 0 0 0 .27-.34 1.19 1.19 0 0 0 .11-.41s0-.08 0-.11c-.63.19-1.28.38-1.94.56a2 2 0 0 0 .1.2ZM141.32 150.49a1.69 1.69 0 0 0 .41.35.64.64 0 0 0 .47.06.59.59 0 0 0 .38-.3 1.63 1.63 0 0 0 .19-.51v-.17l-1.61.38Z"/>
  <path fill="#84a226" d="M75.36 150a1.31 1.31 0 0 0 .24-.34l.15-.35c0-.08.08-.17.13-.25a1.37 1.37 0 0 1 .17-.23.66.66 0 0 1 .2-.14.28.28 0 0 1 .2 0 .36.36 0 0 1 .26.22 1.51 1.51 0 0 1 .07.4 4.27 4.27 0 0 1 0 .49 2.77 2.77 0 0 0 0 .5.29.29 0 0 0 0 .09l1.26.21a1.18 1.18 0 0 0 .13-.18 3.91 3.91 0 0 0 .2-.41l.12-.25a1.43 1.43 0 0 1 .16-.24.66.66 0 0 1 .19-.15.36.36 0 0 1 .25 0 .42.42 0 0 1 .22.12.55.55 0 0 1 .12.21.8.8 0 0 1 0 .27 1.41 1.41 0 0 1 0 .28 3.43 3.43 0 0 0 0 .38v.19L81 151a3.16 3.16 0 0 0 .26-.52 5.51 5.51 0 0 0 .19-.58l.2-.85a82.69 82.69 0 0 1-7.46-1.2l-.06.23c0 .19-.08.4-.11.63a3.75 3.75 0 0 0 0 .67 2 2 0 0 0 .11.45l1.16.26ZM86.34 149.7l.28-.08-2.41-.25a.23.23 0 0 1 0 .17l-.34 1.83 1.93.22.32-1.71a.21.21 0 0 1 .22-.18ZM92.64 150.13l-2.43-.19.1.09.22.18.25.22a1.71 1.71 0 0 1 .22.25 1.08 1.08 0 0 1 .16.3.89.89 0 0 1 0 .33.46.46 0 0 1-.2.31.48.48 0 0 1-.37.09 1 1 0 0 1-.39-.13 1.89 1.89 0 0 1-.27-.2l-.26-.2a.8.8 0 0 0-.35-.12.8.8 0 0 0-1 .78c1.36.13 2.78.25 4.27.36h.39a2.63 2.63 0 0 0 .14-.5 3.26 3.26 0 0 0 0-.88 2.33 2.33 0 0 0-.21-.69h-.13ZM97.56 151.51a4.18 4.18 0 0 1-.06-.56v-.5l-1.89-.11c-.08.36-.16.69-.25 1a7.15 7.15 0 0 0-.24 1 .34.34 0 0 0 0 .1h.51c.66 0 1.34.09 2 .12a3.63 3.63 0 0 0-.07-1.05ZM102.5 152.4a.41.41 0 0 1-.1-.31.45.45 0 0 1 .13-.29.64.64 0 0 1 .37-.21l.73-.19a3.08 3.08 0 0 0 .64-.24.45.45 0 0 0 .26-.39l-2.92-.1-1.83-.08a.92.92 0 0 0 0 .16 13.56 13.56 0 0 0 .08 1.91l3 .12h.47l-.44-.15a.7.7 0 0 1-.39-.23ZM110.24 152.36a3.55 3.55 0 0 1-.27-.46 1.09 1.09 0 0 1-.1-.33.52.52 0 0 1 0-.22.73.73 0 0 1 .09-.13 2.56 2.56 0 0 0 .3-.37h-4.71v.14a10.63 10.63 0 0 0 0 1.14c0 .28.05.54.09.79h2.23v-.11a.4.4 0 0 1 .07-.21.29.29 0 0 1 .14-.08.23.23 0 0 1 .16 0 .53.53 0 0 1 .13.16l.08.22h2.11a2.2 2.2 0 0 0-.17-.25c0-.09-.08-.19-.15-.29ZM116 150.81h-4a3 3 0 0 0 .53.48 2.39 2.39 0 0 0 .58.32.2.2 0 0 1 .14.22v1h1.94v-1.07a.24.24 0 0 1 .15-.23 2.93 2.93 0 0 0 .56-.36 2.35 2.35 0 0 0 .4-.43h-.3ZM124.73 151.19a5 5 0 0 1-.17-.54v-.2l-2 .11v.86a7.18 7.18 0 0 0 0 1 1.49 1.49 0 0 0 0 .21q1.26-.06 2.52-.15a1.72 1.72 0 0 0 0-.32 3.81 3.81 0 0 0-.35-.97ZM132.64 150.29v-.61l-2.16.26v.54a1.82 1.82 0 0 1-.16.57.49.49 0 0 1-.37.29.54.54 0 0 1-.5-.16 1.67 1.67 0 0 1-.33-.5 4.55 4.55 0 0 1-.18-.59l-2.17.19a5.62 5.62 0 0 0 .28.88 4.52 4.52 0 0 0 .68 1.1c1.51-.13 3-.29 4.51-.48l.07-.12a5 5 0 0 0 .33-1.37ZM139.26 148.63c-.74.15-1.48.29-2.23.41v.07a1.31 1.31 0 0 1 0 .4.62.62 0 0 1-.15.29.51.51 0 0 1-.29.16.48.48 0 0 1-.31 0 .6.6 0 0 1-.26-.22 1.23 1.23 0 0 1-.19-.36s0-.07 0-.1c-.74.12-1.48.22-2.23.32a4.06 4.06 0 0 0 .41 1.14 2.94 2.94 0 0 0 .58.76c1.5-.22 3-.48 4.4-.77a3 3 0 0 0 .32-.92 3.68 3.68 0 0 0-.05-1.18ZM140.33 148.58l.39 1 .25.46a1.77 1.77 0 0 0 .16.22l1.67-.42a1.45 1.45 0 0 0 0-.29V148.68a.34.34 0 0 1 0-.21.24.24 0 0 1 .11-.13.22.22 0 0 1 .16 0 .53.53 0 0 1 .17.12l.15.2.14.21a4.66 4.66 0 0 1 .25.5 1.51 1.51 0 0 0 .1.17c.68-.2 1.35-.41 2-.63a.49.49 0 0 0 0-.12 1 1 0 0 0-.16-.35 1.73 1.73 0 0 0-.23-.29 3.47 3.47 0 0 0-.29-.25l-.3-.24a3.18 3.18 0 0 1-.26-.25c-1.39.4-2.84.75-4.34 1.06l.03.11ZM122.08 152.66h.41ZM95 152.36h-.65Z"/>
  <path fill="#84a226" d="M76.79 150.38a.43.43 0 0 0 0 .05l1.22.2ZM74.11 149.84v.08l1.08.22h.06ZM79.41 150.79v.05l1.54.21ZM83.9 151.37l1.94.2ZM88.37 151.84c1.42.13 2.85.24 4.27.35-1.49-.1-2.91-.19-4.27-.35ZM92.84 152.21h.19ZM95.6 152.4l2 .13-2-.13ZM102.8 152.76c-1 0-2-.07-3-.12l1.76.08 1.66.06ZM107.49 152.89ZM105.69 152.85h1.18ZM122.49 152.63q1.26-.06 2.52-.15-1.26.09-2.52.15ZM127.73 152.26a79.8 79.8 0 0 1 0 0ZM134.57 151.46a95.7 95.7 0 0 0 4.34-.73v-.07c-1.37.34-2.84.58-4.34.8ZM144 149.62a75.8 75.8 0 0 0 1.94-.56 1.23 1.23 0 0 0 0-.19c-.64.22-1.31.43-2 .63ZM141.13 150.22a.35.35 0 0 0 .05.08l1.61-.38a.49.49 0 0 0 0-.12Z"/>
  <path fill="#ffc24b" d="M81.67 148.86c.08-.36.15-.73.2-1.13v-.7c-2.7-.33-5.16-.7-7.13-1.11v.06c-.15.39-.27.77-.38 1.13l-.19.68c1.58.38 4.13.81 7.44 1.24a1 1 0 0 0 .06-.17ZM87 149.47a2.92 2.92 0 0 0 .59-.4 2.34 2.34 0 0 0 .46-.53 1.63 1.63 0 0 0 .26-.64v-.19l-2.18-.21a1.25 1.25 0 0 1-.15.28.42.42 0 0 1-.39.16.46.46 0 0 1-.38-.29.7.7 0 0 1 0-.25l-2.21-.24a1.63 1.63 0 0 0 0 .44 2.68 2.68 0 0 0 .24.67 3 3 0 0 0 .41.59 2.87 2.87 0 0 0 .5.44l2.46.27ZM89.06 148.29a2.27 2.27 0 0 0 .22.62 2.09 2.09 0 0 0 .37.5 5.93 5.93 0 0 0 .44.43l.11.1 2.44.19H93a2.76 2.76 0 0 0-.36-.57 4.57 4.57 0 0 0-.44-.44 3.42 3.42 0 0 0-.43-.36l-.38-.31a.7.7 0 0 1-.3-.52l-2-.17a1.76 1.76 0 0 0-.03.53ZM97.48 149.65v-.63a.37.37 0 0 1 .12-.25.35.35 0 0 1 .3-.13 1.94 1.94 0 0 0 .5-.08 1.12 1.12 0 0 0 .25-.11l-3.11-.18h-.58.06a3.57 3.57 0 0 0 .46.16.44.44 0 0 1 .25.16.33.33 0 0 1 0 .24 10.54 10.54 0 0 1-.2 1.39v.12l1.89.11v-.14c.05-.21.05-.44.06-.66ZM102.8 150.7l1.73.05a.61.61 0 0 0-.16-.41 1.31 1.31 0 0 0-.62-.36l-.72-.26a.94.94 0 0 1-.37-.23.31.31 0 0 1-.12-.27.34.34 0 0 1 .14-.25 1 1 0 0 1 .4-.18l.61-.13-2.08-.07-1.53-.07a10.92 10.92 0 0 0-.3 2ZM110.33 150.77a2.62 2.62 0 0 0 .23-.48 2.09 2.09 0 0 0 .12-.46 2.15 2.15 0 0 0 0-.43 2.7 2.7 0 0 0-.08-.62h-4.79a5.81 5.81 0 0 0-.22 1c0 .34-.06.68-.07 1h4.71Zm-2.08-.57a.63.63 0 0 1-.48-.21.69.69 0 0 1-.19-.49.72.72 0 0 1 .2-.49.62.62 0 0 1 .48-.2.65.65 0 0 1 .49.21.67.67 0 0 1 .19.49.68.68 0 0 1-.69.69ZM116 148.74h-1.33a5.29 5.29 0 0 1 0 .54.94.94 0 0 1-.11.5.38.38 0 0 1-.34.24.45.45 0 0 1-.43-.19.94.94 0 0 1-.14-.52v-.25a1.5 1.5 0 0 1 0-.3h-2.12a4.3 4.3 0 0 0 0 .81 1.83 1.83 0 0 0 .16.68 3.41 3.41 0 0 0 .36.57h4.35l.08-.08a2.87 2.87 0 0 0 .34-.62 1.77 1.77 0 0 0 .11-.68 7 7 0 0 0-.09-.7h-.74ZM124.28 149.38c0-.23-.06-.44-.08-.63a.42.42 0 0 1 .07-.27.34.34 0 0 1 .08-.09l-2.18.13h-.33.28a.35.35 0 0 1 .27.1.36.36 0 0 1 .11.22c0 .51.07 1 .07 1.4v.26l2-.11c0-.14-.07-.28-.11-.42ZM132.59 148.82a5.67 5.67 0 0 0-.31-1.16c-.74.09-1.48.18-2.23.25l.06.12a3.11 3.11 0 0 1 .21.63 4.2 4.2 0 0 1 .12.57c0 .15 0 .34.05.57v.12l2.16-.26a5.93 5.93 0 0 0-.06-.84ZM128.81 149.41c0-.15 0-.34-.06-.55a3.41 3.41 0 0 1 0-.64v-.18l-2.17.19v.06a5.87 5.87 0 0 0 0 1.45c0 .18.08.36.12.53.72-.05 1.45-.12 2.17-.19a.14.14 0 0 0 0-.06ZM135.71 148.15v-.95l-2.35.34c0 .24 0 .51.07.79s.11.73.2 1.15v.06l2.23-.34a3.23 3.23 0 0 1-.06-.33ZM136.49 147.24l.25.71c.08.22.15.45.22.7s0 .23.06.34c.75-.13 1.5-.27 2.23-.42a.31.31 0 0 0 0-.1 16.09 16.09 0 0 0-.48-1.81c-.76.15-1.54.28-2.32.41a.84.84 0 0 0 .04.17ZM142.39 146.07a.62.62 0 0 1-.5-.06c-.7.16-1.4.32-2.12.46a9 9 0 0 0 .21 1c.08.29.18.57.28.85 1.47-.33 2.89-.69 4.24-1.1a1.56 1.56 0 0 1-.19-.29.59.59 0 0 1 0-.21.75.75 0 0 1 0-.16 2.5 2.5 0 0 0 .23-.53 2.47 2.47 0 0 0 .09-.52 1 1 0 0 0 0-.24c-.61.17-1.23.34-1.86.49a.63.63 0 0 1-.38.31ZM122.18 150.58h.38ZM95 150.3l-.67-.05Z"/>
  <path fill="#ffc24b" d="M81.63 149a78.37 78.37 0 0 1-7.44-1.24v.07c2 .44 4.58.85 7.46 1.2ZM84.19 149.34l2.41.25ZM90.21 149.94l2.43.19-2.44-.19ZM92.84 150.15ZM97.48 150.45l-1.89-.11 1.89.11ZM102.8 150.7l-3-.13 1.83.08 2.92.1ZM105.56 150.78h1.15-1.15ZM116.07 150.81ZM124.51 150.45l-2 .11 2-.11ZM126.77 150.27l2.17-.19c-.72.07-1.45.14-2.17.19ZM130.49 149.92l2.16-.26ZM137 149c.75-.12 1.49-.26 2.23-.41a.13.13 0 0 0 0-.06c-.73.15-1.48.29-2.23.42a.43.43 0 0 0 0 .05ZM133.57 149.54c.75-.1 1.49-.2 2.23-.32ZM140.28 148.43c1.5-.31 2.95-.66 4.34-1.06a.68.68 0 0 1-.12-.12c-1.35.41-2.77.77-4.24 1.1l.02.08Z"/>
  <path fill="#f44545" d="M82 146.49a12.92 12.92 0 0 0 0-1.37.88.88 0 0 1 0-.16c-.78-.09-1.52-.19-2.25-.29l-.11.18-.17.24a1.19 1.19 0 0 1-.19.2.7.7 0 0 1-.24.13.76.76 0 0 1-.3 0 .49.49 0 0 1-.24-.15.72.72 0 0 1-.15-.27 1.57 1.57 0 0 1-.08-.31v-.24c-.87-.14-1.69-.27-2.46-.42-.14.25-.28.5-.4.76s-.33.72-.47 1.08c1.65.35 4.07.74 7.12 1.13-.12-.17-.06-.33-.06-.51ZM86.28 146.19a2.67 2.67 0 0 1 0 .56c0 .2-.05.38-.08.56a.84.84 0 0 1-.05.17l2.17.22v-.52a5.16 5.16 0 0 0-.06-1 3 3 0 0 0-.17-.6l-1.7-.16a1.33 1.33 0 0 0-.11.3 1.94 1.94 0 0 0 0 .47ZM83 146.9v.23l2.18.25a2.46 2.46 0 0 1 0-.26v-.25c0-.1 0-.21.07-.31s0-.21.08-.31a.79.79 0 0 1 .08-.22 1.67 1.67 0 0 1 .08-.2 1.41 1.41 0 0 0 .06-.22 1.69 1.69 0 0 0 0-.23l-1.88-.2a4 4 0 0 0-.41.69 4.56 4.56 0 0 0-.26 1.03ZM89.33 146.64a2.68 2.68 0 0 0-.29.88 2.18 2.18 0 0 0 0 .25l2 .17a.39.39 0 0 1 .21-.33.71.71 0 0 1 .38-.05 1.22 1.22 0 0 1 .25.07.45.45 0 0 1 .22.12 1.24 1.24 0 0 0 .24.17.77.77 0 0 0 .26.1.92.92 0 0 0 .63-.13.79.79 0 0 0 .33-.56 1.2 1.2 0 0 0-.08-.63 1.24 1.24 0 0 0-.37-.51 1.49 1.49 0 0 0-.2-.15h-.28l-2.41-.19a2 2 0 0 0-.32.18 2.12 2.12 0 0 0-.57.61ZM95.59 148.27l3.11.18.17-.08a1 1 0 0 0 .31-.31.84.84 0 0 0 .14-.41 1 1 0 0 0-.18-.61 1.67 1.67 0 0 0-.69-.5 5.31 5.31 0 0 0-.7-.21l-2.06-.12h-.41a1.39 1.39 0 0 0-.65.33.83.83 0 0 0-.28.58 1 1 0 0 0 .06.49.93.93 0 0 0 .26.36 1.55 1.55 0 0 0 .33.21ZM103.7 148.66h.07a1.54 1.54 0 0 0 .35-.1 2.07 2.07 0 0 0 .34-.15 1.39 1.39 0 0 0 .25-.23.51.51 0 0 0 .11-.31.71.71 0 0 0-.27-.57 2.21 2.21 0 0 0-.78-.41 6.66 6.66 0 0 0-.9-.19 5.27 5.27 0 0 0-.79 0 2.6 2.6 0 0 0-1.2.35 1.78 1.78 0 0 0-.69 1.05c0 .16-.08.31-.11.47l2.72.11ZM110.64 148.78c0-.1 0-.21-.09-.31a2.68 2.68 0 0 0-.49-.83 2.44 2.44 0 0 0-.78-.59 2.33 2.33 0 0 0-1-.23 2.19 2.19 0 0 0-.71.11 2.48 2.48 0 0 0-1.26.89 2.57 2.57 0 0 0-.41.81.29.29 0 0 0 0 .09h.86c1.24.04 2.52.06 3.88.06ZM116.07 148.74h.74a4.86 4.86 0 0 0-.27-.92 2.72 2.72 0 0 0-.46-.78.83.83 0 0 0-.69-.31.82.82 0 0 0-.66.32 1.1 1.1 0 0 0-.22.75 1.83 1.83 0 0 0 .07.42 3.15 3.15 0 0 1 .11.55h1.33ZM113.7 148.76v-.32a1.44 1.44 0 0 1 0-.24v-.21a1.55 1.55 0 0 0 0-.22 1.22 1.22 0 0 0-.22-.67.82.82 0 0 0-.26-.23.6.6 0 0 0-.36-.08.89.89 0 0 0-.61.21 1.78 1.78 0 0 0-.37.52 4.1 4.1 0 0 0-.35 1 2.48 2.48 0 0 0 0 .27h2.12ZM124.35 148.39a.39.39 0 0 1 .19-.1 2.48 2.48 0 0 0 .48-.17 1.77 1.77 0 0 0 .37-.27 1 1 0 0 0 .24-.37 1 1 0 0 0 .06-.43 1 1 0 0 0-.31-.56 1 1 0 0 0-.33-.21l-2.87.17h-.72a1.63 1.63 0 0 0-.57.45.91.91 0 0 0-.17.63 1 1 0 0 0 .16.47 1.18 1.18 0 0 0 .33.3 1.47 1.47 0 0 0 .43.16 1.52 1.52 0 0 0 .21 0h.33ZM126.63 148.22l2.17-.19a1.4 1.4 0 0 1 .13-.36.55.55 0 0 1 .41-.27.49.49 0 0 1 .45.15 1.57 1.57 0 0 1 .25.35l2.23-.26c0-.07 0-.15-.07-.23a4.16 4.16 0 0 0-.73-1.16 3.48 3.48 0 0 0-.6-.49c-1.08.12-2.17.23-3.25.32a3.06 3.06 0 0 0-.64.87 4.33 4.33 0 0 0-.35 1.27ZM133.29 146.58v.93l2.35-.35c0-.18 0-.37-.07-.57s-.11-.65-.19-1.06a2.19 2.19 0 0 0-.1-.34l-1.86.26a2.16 2.16 0 0 0-.06.38c-.03.25-.06.5-.07.75ZM136.23 146.41l.19.62c.79-.13 1.56-.28 2.32-.43a2 2 0 0 0-.1-.26c-.1-.27-.22-.52-.33-.76s-.24-.46-.36-.71l-.06-.11-1.95.33a2.42 2.42 0 0 0 0 .25l.29 1.07ZM139.67 145.2a6.4 6.4 0 0 0 .07 1.15c.69-.14 1.37-.3 2-.46a.74.74 0 0 1-.23-.35.7.7 0 0 1 .06-.53.67.67 0 0 1 .93-.25.71.71 0 0 1 .32.42.7.7 0 0 1 0 .43c.61-.16 1.21-.33 1.79-.51v-.08a2.29 2.29 0 0 0-.08-.41 2.62 2.62 0 0 0-.41-.86 2.43 2.43 0 0 0-.3-.34c-1.29.35-2.63.66-4 .94a2.65 2.65 0 0 0-.15.85Z"/>
  <path fill="#f44545" d="M81.93 147a92.52 92.52 0 0 0 .01-.02ZM88.3 147.71l-2.17-.22ZM85.15 147.38l-2.15-.25 2.18.24ZM89 147.77l2 .17-2-.17ZM98.7 148.45l-3.11-.18ZM101.61 148.59l2.08.07h-.9l-2.72-.11ZM106.71 148.74h-.86ZM116 148.74ZM124.35 148.39l-2.18.13 2.18-.13ZM132.28 147.66l-2.23.26 2.23-.26ZM128.8 148l-2.17.19ZM136.44 147.07c.78-.13 1.56-.26 2.32-.41v-.06c-.76.15-1.53.3-2.32.43ZM135.64 147.2l-2.35.35ZM142.8 145.75c.63-.15 1.25-.32 1.86-.49a.86.86 0 0 0 0-.16c-.58.18-1.18.35-1.79.51a1 1 0 0 1-.07.14ZM141.89 146l-.08-.07-2 .46v.08c.68-.14 1.38-.3 2.08-.47Z"/>
  <path fill="#f9468b" d="M78.1 143.91a2.09 2.09 0 0 0-.09-.51 1.32 1.32 0 0 0-.21-.43.84.84 0 0 0-.44-.26.89.89 0 0 0-.46 0 .93.93 0 0 0-.37.19 1.58 1.58 0 0 0-.31.32 3.28 3.28 0 0 0-.27.38l-.24.38c.71.14 1.52.28 2.42.42l-.03-.49ZM81.86 144.68a2.13 2.13 0 0 0-.13-.45 1.36 1.36 0 0 0-.24-.38.75.75 0 0 0-.4-.22.82.82 0 0 0-.44 0 1.11 1.11 0 0 0-.34.18 1.91 1.91 0 0 0-.43.49l-.2.33 2.21.3ZM85.61 145.25a1 1 0 0 0-.09-.34.8.8 0 0 0-.2-.28.64.64 0 0 0-.34-.16.89.89 0 0 0-.64.07 1.86 1.86 0 0 0-.47.43l-.14.18 1.87.21.01-.11ZM88 145.36a.85.85 0 0 0-.61-.45.81.81 0 0 0-.71.17 1 1 0 0 0-.27.37l1.7.16c-.04-.08-.11-.17-.11-.25ZM92.83 146h.09a2.08 2.08 0 0 0-.39-.22 2.44 2.44 0 0 0-.74-.2 2.81 2.81 0 0 0-1.05 0 2.07 2.07 0 0 0-.51.19l2.41.19ZM97.7 146.32a5.72 5.72 0 0 0-.83-.12 7.85 7.85 0 0 0-.84 0h-.33l2 .12ZM125 146.27a2.08 2.08 0 0 0-.42-.13 4 4 0 0 0-.78-.07 5.92 5.92 0 0 0-.84.05c-.28 0-.56.09-.83.15s-.5.14-.71.22h.72c.99-.09 1.95-.15 2.86-.22ZM130.41 145.51a2.74 2.74 0 0 0-2.63.4l-.16.16c1.08-.1 2.15-.2 3.22-.32a2.61 2.61 0 0 0-.43-.24ZM135.25 145.09a1.23 1.23 0 0 0-.19-.38.62.62 0 0 0-.27-.24.65.65 0 0 0-.37 0 1.31 1.31 0 0 0-.72.42 1.38 1.38 0 0 0-.27.57c.62-.08 1.23-.17 1.84-.27a.14.14 0 0 0-.02-.1ZM137.3 144.15a1.13 1.13 0 0 0-.79-.13.67.67 0 0 0-.35.16.7.7 0 0 0-.19.29 1.25 1.25 0 0 0-.06.4v.17q1-.15 1.92-.33a1.43 1.43 0 0 0-.53-.56ZM143.45 143.13a2.61 2.61 0 0 0-.91-.37 2.41 2.41 0 0 0-1.06.06 2.23 2.23 0 0 0-.65.29 2.44 2.44 0 0 0-.57.5 2.81 2.81 0 0 0-.41.7c1.34-.29 2.63-.61 3.87-1ZM116 146.67ZM95.7 146.21ZM81.9 145l-2.21-.3c.69.07 1.43.17 2.21.3Z"/>
  <path fill="#f9468b" d="M78.13 144.4a61.7 61.7 0 0 1-2.42-.42v.05c.77.15 1.59.28 2.46.42ZM85.6 145.38l-1.87-.21ZM88.11 145.62l-1.7-.16ZM92.92 146ZM92.64 146l-2.41-.19ZM97.75 146.33l-2-.12ZM125.05 146.28l-2.86.18ZM130.87 145.76a94.75 94.75 0 0 0 0 0ZM137.89 144.76l-1.92.33v.05ZM135.28 145.19c-.61.1-1.22.19-1.84.27ZM143.72 143.34c-1.24.36-2.53.68-3.87 1s0 .06 0 .08c1.38-.28 2.72-.59 4-.94Z"/>
  <path d="M81.24 152.12a4.44 4.44 0 0 1-.51 1.27c-.38.58-.8.81-1.28.69a1 1 0 0 1-.74-.58 2.12 2.12 0 0 1-.11-1.2c0-.31 0-.48-.08-.51s-.19.15-.34.49-.18.37-.26.5l-.13.18-.12.15a1 1 0 0 1-1 .29 1 1 0 0 1-.74-1v-1c0-.19 0-.29-.08-.31l-.06.07-.06.09a1.06 1.06 0 0 0-.11.21c-.37.93-.91 1.31-1.63 1.13-.45-.11-.71-.5-.76-1.16a1.22 1.22 0 0 1 0-.33v-.35a3.38 3.38 0 0 1 .11-.73l.09-.39c0-.12.07-.24.11-.36l.11-.36.11-.36c.04-.12 0-.12 0-.17v-.5a14.92 14.92 0 0 1 1.88-4.59 3.19 3.19 0 0 1 .65-.79 1.34 1.34 0 0 1 .54-.25 1.27 1.27 0 0 1 .58 0 1.2 1.2 0 0 1 .89.93 2.54 2.54 0 0 1 0 .35v.71c0 .45.12.69.26.73s.34-.11.54-.43l.09-.14a.71.71 0 0 0 .1-.14l.09-.15.09-.14.25-.32.12-.14a.52.52 0 0 1 .11-.1 1.22 1.22 0 0 1 1.08-.25c.6.15 1 .75 1.07 1.78a10.08 10.08 0 0 1 0 1.11c0 .37 0 .77-.07 1.17s-.1.83-.18 1.27-.18.89-.29 1.36v.18a1 1 0 0 1 0 .18.87.87 0 0 0-.07.17l-.06.17-.07.35c0 .12 0 .23-.06.36s0 .24-.08.37.06.37.02.49Zm.22-2.22a14.5 14.5 0 0 0 .48-4.79c-.09-.88-.36-1.38-.82-1.49a.8.8 0 0 0-.78.18 1 1 0 0 0-.2.2l-.22.3-.18.27-.18.28c-.29.45-.59.63-.88.56s-.46-.41-.51-1c0-.29 0-.52-.07-.68a2.36 2.36 0 0 0 0-.33.87.87 0 0 0-.66-.69.94.94 0 0 0-.82.18 3.12 3.12 0 0 0-.59.71 14.59 14.59 0 0 0-1.83 4.49 4.25 4.25 0 0 0-.12 1.29c0 .51.22.81.52.88.52.13.94-.18 1.24-.93a1.29 1.29 0 0 1 .29-.47.42.42 0 0 1 .4-.18c.22.06.33.26.33.62v1a.67.67 0 0 0 1.16.46 2 2 0 0 0 .2-.29 3.87 3.87 0 0 0 .24-.46q.34-.75.72-.66c.29.07.4.37.33.88q-.19 1.22.6 1.41c.32.08.63-.1.91-.55a4.08 4.08 0 0 0 .44-1.19ZM88.22 150.12a2.4 2.4 0 0 1-.83 1.37 3.11 3.11 0 0 1-1.3.67l-.34 1.84a1.35 1.35 0 0 1-.54.83 1.24 1.24 0 0 1-1.83-.33 1.35 1.35 0 0 1-.19-1l.33-1.79a3.37 3.37 0 0 1-.52-.48 3.73 3.73 0 0 1-.42-.64 2.34 2.34 0 0 1-.29-1.57 5 5 0 0 1 .43-1.3 2.17 2.17 0 0 1 0-.87 4.61 4.61 0 0 1 1-2.09 1.44 1.44 0 0 1 1.43-.62 1 1 0 0 1 .78.64 1.69 1.69 0 0 1-.08 1.4c0 .09-.07.22-.11.38s-.09.38-.13.63a1.51 1.51 0 0 1 0 .39s.05 0 .1 0a1.16 1.16 0 0 1 .22-.43c0-.18 0-.35.07-.51a1.79 1.79 0 0 0 0-.46 2.19 2.19 0 0 1 0-.51 1.46 1.46 0 0 1 .52-.92 1.22 1.22 0 0 1 1.71.3 2.69 2.69 0 0 1 .4 1.1 6.84 6.84 0 0 1 .08.91v.44c0 .14 0 .29-.07.43a2.32 2.32 0 0 1-.35.84 5.24 5.24 0 0 1-.07 1.35Zm.08-2.23a5.18 5.18 0 0 0 0-1.67c-.12-.79-.42-1.24-.89-1.32a.82.82 0 0 0-.7.16 1.09 1.09 0 0 0-.39.69 2.72 2.72 0 0 0 0 .43 4.69 4.69 0 0 1-.09 1.12.91.91 0 0 1-.23.47.4.4 0 0 1-.37.16c-.36-.07-.5-.34-.41-.82a6.35 6.35 0 0 1 .27-1.1 1.53 1.53 0 0 0 .14-.41 1.14 1.14 0 0 0-.07-.71.69.69 0 0 0-.53-.43 1.13 1.13 0 0 0-1.12.5 4.17 4.17 0 0 0-.87 1.93 2.07 2.07 0 0 0 .25 1.36 2.78 2.78 0 0 0 .9 1 .21.21 0 0 1 .09.24l-.34 1.84a1 1 0 0 0 .15.74.88.88 0 0 0 .62.43.9.9 0 0 0 .73-.19 1.06 1.06 0 0 0 .41-.63l.35-1.85a.22.22 0 0 1 .19-.19 2.55 2.55 0 0 0 1.2-.61 2.1 2.1 0 0 0 .71-1.14Z"/>
  <path d="M93.22 154a2.26 2.26 0 0 1-1.06 1.66 2.75 2.75 0 0 1-1.93.41 4.37 4.37 0 0 1-1.73-.6 1.38 1.38 0 0 1-.75-1.41 1.16 1.16 0 0 1 .69-1.06 1.26 1.26 0 0 1-.39-1.12 1.33 1.33 0 0 1 .48-1 2.52 2.52 0 0 1-.1-1.23 2.82 2.82 0 0 1 .37-1.09 2.7 2.7 0 0 1-.07-1.1 2.5 2.5 0 0 1 1-1.75 2.77 2.77 0 0 1 2.11-.45 2.69 2.69 0 0 1 1.51.65 1.55 1.55 0 0 1 .55 1.43 1.06 1.06 0 0 1-.24.57 1.07 1.07 0 0 1-.46.34 1.53 1.53 0 0 1 .39 1.28 1.1 1.1 0 0 1-.09.33.61.61 0 0 1-.07.14.38.38 0 0 1-.09.13 1.89 1.89 0 0 1 .1.36c0 .12 0 .25.07.38a4.25 4.25 0 0 1 0 .87 2.28 2.28 0 0 1-.34.95 2.5 2.5 0 0 1 0 .29 2.83 2.83 0 0 1 0 .3v.31c0 .1.06.25.05.41Zm0-2.23a2.77 2.77 0 0 0-.12-1.43 1.89 1.89 0 0 0-.26-.48 3 3 0 0 0-.42-.48l-.5-.44-.51-.44c-.23-.2-.33-.38-.31-.54s.24-.43.59-.38a.88.88 0 0 1 .48.19 1 1 0 0 0 .5.27.92.92 0 0 0 .63-.14.74.74 0 0 0 .32-.55 1.23 1.23 0 0 0-.44-1.15A2.86 2.86 0 0 0 90 146a2.22 2.22 0 0 0-.89 1.55 2.1 2.1 0 0 0 .35 1.56 4.42 4.42 0 0 0 .41.46c.18.19.43.42.72.67.49.42.71.78.66 1.1a.44.44 0 0 1-.18.31.52.52 0 0 1-.39.09 1.3 1.3 0 0 1-.65-.33 1.25 1.25 0 0 0-.61-.32c-.57-.08-.9.19-1 .82A1.09 1.09 0 0 0 89 153a3.89 3.89 0 0 0 1.59.55 2.49 2.49 0 0 0 1.71-.36 1.89 1.89 0 0 0 .89-1.47Z"/>
  <path d="M99.46 149.87a1.27 1.27 0 0 1-.15.49 1.67 1.67 0 0 1-.36.39 1.79 1.79 0 0 1-.49.26 2.65 2.65 0 0 1-.57.15 1.15 1.15 0 0 0 0 .14v.15a4.52 4.52 0 0 1 0 1.2 1.36 1.36 0 0 1 0 .2 1.1 1.1 0 0 0 0 .18 1.06 1.06 0 0 1-.06.19l-.06.18v.11l-.06.12a4.61 4.61 0 0 1 .05 1.21 1.23 1.23 0 0 1 0 .19v.2a1.21 1.21 0 0 1 0 .18l-.06.18a2 2 0 0 1-.24.45 1.41 1.41 0 0 1-.36.37 1.37 1.37 0 0 1-.51.26 1.64 1.64 0 0 1-.54 0 1.45 1.45 0 0 1-1-.49 1.63 1.63 0 0 1-.44-.95 1 1 0 0 1 0-.17v-.16a.65.65 0 0 1 0-.14v-.15a7.71 7.71 0 0 1 .28-1.25 1.94 1.94 0 0 1-.07-.33 1 1 0 0 1 0-.17v-.45a5.76 5.76 0 0 1 .29-1.27V151a.14.14 0 0 0 0-.06.24.24 0 0 1 0-.08 2.1 2.1 0 0 1-1-.61 1.33 1.33 0 0 1 .43-2 1.27 1.27 0 0 1-.49-1.18 1.34 1.34 0 0 1 1.19-1.2l.44-.07h1.42a5.35 5.35 0 0 1 1.52.34c.77.34 1.13.82 1.07 1.44a1.28 1.28 0 0 1-.24.61 1.54 1.54 0 0 1-.54.43 1.54 1.54 0 0 1 .45.51 1.05 1.05 0 0 1 .11.64Zm-.11-2.23q.06-.69-.87-1.11a5 5 0 0 0-1.42-.32c-.32 0-.62-.05-.91-.05a4.61 4.61 0 0 0-.85.09 1.28 1.28 0 0 0-.66.32.9.9 0 0 0-.27.59q-.09.9 1.17 1.26c.23.07.33.2.31.4 0 .48-.11.93-.19 1.34a8.08 8.08 0 0 1-.29 1.13 4.85 4.85 0 0 0-.18.64 4.05 4.05 0 0 0-.08.55v.28a2.53 2.53 0 0 0 0 .28 1.32 1.32 0 0 0 .35.76 1.09 1.09 0 0 0 .74.38 1.2 1.2 0 0 0 .8-.18 1.31 1.31 0 0 0 .48-.67l.09-.32v-.34a4.82 4.82 0 0 0 0-1.12 9.64 9.64 0 0 1 0-2.49c0-.25.17-.37.43-.39a1.6 1.6 0 0 0 .94-.27.92.92 0 0 0 .41-.76Z"/>
  <path d="M104.74 156a1 1 0 0 1-.41.73 1.69 1.69 0 0 1-.49.27 2.82 2.82 0 0 1-.62.15 3.74 3.74 0 0 1-.49 0h-1.14a4.6 4.6 0 0 1-.6-.09 3.79 3.79 0 0 1-.66-.19 1.06 1.06 0 0 1-.43-.27.52.52 0 0 1-.14-.19c0-.07-.07-.15-.11-.23a3.22 3.22 0 0 1-.15-.63l-.09-.71-.06-.71a11.71 11.71 0 0 1 0-1.33v-.81a2.51 2.51 0 0 0 0-.27v-.58a2.61 2.61 0 0 1 0-.28v-.26c0-.41.07-.84.14-1.3 0-.22.08-.45.13-.66l.16-.66a2.26 2.26 0 0 1 .78-1.18 2.41 2.41 0 0 1 1.42-.47h.5a5.7 5.7 0 0 1 1.29.24c.89.26 1.32.69 1.29 1.3s-.37.84-1 1c.64.26.94.66.91 1.18a1 1 0 0 1-.18.51.07.07 0 0 1 0 .05v.11a.77.77 0 0 1-.29.55 2.38 2.38 0 0 1-.86.38H103.41h.26c.7.25 1 .62 1 1.12a.49.49 0 0 1 0 .23 1 1 0 0 1 .14.61 1 1 0 0 1-.41.73 1.73 1.73 0 0 1-.31.19 2.08 2.08 0 0 1-.32.12 1.14 1.14 0 0 1 .97 1.35Zm-.21-2.22c0-.39-.21-.67-.71-.85l-1-.33c-.31-.11-.45-.29-.44-.54s.18-.42.5-.5l.73-.19c.59-.16.9-.36.91-.63s-.25-.59-.79-.79l-.71-.26c-.34-.11-.5-.28-.48-.5s.18-.36.53-.43l.69-.15c.68-.15 1-.41 1-.79s-.33-.76-1-1a5.21 5.21 0 0 0-1.69-.22 1.83 1.83 0 0 0-1.88 1.4 11.68 11.68 0 0 0-.41 2.56 12.9 12.9 0 0 0 .13 2.68 1.48 1.48 0 0 0 .32.86 1.83 1.83 0 0 0 .9.36 6.62 6.62 0 0 0 2.13.12 1.91 1.91 0 0 0 .94-.34.66.66 0 0 0 .33-.44ZM111.22 155.91a1.51 1.51 0 0 1-.36 1 1.36 1.36 0 0 1-1.13.45 1.15 1.15 0 0 1-.92-.4l-.11-.16a1.62 1.62 0 0 1-.1-.18 1 1 0 0 1-.1-.21.84.84 0 0 1-.06-.24l-.07-.33a.3.3 0 0 0 0-.1.44.44 0 0 0 0-.1.43.43 0 0 0 0-.11v-.2.17a4.91 4.91 0 0 1-.15.58 4.71 4.71 0 0 1-.21.52 1.23 1.23 0 0 1-1.07.81 1.19 1.19 0 0 1-1-.81 1.23 1.23 0 0 1-.12-.26l-.09-.28c0-.1 0-.21-.08-.31s0-.21-.06-.33 0-.38-.07-.56l-.06-.55V152.93a2.62 2.62 0 0 1 0-.28v-.27a2 2 0 0 1 0-.25V151.56a2.53 2.53 0 0 1 0-.28V151a7.64 7.64 0 0 1 .33-2.4 2.83 2.83 0 0 1 .91-1.6 2.64 2.64 0 0 1 1.58-.49 2.68 2.68 0 0 1 2.06.93 2.86 2.86 0 0 1 .74 2 2.78 2.78 0 0 1-.21 1.11 2.9 2.9 0 0 1 .2 1.09 3 3 0 0 1-.19 1s0 .05 0 .08v.05a.3.3 0 0 0 0 .09v-.06a1.91 1.91 0 0 1 .26.9 1.55 1.55 0 0 1-.36 1 1.18 1.18 0 0 0 .11.18V155a1.88 1.88 0 0 1 .33.91Zm-.32-2.21a1.43 1.43 0 0 0-.21-.73s-.15-.23-.43-.62a1.66 1.66 0 0 1-.37-.86.34.34 0 0 1 .11-.28 2.48 2.48 0 0 0 .74-1.82 2.53 2.53 0 0 0-.65-1.76 2.42 2.42 0 0 0-3.19-.39 2.57 2.57 0 0 0-1 1.38 8 8 0 0 0-.31 2.3 9.3 9.3 0 0 0 0 1.06c0 .36.07.72.13 1.1a4.72 4.72 0 0 0 .12.59 2.38 2.38 0 0 0 .19.49c.19.42.44.62.74.63s.55-.21.76-.62a4.15 4.15 0 0 0 .34-1 2.2 2.2 0 0 0 .06-.37c0-.2.11-.3.26-.3s.18.07.24.2l.1.26a1.11 1.11 0 0 1 .07.22c0 .12 0 .25.07.37s.05.24.08.37a1.69 1.69 0 0 0 .13.38 1.28 1.28 0 0 0 .16.26.86.86 0 0 0 .68.29 1.08 1.08 0 0 0 .87-.34 1.16 1.16 0 0 0 .31-.81Zm-2-4.2a.62.62 0 0 1-.2.48.63.63 0 0 1-1 0 .65.65 0 0 1-.19-.48.74.74 0 0 1 .2-.5.6.6 0 0 1 .47-.19.66.66 0 0 1 .48.2.68.68 0 0 1 .34.49ZM117.34 151.6a2.36 2.36 0 0 1-.51 1.52 3.06 3.06 0 0 1-1.13.93l.07 1.82a1.36 1.36 0 0 1-.34.93 1.23 1.23 0 0 1-1.87.08 1.32 1.32 0 0 1-.39-.9l-.07-1.82a3.37 3.37 0 0 1-.61-.36 3.08 3.08 0 0 1-.56-.53 2.4 2.4 0 0 1-.63-1.46 5.36 5.36 0 0 1 .14-1.37 2.38 2.38 0 0 1-.22-.84 4.58 4.58 0 0 1 .47-2.25 1.46 1.46 0 0 1 1.26-.92 1 1 0 0 1 .9.46 1.53 1.53 0 0 1 .29.86 2.18 2.18 0 0 1-.06.52v1.04a1.15 1.15 0 0 1 .13.37.18.18 0 0 0 .11 0 1.08 1.08 0 0 1 .12-.47v-.52a3 3 0 0 0-.09-.45 2.1 2.1 0 0 1-.09-.5 1.46 1.46 0 0 1 .31-1 1.18 1.18 0 0 1 .89-.4 1.13 1.13 0 0 1 .84.32 2.68 2.68 0 0 1 .63 1 5.19 5.19 0 0 1 .28.87 3.64 3.64 0 0 1 .07.44v.43a2.45 2.45 0 0 1-.16.9 5.43 5.43 0 0 1 .22 1.3Zm-.41-2.2a5 5 0 0 0-.36-1.63c-.29-.75-.68-1.11-1.16-1.09a.83.83 0 0 0-.65.31 1.09 1.09 0 0 0-.22.76 1.41 1.41 0 0 0 .07.42 5.32 5.32 0 0 1 .15 1.11 1 1 0 0 1-.12.52.39.39 0 0 1-.33.23c-.37 0-.56-.22-.58-.71a5.84 5.84 0 0 1 0-1.13 2.37 2.37 0 0 0 0-.43 1.21 1.21 0 0 0-.23-.68.69.69 0 0 0-.62-.3 1.1 1.1 0 0 0-1 .73 4.21 4.21 0 0 0-.44 2.08 2.11 2.11 0 0 0 .55 1.27 2.7 2.7 0 0 0 1.11.81.23.23 0 0 1 .14.22l.07 1.87a1 1 0 0 0 .31.69.87.87 0 0 0 .69.28.91.91 0 0 0 .68-.35 1 1 0 0 0 .26-.7l-.07-1.88a.22.22 0 0 1 .15-.22 2.74 2.74 0 0 0 1-.87 2.12 2.12 0 0 0 .6-1.31ZM126.27 149.2a1.18 1.18 0 0 1-.06.52 1.5 1.5 0 0 1-.27.45 2 2 0 0 1-.42.35 2.69 2.69 0 0 1-.54.26v.28a4.74 4.74 0 0 1 .28 1.16 1.5 1.5 0 0 1 0 .2v.19a1.15 1.15 0 0 1 0 .19 1.37 1.37 0 0 0 0 .19v.25a4.7 4.7 0 0 1 .28 1.17 1.36 1.36 0 0 1 0 .2v.2a1.15 1.15 0 0 1 0 .18v.19a1.69 1.69 0 0 1-.14.5 1.57 1.57 0 0 1-.28.44 1.46 1.46 0 0 1-1 .5 1.46 1.46 0 0 1-1-.29 1.7 1.7 0 0 1-.62-.85 1.42 1.42 0 0 1 0-.16.8.8 0 0 0 0-.15.77.77 0 0 1 0-.15v-.15a7 7 0 0 1 0-1.28 1.6 1.6 0 0 1-.13-.3.59.59 0 0 1 0-.17v-.16a.78.78 0 0 1 0-.14v-.14a5.9 5.9 0 0 1 0-1.31.78.78 0 0 0 0-.14.09.09 0 0 0 0-.07.25.25 0 0 1 0-.08 2 2 0 0 1-1.14-.39 1.2 1.2 0 0 1-.46-.89 1.22 1.22 0 0 1 .48-1.14 1.28 1.28 0 0 1-.71-1.06 1.34 1.34 0 0 1 .93-1.42 4.11 4.11 0 0 1 .42-.15l.44-.11.46-.08.49-.07a5.24 5.24 0 0 1 1.56 0c.82.17 1.27.57 1.33 1.19a1.23 1.23 0 0 1-.11.65 1.58 1.58 0 0 1-.44.53 1.61 1.61 0 0 1 .54.41 1.16 1.16 0 0 1 .24.6Zm-.56-2.16c0-.46-.4-.76-1.07-.91a5.33 5.33 0 0 0-1.46 0c-.31 0-.61.08-.9.14a4.47 4.47 0 0 0-.81.25 1.31 1.31 0 0 0-.58.45.9.9 0 0 0-.15.63c.06.6.53.93 1.4 1 .23 0 .36.12.38.32a13.14 13.14 0 0 1 .08 1.35 8.7 8.7 0 0 1 0 1.17 4 4 0 0 0 0 .66 4.88 4.88 0 0 0 0 .56v.28l.06.27a1.33 1.33 0 0 0 .5.68 1.13 1.13 0 0 0 .8.22 1.2 1.2 0 0 0 .76-.39 1.36 1.36 0 0 0 .34-.75v-.33a2.06 2.06 0 0 0 0-.35 4.66 4.66 0 0 0-.26-1.08 9.5 9.5 0 0 1-.54-2.44.39.39 0 0 1 .35-.46 1.74 1.74 0 0 0 .87-.46 1 1 0 0 0 .23-.85Z"/>
  <path d="M133.26 150.94a5.43 5.43 0 0 1-.29 3 3 3 0 0 1-5.06.78 5.2 5.2 0 0 1-1.23-2.79v-.56a2.44 2.44 0 0 1 0-.54 2.23 2.23 0 0 1-.15-.52l-.06-.28c0-.09 0-.18-.05-.28a5.13 5.13 0 0 1 .35-3 3 3 0 0 1 5-.78 5.06 5.06 0 0 1 1.21 2.74v.29a2.83 2.83 0 0 1 0 .29 5.33 5.33 0 0 1 0 .56 5.07 5.07 0 0 1 .14.5l.06.26c.05.14.06.24.08.33Zm-.66-2.13a4.79 4.79 0 0 0-1.12-2.57 2.68 2.68 0 0 0-4.47.7 4.74 4.74 0 0 0-.33 2.79 4.83 4.83 0 0 0 1.14 2.61 2.64 2.64 0 0 0 2.46.93 2.57 2.57 0 0 0 2.05-1.62 5.27 5.27 0 0 0 .27-2.84Zm-2.14.41a4.83 4.83 0 0 1 0 1.25c-.07.53-.24.81-.52.86-.55.08-.93-.56-1.14-1.93s0-1.93.52-2 .95.52 1.14 1.82Zm-.28 1.07c-.13-.28-.28-.41-.44-.39s-.29.22-.31.58c.14.38.3.55.5.52s.11-.07.15-.18 0-.11.06-.18 0-.13 0-.21ZM140 150.55a3.45 3.45 0 0 1-.38 2.62 3.17 3.17 0 0 1-2.14 1.41 3.33 3.33 0 0 1-1.37 0 4.44 4.44 0 0 1-.61-.22 3 3 0 0 1-.5-.36 3.92 3.92 0 0 1-1.28-2.32c-.09-.46-.16-.9-.21-1.34a6.09 6.09 0 0 1-.23-.82 10.42 10.42 0 0 1-.25-1.95 9.27 9.27 0 0 1 0-1.84 3 3 0 0 1 .15-.62 2.69 2.69 0 0 1 .28-.5 1.43 1.43 0 0 1 .9-.56c.57-.12 1 .19 1.24.92-.07-.76.21-1.21.85-1.34a1.36 1.36 0 0 1 1 .18 1.88 1.88 0 0 1 .45.35 1.93 1.93 0 0 1 .35.5c.16.32.31.63.44.94l.37.93a13.81 13.81 0 0 1 .51 1.81v.21a1.5 1.5 0 0 1 0 .22V149.18l.11.33.09.34c0 .11.06.22.08.33s.15.27.15.37Zm-.76-2.09a14.7 14.7 0 0 0-1.3-3.6 1.73 1.73 0 0 0-.63-.72 1.15 1.15 0 0 0-.8-.13q-.78.15-.54 1.32a9.41 9.41 0 0 0 .23.95 50.69 50.69 0 0 0 .75 2.36c.21.78.09 1.22-.36 1.31a.52.52 0 0 1-.51-.18 1.21 1.21 0 0 1-.31-.63.69.69 0 0 1 0-.13.71.71 0 0 1 0-.15c0-.44-.05-.79-.06-1v-.42a17.71 17.71 0 0 0-.28-1.89c-.17-.83-.49-1.19-1-1.1a1.38 1.38 0 0 0-1.07 1.4 11.67 11.67 0 0 0 0 1.78 12.28 12.28 0 0 0 .24 1.87 3.58 3.58 0 0 0 1.16 2.13 2.58 2.58 0 0 0 2.26.49 2.83 2.83 0 0 0 1.93-1.25 3.22 3.22 0 0 0 .32-2.41Zm-3.22-1.56a.83.83 0 0 1 0-.15v-.15a.88.88 0 0 1-.05-.15.83.83 0 0 0 0-.15.86.86 0 0 0 0 .17v.55a.53.53 0 0 0 0 .11v-.08a.15.15 0 0 1 0-.07Zm.5 2.72a.14.14 0 0 0 .1-.05v-.08c-.11-.33-.22-.67-.31-1a2.89 2.89 0 0 0 0 .29v.27a1.93 1.93 0 0 0 0 .27 2.29 2.29 0 0 1 0 .25.32.32 0 0 1 0 .08ZM146.78 150.79a1.44 1.44 0 0 1-.07 1.05 1.39 1.39 0 0 1-1 .74 1.12 1.12 0 0 1-1-.14l-.15-.12-.14-.14-.15-.18a1.16 1.16 0 0 1-.13-.22l-.15-.3v-.18s0-.07-.05-.1a.41.41 0 0 0 0-.09v-.09.17a4.1 4.1 0 0 1 0 .6 5.35 5.35 0 0 1-.07.56 1.09 1.09 0 0 1-2 .57 1.84 1.84 0 0 1-.17-.22l-.17-.25-.16-.28a2.09 2.09 0 0 1-.14-.3l-.22-.52-.21-.51-.17-.53-.16-.53c-.05-.18 0-.18-.07-.27l-.06-.27v-.51c0-.08-.07-.18-.1-.27l-.09-.27-.09-.27c0-.08 0-.17-.07-.27a8.59 8.59 0 0 1-.33-2.4 2.92 2.92 0 0 1 .67-1.8 2.58 2.58 0 0 1 1.38-.9 2.64 2.64 0 0 1 2.24.35 2.85 2.85 0 0 1 1.25 1.71 2.6 2.6 0 0 1 .08 1.13 2.67 2.67 0 0 1 .49 1 3 3 0 0 1 .1 1l.06.06h.06l.05.08a1.88 1.88 0 0 1 .49.79 1.53 1.53 0 0 1-.07 1.06l.16.14a1.76 1.76 0 0 1 .16.92Zm-.89-2a1.51 1.51 0 0 0-.41-.65s-.2-.18-.57-.48a1.67 1.67 0 0 1-.59-.72.37.37 0 0 1 0-.31 2.49 2.49 0 0 0 .23-2 2.56 2.56 0 0 0-1.11-1.52 2.32 2.32 0 0 0-2-.3 2.35 2.35 0 0 0-1.22.78 2.51 2.51 0 0 0-.58 1.6 7.9 7.9 0 0 0 .31 2.3c.09.35.2.68.32 1s.27.68.42 1 .19.38.28.54a3.65 3.65 0 0 0 .31.43c.3.34.59.48.88.4s.48-.35.57-.81a4.57 4.57 0 0 0 .06-1.07 2.47 2.47 0 0 0-.05-.38c0-.2 0-.32.17-.35s.19 0 .29.12l.16.23a.72.72 0 0 1 .13.19l.17.33a3.59 3.59 0 0 0 .17.34 2.36 2.36 0 0 0 .22.33 1.41 1.41 0 0 0 .23.21.86.86 0 0 0 .74.1 1.11 1.11 0 0 0 .75-.57 1.19 1.19 0 0 0 .12-.79Zm-3-3.52a.68.68 0 0 1-.06.52.63.63 0 0 1-.41.32.62.62 0 0 1-.51-.08.66.66 0 0 1-.32-.41.79.79 0 0 1 .06-.54.67.67 0 0 1 .41-.31.61.61 0 0 1 .51.07.68.68 0 0 1 .31.38Z"/>
  <path fill="#f44545" d="M170.93 98.33H49.07s3-5.21 4.6-5.21h112.66c1.6 0 4.6 5.21 4.6 5.21Z" opacity=".7"/>
  <path fill="#f44545" d="M70.66 93.11H57.12a3.29 3.29 0 0 1-3.48-3l.87-6.1A3.28 3.28 0 0 1 58 81h11.8a3.28 3.28 0 0 1 3.48 3l.87 6.1a3.29 3.29 0 0 1-3.49 3.01ZM93.53 93.11H80a3.28 3.28 0 0 1-3.48-3l.87-6.1a3.27 3.27 0 0 1 3.47-3h11.8a3.27 3.27 0 0 1 3.47 3L97 90.1a3.28 3.28 0 0 1-3.47 3.01ZM116.77 93.11h-13.54a3.29 3.29 0 0 1-3.48-3l.87-6.1a3.28 3.28 0 0 1 3.48-3h11.8a3.28 3.28 0 0 1 3.48 3l.87 6.1a3.29 3.29 0 0 1-3.48 3ZM139.25 93.11h-13.54a3.28 3.28 0 0 1-3.47-3l.87-6.1a3.27 3.27 0 0 1 3.47-3h11.81a3.27 3.27 0 0 1 3.47 3l.87 6.1a3.28 3.28 0 0 1-3.48 3ZM162.12 93.11h-13.54a3.29 3.29 0 0 1-3.48-3L146 84a3.28 3.28 0 0 1 3.48-3h11.8a3.28 3.28 0 0 1 3.48 3l.87 6.1a3.29 3.29 0 0 1-3.51 3.01Z" opacity=".7"/>
  <path fill="#1f0818" d="M107.62 143.29a1.62 1.62 0 0 1-.6 1.32 2 2 0 0 1-1.37.5 3.22 3.22 0 0 1-1.33-.26 1 1 0 0 1-.7-.95.87.87 0 0 1 .4-.85 1 1 0 0 1-.4-.79 1 1 0 0 1 .26-.74 1.89 1.89 0 0 1-.21-.89 2.12 2.12 0 0 1 .17-.83 2 2 0 0 1-.17-.8 1.85 1.85 0 0 1 .56-1.39 2.1 2.1 0 0 1 1.5-.55 2 2 0 0 1 1.17.32 1.14 1.14 0 0 1 .55 1 .9.9 0 0 1-.11.44.76.76 0 0 1-.3.29 1.19 1.19 0 0 1 .41.9.85.85 0 0 1 0 .25.36.36 0 0 1 0 .11.31.31 0 0 1 0 .1 1.89 1.89 0 0 1 .11.25l.09.27a3.39 3.39 0 0 1 .06.64 1.64 1.64 0 0 1-.15.73 1.72 1.72 0 0 1 .07.21 1.43 1.43 0 0 1 0 .22v.23a1.77 1.77 0 0 1-.01.27Zm-.24-1.63a2.08 2.08 0 0 0-.24-1 2.13 2.13 0 0 0-.23-.32 2.24 2.24 0 0 0-.36-.31l-.41-.27-.43-.27q-.27-.18-.27-.36c0-.23.13-.35.39-.35a.7.7 0 0 1 .37.09.64.64 0 0 0 .39.15.67.67 0 0 0 .45-.16.56.56 0 0 0 .18-.44.91.91 0 0 0-.44-.79 2.1 2.1 0 0 0-2.36.18 1.63 1.63 0 0 0-.49 1.23 1.6 1.6 0 0 0 .41 1.11l.35.29.6.42c.4.25.6.5.6.73a.34.34 0 0 1-.11.25.36.36 0 0 1-.27.1.91.91 0 0 1-.51-.17 1 1 0 0 0-.49-.17c-.42 0-.63.23-.63.7a.81.81 0 0 0 .55.74 3.07 3.07 0 0 0 1.23.23 1.81 1.81 0 0 0 1.21-.43 1.43 1.43 0 0 0 .51-1.18Z"/>
  <path fill="#1f0818" d="M111.87 139.87a10.58 10.58 0 0 1-.91 4.2c-.29.7-.7 1-1.24 1s-1-.34-1.28-1a10.51 10.51 0 0 1-.9-4.29v-.39a10.19 10.19 0 0 1-.07-1.24 1.42 1.42 0 0 1 0-.34 1.77 1.77 0 0 0 .06-.17.61.61 0 0 1 .07-.14.91.91 0 0 1 .29-.32.71.71 0 0 1 .39-.11 1 1 0 0 1 .88.66 4.88 4.88 0 0 1 .32 1.16 4 4 0 0 0 .12.54s0 0 .05-.13a.7.7 0 0 0 0-.16v-.21a4.52 4.52 0 0 1 .2-.77 3.6 3.6 0 0 1 .27-.59.86.86 0 0 1 .71-.49.74.74 0 0 1 .71.46.52.52 0 0 1 .07.15v.37a1.28 1.28 0 0 1 0 .19 11.09 11.09 0 0 1-.07 1.15v.11a.51.51 0 0 1 0 .13v.12Zm-.25-1.63a1.26 1.26 0 0 0-.13-.6.53.53 0 0 0-.49-.32c-.44 0-.75.55-.93 1.64-.09.47-.2.71-.36.71s-.28-.25-.36-.74q-.07-.39-.15-.66l-.15-.44a.76.76 0 0 0-.66-.51.52.52 0 0 0-.47.3 1 1 0 0 0-.14.53 10.16 10.16 0 0 0 .88 4.19c.26.6.62.89 1.06.89s.76-.29 1-.89a10.29 10.29 0 0 0 .9-4.1Z"/>
  <path fill="#f9468b" d="M107.2 138.37a.9.9 0 0 0-.12-.46 1.12 1.12 0 0 0-.32-.33 1.54 1.54 0 0 0-.47-.21 2.12 2.12 0 0 0-.57-.08 2 2 0 0 0-.77.13 1.39 1.39 0 0 0-.57.36 1.47 1.47 0 0 0-.36.53.25.25 0 0 0 0 .07h3.2ZM109.22 138.34a2.89 2.89 0 0 0-.17-.52 1.23 1.23 0 0 0-.27-.38.61.61 0 0 0-.4-.14.48.48 0 0 0-.29.09.53.53 0 0 0-.18.21.81.81 0 0 0-.11.27 1.31 1.31 0 0 0 0 .27v.24h1.46ZM111.63 138.23a1.5 1.5 0 0 0 0-.29 1.12 1.12 0 0 0-.1-.31.91.91 0 0 0-.2-.24.49.49 0 0 0-.3-.09.52.52 0 0 0-.36.14 1.27 1.27 0 0 0-.25.36 2.26 2.26 0 0 0-.19.52s0 0 0 .06h1.44s-.04-.1-.04-.15ZM115.82 138.13a1.3 1.3 0 0 0-.35-.45 1.49 1.49 0 0 0-.53-.28 2.19 2.19 0 0 0-.7-.1 1.67 1.67 0 0 0-1 .28 2.14 2.14 0 0 0-.66.71.41.41 0 0 1 0 .09h3.36a1.83 1.83 0 0 0-.12-.25Z"/>
  <path fill="#f44545" d="m106 139.63-.31-.19c-.18-.12-.28-.24-.28-.36a.28.28 0 0 1 .13-.27.5.5 0 0 1 .27-.08h.19a.52.52 0 0 1 .18.07l.18.1a.59.59 0 0 0 .21 0 .67.67 0 0 0 .45-.16.59.59 0 0 0 .18-.38H104a2 2 0 0 0-.08.56 1.6 1.6 0 0 0 .09.56 1 1 0 0 0 0 .1h2ZM107.87 139.65h1.79a.37.37 0 0 1-.15-.17 2.36 2.36 0 0 1-.17-.56c0-.16-.07-.32-.1-.49h-1.47v.65c0 .23.07.37.1.57ZM109.91 139.48a.37.37 0 0 1-.15.17h1.77c0-.19 0-.37.06-.55s0-.45 0-.67h-1.45c0 .17-.08.35-.11.53a1.94 1.94 0 0 1-.12.52ZM112.23 139.24c0 .14-.06.28-.08.41h1.67l.06-.25a1 1 0 0 1 .19-.38.43.43 0 0 1 .34-.15.49.49 0 0 1 .24 0 .59.59 0 0 1 .18.18.75.75 0 0 0 .19.17.43.43 0 0 0 .24.07.66.66 0 0 0 .51-.19.61.61 0 0 0 .17-.43 1.27 1.27 0 0 0 0-.28h-3.39a3.12 3.12 0 0 0-.32.85Z"/>
  <path fill="#f9468b" d="M107.2 138.43v-.05H104a.17.17 0 0 0 0 .05ZM109.24 138.43v-.05h-1.46v.05ZM111.62 138.43v-.05h-1.44v.05ZM115.91 138.43a.11.11 0 0 0 0-.05h-3.36v.05Z"/>
  <path fill="#ffc24b" d="M107.05 140.51a2 2 0 0 0-.32-.38 4.5 4.5 0 0 0-.37-.28l-.27-.17h-2a1.57 1.57 0 0 0 .18.31 1.67 1.67 0 0 0 .32.33 3.18 3.18 0 0 0 .37.27l.18.12.18.11h1.96a1.64 1.64 0 0 0-.23-.31ZM107.94 140.09c0 .25.11.5.18.77h3.14a6.57 6.57 0 0 0 .19-.8c0-.13 0-.26.07-.38h-3.65c.02.13.04.32.07.41ZM116 140.52a1.37 1.37 0 0 0-.24-.29 1 1 0 0 0-.28-.18 1 1 0 0 0-.29-.05.66.66 0 0 0-.23 0 .91.91 0 0 0-.22.11.65.65 0 0 0-.18.19.58.58 0 0 0-.06.26 1 1 0 0 0 0 .18v.08h1.59a.92.92 0 0 0-.09-.3ZM112.11 140.26v.6h1.66a4.74 4.74 0 0 1 0-1v-.21h-1.67a3.86 3.86 0 0 0 .01.61ZM109.76 139.65ZM106 139.65h-2 2ZM111.52 139.68h-3.66ZM112.15 139.68h1.67-1.67Z"/>
  <path fill="#84a226" d="M107.36 141.66a2.18 2.18 0 0 0-.08-.65.14.14 0 0 1 0-.06h-1.79a1 1 0 0 1 .19.16 1 1 0 0 1 .15.2.52.52 0 0 1 0 .24.3.3 0 0 1-.11.25.36.36 0 0 1-.26.11.67.67 0 0 1-.3-.06.94.94 0 0 1-.22-.12l-.21-.11a.54.54 0 0 0-.27-.06.72.72 0 0 0-.47.16.64.64 0 0 0-.16.38h3.44a1.56 1.56 0 0 0 .09-.44ZM111.24 141h-3.1a10.3 10.3 0 0 0 .4 1.15h2.3c.13-.34.25-.66.34-1ZM114.55 141v.11a.61.61 0 0 1-.08.4.32.32 0 0 1-.25.12.26.26 0 0 1-.2-.1.82.82 0 0 1-.15-.28 2.66 2.66 0 0 1-.08-.33h-1.66c0 .16 0 .32.08.47a2.86 2.86 0 0 0 .23.68H116a1.17 1.17 0 0 0 0-.2 1.75 1.75 0 0 0 .06-.33v-.35a2.13 2.13 0 0 0 0-.27h-1.59l.08.08Z"/>
  <path fill="#84a226" d="M107.23 140.86h-1.9l.13.09h1.8ZM108.14 141h3.1a.29.29 0 0 0 0-.09h-3.14ZM114.54 141h1.59-1.59ZM112.15 141h1.66v-.08h-1.66v.08Z"/>
  <path fill="#4e809b" d="M103.85 142.27a.69.69 0 0 0 .15.44 1.18 1.18 0 0 0 .41.3 2.38 2.38 0 0 0 .57.18 4.65 4.65 0 0 0 .66.05 1.72 1.72 0 0 0 .64-.11 1.91 1.91 0 0 0 .56-.31 1.55 1.55 0 0 0 .38-.5l.07-.16h-3.43a.37.37 0 0 0-.01.11ZM108.65 142.35a2.11 2.11 0 0 0 .18.33 1.27 1.27 0 0 0 .23.28 1.25 1.25 0 0 0 .3.21.86.86 0 0 0 .36.07.77.77 0 0 0 .34-.07 1 1 0 0 0 .28-.21 1.34 1.34 0 0 0 .23-.29 3.18 3.18 0 0 0 .16-.32c0-.07.06-.13.08-.19h-2.24l.08.19ZM112.61 142.37a2 2 0 0 0 .69.64 2.06 2.06 0 0 0 1 .23 2.48 2.48 0 0 0 .66-.08 1.8 1.8 0 0 0 .46-.23 1.47 1.47 0 0 0 .32-.34l.22-.4h-3.51ZM103.86 142.1v.06h3.43v-.06ZM108.54 142.1v.06h2.24v-.06ZM112.49 142.16H116v-.06h-3.56Z"/>
  <path fill="#1f0818" d="M116.37 142.87a2.75 2.75 0 0 1-.17 1 3.3 3.3 0 0 1-.28.5 2.18 2.18 0 0 1-.34.34 2 2 0 0 1-1.26.36 2.13 2.13 0 0 1-1.92-1 4 4 0 0 1-.54-2.23v-.21a1.21 1.21 0 0 1 0-.19v-1.24a4 4 0 0 1 .52-2.09 2 2 0 0 1 1.85-1.1 2.58 2.58 0 0 1 .8.12 1.77 1.77 0 0 1 .6.33 1.39 1.39 0 0 1 .39.51 1.64 1.64 0 0 1 .14.69.79.79 0 0 1-.31.67 1.59 1.59 0 0 1 .23.43 1.51 1.51 0 0 1 .08.53 1.11 1.11 0 0 1 .09.19l.07.21a2.14 2.14 0 0 1 .05.45v.52a3.38 3.38 0 0 1-.09.42 2 2 0 0 1 .09.33 1.31 1.31 0 0 1 0 .46Zm-.25-1.64a1.41 1.41 0 0 0-.23-.82.83.83 0 0 0-.72-.41.72.72 0 0 0-.46.16.54.54 0 0 0-.24.45.78.78 0 0 0 0 .14 1 1 0 0 0 0 .16V141.14c0 .35-.07.52-.32.52s-.26-.13-.34-.38a2.62 2.62 0 0 1-.14-.92c0-1 .22-1.48.65-1.48a.49.49 0 0 1 .24 0 2.07 2.07 0 0 1 .25.26.44.44 0 0 0 .35.15.69.69 0 0 0 .5-.17.57.57 0 0 0 .18-.44 1.27 1.27 0 0 0-.46-1 1.88 1.88 0 0 0-1.23-.37 1.79 1.79 0 0 0-1.64 1 4.49 4.49 0 0 0 0 4.06 1.94 1.94 0 0 0 1.72.87 1.81 1.81 0 0 0 1.12-.31 1.83 1.83 0 0 0 .53-.74 2.49 2.49 0 0 0 .24-.96Zm-1.84-.27v-.06a.29.29 0 0 0 0-.09.68.68 0 0 0-.18.35c0 .17.1.25.17.25s.09-.08.08-.24a1.69 1.69 0 0 0-.07-.17Z"/>
  <path d="M109.26 48.36c.16 16.89-.21 33.78-.13 50.67A.93.93 0 0 0 111 99c-.08-16.89.29-33.78.13-50.67a.93.93 0 0 0-1.86 0Z"/>
</svg>
