<?xml version="1.0" encoding="utf-8"?>
<!-- Generator: Adobe Illustrator 25.4.1, SVG Export Plug-In . SVG Version: 6.00 Build 0)  -->
<svg version="1.1" id="Layer_1" xmlns="http://www.w3.org/2000/svg" xmlns:xlink="http://www.w3.org/1999/xlink" x="0px" y="0px"
	 viewBox="0 0 256 256" style="enable-background:new 0 0 256 256;" xml:space="preserve">
<style type="text/css">
	.st0{filter:url(#Adobe_OpacityMaskFilter);}
	.st1{clip-path:url(#SVGID_00000083770325775887337840000001263401586976483473_);fill:#FFFFFF;}
	
		.st2{clip-path:url(#SVGID_00000083770325775887337840000001263401586976483473_);mask:url(#SVGID_00000070807198204248904530000006361016464076824998_);}
	.st3{fill:#0F0C01;}
	.st4{fill:#110C01;}
	.st5{fill:#090601;}
	.st6{fill:#0D0902;}
	.st7{fill:#65401C;}
	.st8{fill:#1A1002;}
	.st9{fill:#0C0800;}
	.st10{fill:#1C1104;}
	.st11{fill:#91602D;}
	.st12{fill:#4A2D0F;}
	.st13{fill:#583614;}
	.st14{fill:#1A1301;}
	.st15{fill:#603A17;}
	.st16{fill:#885724;}
	.st17{fill:#181001;}
	.st18{fill:#0F0B01;}
	.st19{fill:#150E02;}
	.st20{fill:#734921;}
	.st21{fill:#754A1E;}
	.st22{fill:#4D2F14;}
	.st23{fill:#825525;}
	.st24{fill:#533316;}
	.st25{fill:#291E02;}
	.st26{fill:#141415;}
	.st27{fill:#271E03;}
	.st28{fill:#7B4F25;}
	.st29{fill:#311E09;}
	.st30{fill:#593910;}
	.st31{fill:#2A1F02;}
	.st32{fill:#FEFEFE;}
	.st33{fill:#322503;}
	.st34{fill:#1E1901;}
	.st35{fill:#341F0D;}
	.st36{fill:#221902;}
	.st37{fill:#312403;}
	.st38{fill:#2A2003;}
	.st39{fill:#3F2A09;}
	.st40{fill:#0E0A02;}
	.st41{fill:#201902;}
	.st42{fill:#291908;}
	.st43{fill:#3D250E;}
	.st44{fill:#4C3310;}
	.st45{fill:#362803;}
	.st46{fill:#5A3B12;}
	.st47{fill:#49310E;}
	.st48{fill:#5F3F15;}
	.st49{fill:#433104;}
	.st50{fill:#68431F;}
	.st51{fill:#6C481B;}
	.st52{fill:#916132;}
	.st53{fill:#795224;}
	.st54{fill:#3E2E03;}
	.st55{fill:#784D1B;}
	.st56{fill:#271A03;}
	.st57{fill:#191102;}
	.st58{fill:#83541E;}
	.st59{fill:#2D1B08;}
	.st60{fill:#6B4518;}
	.st61{fill:#5F3C14;}
	.st62{fill:#291A07;}
	.st63{fill:#342009;}
	.st64{fill:#613D13;}
	.st65{fill:#694315;}
	.st66{fill:#382209;}
	.st67{fill:#9D6628;}
	.st68{fill:#352109;}
	.st69{fill:#825521;}
	.st70{fill:#352508;}
	.st71{fill:#090501;}
	.st72{fill:#2E1E07;}
	.st73{fill:#2E1D0A;}
	.st74{fill:#3E280A;}
	.st75{fill:#4E3215;}
	.st76{fill:#0B0700;}
	.st77{fill:#3E260F;}
	.st78{fill:#2F2402;}
	.st79{fill:#302502;}
	.st80{fill:#3D2F03;}
	.st81{fill:#3F260B;}
	.st82{fill:#7F5225;}
	.st83{fill:#6A461F;}
	.st84{fill:#251505;}
	.st85{fill:#2A1A07;}
	.st86{fill:#2F1E06;}
	.st87{fill:#321E06;}
	.st88{fill:#261705;}
	.st89{fill:#5B3A13;}
	.st90{fill:#603C13;}
	.st91{fill:#AA7336;}
	.st92{fill:#583814;}
	.st93{fill:#8B5B27;}
	.st94{fill:#1F1205;}
	.st95{fill:#0E0900;}
	.st96{fill:#774D1C;}
	.st97{fill:#352008;}
	.st98{fill:#55340F;}
	.st99{fill:#A66F31;}
	.st100{fill:#211303;}
	.st101{fill:#573612;}
	.st102{fill:#311E06;}
	.st103{fill:#452B0D;}
	.st104{fill:#3E2609;}
	.st105{fill:#1F1304;}
	.st106{fill:#492D0D;}
	.st107{fill:#99652B;}
</style>
<g>
	<defs>
		<circle id="SVGID_1_" cx="128.5" cy="128.5" r="126"/>
	</defs>
	<clipPath id="SVGID_00000082356458605606821730000005278162904060156042_">
		<use xlink:href="#SVGID_1_"  style="overflow:visible;"/>
	</clipPath>
	<defs>
		<filter id="Adobe_OpacityMaskFilter" filterUnits="userSpaceOnUse" x="-22" y="-12" width="301.5" height="281.2">
			<feColorMatrix  type="matrix" values="1 0 0 0 0  0 1 0 0 0  0 0 1 0 0  0 0 0 1 0"/>
		</filter>
	</defs>
	
		<mask maskUnits="userSpaceOnUse" x="-22" y="-12" width="301.5" height="281.2" id="SVGID_00000009564422297944812020000016313368089880956863_">
		<g class="st0">
			
				<circle style="clip-path:url(#SVGID_00000082356458605606821730000005278162904060156042_);fill:#FFFFFF;" cx="128.5" cy="128.5" r="126"/>
		</g>
	</mask>
	
		<g style="clip-path:url(#SVGID_00000082356458605606821730000005278162904060156042_);mask:url(#SVGID_00000009564422297944812020000016313368089880956863_);">
		<g>
			<path class="st3" d="M-21.9,223.6c0-32.4,0-64.8,0-97.1c2.1-0.2,2.5,1.5,2.5,2.9c0.2,3.5,1.2,6.9,2.4,10.1
				c2.5,7.1,3.7,14.4,5,21.8c0.2,1,0.1,2.6,1.4,2.7c1.6,0.1,1.8-1.5,2.2-2.6c2.7-8.7,3.3-17.3-1.8-25.5c-0.3-0.5-0.6-1.1-0.8-1.7
				c-0.5-1.3-0.9-2.7,0.1-3.9c1-1.3,2.4-0.9,3.8-0.6c0.6,0.2,1.1,0.6,1.8,0.2c-2-6.4-1.2-7.3,5.8-6.1c1.9,0.3,3.7,1,5.4,1.7
				c2.2,1.3,4.7,2,7.1,3.1c2.8,1.8,4.8,0.9,7.3-1.2c4-3.3,8.1-6.6,12.2-9.7c1-0.7,2.3-1.4,2.1-2.8c-0.2-1.3-1.6-1.5-2.6-1.8
				c-3.8-1.3-7.7-2-11.6-3.1c-4.3-1.2-5.6-3.1-5.7-7.6c0-3.7-0.4-7.5-0.3-11.2c0.2-4.9,1.4-5.6,6-3.7c-4.7-5.6-4.6-7.4,0.5-12.6
				c4.4-4.5,8.2-9.3,12.9-13.6c0.8-0.8,1.6-1.6,2.4-2.3c1.3-1,2.6-2.3,4.3-1.4c1.9,1,1.6,3,1.2,4.7c-1,3.7-1.9,7.5-3.1,11.2
				c-0.7,2-1.2,4-0.2,6.1c1.9-5.1,3.5-10.3,4.6-15.6c0.6-3.2,1.1-6.4,2.5-9.3c1.6-3.4,3.7-3.6,5.8-0.7c1.4,1.9,3.3,3.4,4.1,5.7
				c0.2,7.9-1.4,15.7-2.2,23.5c-1,4-0.6,8.1-0.9,12.1c-0.4,6.7-0.7,13.5-0.4,20.3c0.3,2.1,0.2,4.1,0.1,6.2c-0.2,4.5-0.6,9,0.4,13.4
				c0.3,1.4,0.1,2.8,0.1,4.1c0,7.5,0,15,0,22.5c0,1.7,0.1,3.4,0.6,5.1c0.7,4.6,1,9.3,1.7,14c0.1,3.3,1.8,6,3.4,8.7
				c1,1.7,2.2,3.4,0.1,5.2c-2.8,1.7-6.1,2.2-9.2,3c-10.5,2.7-20.6,6.7-30.8,10.1c-3.5,0.3-6.6,2.1-9.8,3.3c-0.3,0.1-0.7,0.2-1,0.3
				c-2.5,0.4-4-0.7-5-2.9c-0.5-1.3-1-2.5-1.9-3.6c-0.7-1-1.5-2.3-2.9-2c-1.6,0.3-1.7,2-2,3.3c-0.3,1.6-0.1,3.2,0.5,4.8
				c1,2.9-0.1,4.8-2.6,6.1c-2.9,1.4-5.6,3.5-9.1,2.4c-1.6-0.5-1.8,0.6-2.3,1.7C-18.5,223.2-19.5,224.8-21.9,223.6z"/>
			<path class="st3" d="M-21.9,53.2c0-2.2,0-4.5,0-6.7c1.5-1.4,3.5-1.2,5.3-1.3c6.5-0.1,13,0.3,19.4-0.8c1.4-0.2,2.9-0.3,4.1-1.3
				C6.4,42,5.5,42,4.7,42c-7.1,0.1-14.2-1.7-21.3-0.5c-1.8,0.3-3.8,0.5-5.3-1c0-3.7,0-7.5,0-11.2c2.9-4,7.3-6.6,10-10.8
				c2.5-2.5,4.5-5.3,6.9-7.9c2.6-2.3,4.8-5.1,7.8-6.9c1.6-0.9,2-2.5,1.8-4.2C4.3-2.4,2.8-2.4,1.5-2.8c-3-0.9-5.2-2.9-7.1-5.3
				c-0.9-1.1-1.6-2.5,0.7-3c30.6-0.1,61.2,0,91.8,0c1.1,0,2.3-0.2,3.3,0.4c1.3,1.5,0.1,2.2-0.9,3C83.5-1,75.9,3.9,70.9,11.2
				c-3.2,4.7-6,9.6-9.1,14.3c-1.3,2-1.3,4.5-2,6.7c-0.2,0.5-0.5,1-0.9,1.4c-3,2.8-6,5.6-5,10.5c0.4,1.7-1.1,2.9-3,3.1
				c-4.4,0.3-7.6,2.3-10.5,5.6c-7.3,8.2-15.8,15.2-24,22.4c-2.9,2.5-4.5,2.5-7.7,0.4c-1-0.7-1.9-1.6-3.1-2
				C-3.4,66.4-12.6,59.7-21.9,53.2z"/>
			<path class="st4" d="M126.5,269.2c-2,0-4,0-6,0c-2-2.7-1.7-6.2-3.2-9.1c-0.2-0.3-0.2-0.8,0-1.1c3-3.3,0.5-6-0.9-8.8
				c-11.3-22.3-21.9-44.9-30.8-68.3c-3.8-10.2-6.3-20.8-8.9-31.3c-0.6-2.4-1.4-4.7-2.2-7.1c-1.6-8.1-4.1-16-5.1-24.2
				c-0.2-1.2-0.4-2.4,0.2-3.6c0.2-0.3,0.7-0.7,0.9-0.6c3.3,2.7,7.6,3.9,9.8,8.2c3,5.6,7.3,10.3,10.6,15.7c3.1,5,5,10.6,7.2,16
				c1.5,3.7-3.9,10.2-7.8,9.8c-2.1-0.2-2.9-1.8-3.5-3.5c-2-5.3-3.4-10.8-5.3-15.6c2.4,8.6,5,17.7,7.5,26.8c0.9,3.7,1.3,7.5,2.8,11.6
				c0-1.2-0.2-1.9-0.1-2.7c0.2-2.1-0.2-4.1-0.7-6.2c-0.6-2.8,0.3-3.9,3.2-3.9c1,0,2,0.2,3,0.1c2.9-0.2,5.1-1.1,6.5-4
				c2.1-4.1,4.6-7.9,8.7-10.3c1.6-0.6,3.3-0.6,5-0.7c6.1-0.4,12.3-1.4,18.4-0.2c2.8,0.5,5.4-0.5,8.1-0.3c4.5,0.2,8.9-0.1,13.4,0.2
				c4.6,0.7,9.1,1.8,12,5.9c0.1,0.2,0.3,0.4,0.4,0.6c1.1,2,3.4,4.1,1.7,6.3c-1.7,2.2-4.1,0.2-6.1-0.4c-0.4-0.1-0.7-0.3-1-0.4
				c-7.5-0.9-15-1.8-22.5,0c-3.8,0.9-7.7-0.3-11.5-1c-5.2-1-10.3-0.5-15.2,1.4c6.5,3.4,13.7,4,20.6,5.7c4.4,1.2,8.4-1.1,12.6-1.6
				c2.2-0.4,4.4-1.1,6.7-0.6c3.6,1.2,5.6,4.2,7.6,7.1c0.8,1.2,1.1,2.7-0.2,4c-6.1,2.3-12.5,1.9-18.8,2.1c-8,0.3-16.2,1-24.2-0.7
				c-1.9-0.4-2-0.1-2.1,1.7c2,2.2,4.4,4.1,6.1,6.5c1.8,2.3,4,3.3,6.8,3c6.1-0.7,12.1-1.1,18.2-0.2c1.9,0.3,3.2-1,4.4-2.4
				c2.1-2.4,3.9-5.1,6.4-7.2c2.6-0.6,4.2-2.1,5.8-4.5c3.3-4.9,7-9.7,13.7-10.7c3.3-0.5,5.3-2.6,6.4-6c4.1-12.9,6.5-26.3,11-39.1
				c1.1-3,2.5-6,2.9-9.2c0.2-1.5,0.9-2.8,1.5-4.2c0.2-0.7,0.6-1.3,0.7-2c0-3.2,1.3-6.2,2.5-9.1c0.9-1.7,0.4-3.9,2.2-5.2
				c0.4-0.2,0.8-0.1,1.1,0.1c1.2,2.4,0.5,5,0.1,7.3c-2.5,13.4-4.2,27-9.5,39.8c-2.7,6.6-5.1,13.4-4.7,21c0.2,3.3-1.6,6.6-3,9.5
				c-3.7,7.2-8,14.1-13.7,19.9c-1.6,1.6-3,3.3-3.7,5.5c-0.8,2.4-2,4.7-4.1,6.1c-4.5,2.9-7.7,7-11.3,10.7c-2.3,2.3-4.8,3.4-8,3.2
				c-2.1-0.1-4.3,0.2-6.4-0.1c-3.3-0.4-6.2,0.1-8.8,2.2c-2.3,1.7-4.3,1.1-6.9-0.1c-10.1-4.5-18.7-11.3-27.9-17.2
				c-0.4,1.4,0.3,2.4,0.8,3.3c6.3,12.3,11.5,25.1,18.5,37.1c0.3,0.5,0.6,1.1,1,1.6c2.5,3.9,6.9,5.3,11.2,3.6c1-0.4,1.2-1.1,1.4-2
				c0.7-3,2.4-2.1,3.6-0.7c3.9,4.4,5.5,9.4,3.5,15.1c-0.4,0.3-1,0.4-1.3,0c-2.5-3.3-6-2.5-9.2-2.3c-3.2,0.2-3.8,1.3-2.8,4.4
				C126,265.4,127.8,267,126.5,269.2z"/>
			<path class="st5" d="M138.5,261.7c0.1-4.7,0.3-9.5-3-13.5c-0.8-0.9-1.3-2.1-2.7-2.3c0.4,4.6,0.4,4.6-4.5,4.6
				c-0.5,0-1.1-0.1-1.5,0c-5.3,2.1-7.3-1.6-9.3-5.2c-7.4-13.2-13.7-27-20-40.7c-0.4-0.9-1.6-2.1-0.4-3c1.2-0.9,1.9,0.5,2.8,1.1
				c6.8,4.7,13.5,9.7,20.6,14c2.7,1.7,6.2,2.1,8.8,4.4c1.4,1.2,3.1-0.5,4.3-1.5c2.4-2,4.8-2.5,7.9-2.1c3.2,0.4,6.5,0.1,9.7,0.1
				c1.5,0,2.5-0.7,3.6-1.7c4.2-4,7.7-8.8,12.7-12c1-0.6,2.1-1.7,2.4-2.8c2.2-7.2,8.7-11.2,12.4-17.3c2.6-4.3,5.5-8.4,7.3-13.2
				c3.1-8.6,2.2-18,5.9-26.4c2.9-6.4,5.4-13,6.6-20c1.5-9.5,3.9-18.8,4.7-28.5c-1.5-3.4-0.5-6.8,0.1-10.1c2.4-1.7,2.9-4.1,3.4-7
				c0.8-5-0.2-9.9,0.3-14.8c0.3-2.8,1.1-5.3,2.8-7.6c0.9-1.2,1.4-2.6,1.7-4.1c0.5-3.2-0.2-3.9-3.3-3c-1.6,0.5-3,0.3-4.1-0.9
				c-1.2-1.3-0.6-2.6,0-4.1c2.5-6.1,5-12.2,1.2-18.8c-0.9-1.6-0.5-3.4,0.5-4.9c2.2-1,3.2,0.8,4,2.1c1.5,2.3,2.9,4.5,4.1,6.9
				c3.4,6,4.3,12.3,4,19.2c-0.5,12-1.9,24.1,0.7,36.1c1.3,5.9-0.3,11.9-2,17.6c-1.8,6-2.2,11.9-1.9,18c-0.4,3.6-0.6,7.2-1,10.8
				c-2.1,8.7-2.8,17.7-5.6,26.2c-3,9.5-5.8,19-8.1,28.6c-1.9,7.9-6,15-10.3,21.8c-2,3.2-3.4,6.8-5.4,10c-0.8,1.2-1.4,2.6-2.8,3.3
				c-1.4,0.5-2.8,0.3-3.7-0.9c-1.8-2.3-3.7-1.3-5.6-0.3c-4.8,2.7-8,7-11.2,11.3c-2.1,2.8-4.1,5.6-6.6,8.1c-0.8,0.8-1.9,2.1-3.2,1
				c-1-0.8-0.5-2.1-0.1-3.1c0.9-2.3,2.3-4.4,2.7-7.8c-3.1,4-6.5,6.8-7.8,11.3c-1.1,3.8-3.1,7.3-4.5,11c-0.8,2-1.5,4-1,6.1
				c-0.3,3.8,0.1,7.6-2,11.1c-1.2,0-2.5,0-3.7,0C136.8,266.7,136.6,264.2,138.5,261.7z"/>
			<path class="st6" d="M279.4,116.7c0,5,0,10,0,14.9c-4.4,4.6-5.6,10.7-7.9,16.2c-1.2,2.9-0.9,6.1-0.2,9.2c0.3,1.2,0.6,2.8,2,2.9
				c1.5,0.1,1.7-1.5,2.1-2.6c0.7-1.7,0.9-3.6,1.4-5.4c0.4-1.3,0.5-3.1,2.5-3c0,19.2,0,38.4,0,57.5c-5.9,1.7-12.1-2.7-11.9-8.4
				c0-1.4,0.6-3.3-1.2-3.9c-1.6-0.5-2.3,1-3.2,2c-2.9,3.4-4.5,3.9-8.4,2.1c-2.4-1.1-5-1.5-7.4-2.3c-2-0.7-4.3-1.4-4.4-4
				c0-2.6,2.2-3.4,4.3-4.1c2.5-0.8,5-1.5,7.5-2.2c3-0.7,5.6-2.2,7.7-4.3c2.2-2.2,1.9-4.6-0.9-5.6c-8.9-3-17.8-6.4-27.6-4.5
				c-4.5,0.9-9.2,2.4-13.9,0.3c-1-1.2-1.5-2.6-1.6-4.2c-0.1-2.4,0.1-4.8-0.1-7.3c0.7-8.3,1.3-16.6,2.4-24.8c1.1-3,0.6-6.1,0.7-9.2
				c0.2-4.9,2.1-6.3,6.7-4.7c5.5,1.9,10.9,4.3,16.3,6.5c2.4,1,4.8,1.5,7.2,0.3c5.2-2.6,11-4,16.3-6.3c2.8-1.3,5.8-2.3,8.2-4.4
				C277,116.6,278.1,115.8,279.4,116.7z"/>
			<path class="st6" d="M279.4,48.7c0,21.7,0,43.3,0,65c-1.2,1.1-2.6,0.5-3.9,0.2c-7.5-1.6-15-3.5-22.5-5.7
				c-5.8-1.7-11,0.9-16.5,1.5c-2.8,0.3-5.5,1.5-8.2,2.6c-4.8,2-6.7,0.7-7-4.5c0-0.5,0-1,0-1.5c0.9-7.5,2.1-14.9,2.4-22.5
				c0.2-4.3,0.3-8.6-0.1-13c-0.6-8.4-0.5-16.8-0.5-25.2c1.5-2.4,3.5-1.2,5.3-0.5c7.2,2.9,14.5,5.4,21.3,9c5.4,2.9,10.2,2,15.2-0.4
				c3.6-1.8,7.4-3,10.9-4.8C277,48.4,278.2,48.1,279.4,48.7z"/>
			<path class="st7" d="M45.6,269.2c-6.5,0-13,0-19.5,0c-1.9-6.4-8-10-10.7-16c-0.8-1.9-2.5-1.8-4.2-1.1c-2.9,1.3-5.5,2.9-7.8,5
				c-4.2,4-8.8,5.3-14.4,2.8c-3.5-1.5-7.7-1-10.9-3.5c0-1.5,0-3,0-4.5c2.6-1.9,5.6-1.3,8.3-0.5c4.1,1.2,7.9,0.6,11.5-1.3
				c4.3-2.3,8.4-5,12.7-7.2c4-2.1,8.1-3.3,12.5-1.7c2.9,1,5.3,0.1,7-2.2c3-4,7-6.7,11.1-9.3c3.3-2.1,6-4.8,9.2-7
				c1.5-1,3.1-2.2,4.7-0.8c1.4,1.2,0.2,2.8-0.2,4.1c-1,3.1-1.9,6.2-3.6,9c-0.5,0.8-1,1.9-0.1,2.8c0.7,0.7,1.7,0.1,2.5-0.2
				c2.2-0.7,4-2,6-3c1.4-0.7,2.9-0.6,4.6-0.5c-1.4-8.2,1.4-15.4,4.3-22.6c2.2-0.3,2.3,1.6,3.2,2.8c3.4,8.2,7.1,16.3,10.1,24.6
				c0.5,1.3,1.1,2.5,1.3,3.8c-0.2,2.4,0,4.6,1.6,6.6c0.9,1,1.1,2.5,1.4,3.8c0.9,4.6-1.2,6.6-5.7,5.2c-1.8-0.6-3.1-0.2-4.6,0.7
				c-3.4,2.2-6.5,1.8-9.6-0.6c-2.6-2-5.2-4.2-8.7-4.9c-3.2-0.6-4.4-0.1-4.6,3c-0.3,3.1-1.3,5.4-3.8,7.3
				C47.4,265.3,47.2,267.8,45.6,269.2z"/>
			<path class="st8" d="M185,220.6c3.3-3.8,4.5-8.7,7.5-12.7c2.6-0.9,3.2-3.3,4.2-5.4c1.2-2.6,2.4-5.2,4.3-7.4
				c0.8-0.9,1.7-1.5,2.9-1.1c1.3,0.4,1.5,1.6,1.6,2.7c0.2,1.8-0.5,3.4-0.9,5.1c-0.4,1.8-0.5,3.5,1.9,4.1c0.9,0.2,1.6,0.8,1.8,1.7
				c0.6,5,2.2,10,0.1,15c-0.5,1.1-1.1,2-1.8,2.9c-2.4,2.3-4.1,4.9-5.5,7.9c-5.3,11.1-11.4,21.8-17.6,32.4c-0.8,1.3-1.7,2.4-2.9,3.3
				c-12.7,0-25.5,0-38.2,0c0.3-4,0.5-8,0.8-12c0.6-0.8,0.6-1.9,1-2.8c0.9-2,2-2.9,3.8-1.1c1.8,1.8,3.1,0.9,4.2-0.8
				c2.1-3.4,5.2-6,7.6-9.1c1.5-1.9,3.2-3.4,5.8-3.8c1.6-0.2,2.5-1.4,3.6-2.5C174.3,231.6,179.7,226.2,185,220.6z"/>
			<path class="st9" d="M279.4,22.6c0,5.2,0,10.5,0,15.7c-1.2,1.1-2.7,1.4-4.2,1.3c-9-0.4-17.8,1.5-26.8,1.4
				c-7.1-0.1-14.1-1-21.2,0.4c-2,0.4-3.6-0.6-4.4-2.6c-0.4-0.9-0.9-1.7-1.7-2.4c-1.2-1.4-1.8-3.1-2-4.9c0.2-2.5-0.8-5.1,0.7-7.5
				c2.3-4.4,1-8.9-0.2-13.2c-0.3-1.1-1.2-2-1.1-2.8c-0.1,1.8,0.2,4,1.3,6.2c1.6,3,1.5,6.1,0.3,9.3c-1,1.7-2.5,2-4.2,1.6
				c-3.2-2.2-5.1-5.6-7.8-8.3c-0.4-0.4-0.1-0.9,0.4-1.2c3.4-0.1,4.7-1.9,4.4-5.3C212.9,8,213.3,5.9,214,4c1.3-3.6,2.2-7.3,2.1-11.2
				c0-1.3,0.1-2.7,1.5-3.6c6.3-0.5,12.5-0.2,18.8-0.2c4.7,3.1,4.4,11.8-0.4,14.3c-0.9,0.4-2,0.6-2.3,1.7c-2.1,7.6-5.6,14.6-8.9,22.7
				c10-8.4,18.6-16.9,27.4-25.2c2.2-2.1,2-3.7-0.2-5.5c-1.2-1-2.4-2.2-3.4-3.5c-0.9-1.2-1.7-2.5-0.5-4c0.7-0.4,1.4-0.4,2.2-0.2
				c2.9,2.1,4.8,5,6.8,7.9c1.6,2.2,0.7,4.2-1,6c-4.5,4.5-8.9,9.1-13.4,13.6c-2.8,2.7-5.2,5.7-7.2,9c-0.7,1.2-2.2,2.4-1,4
				c1.1,1.5,2.8,2.2,4.6,1.8c4-1,8.2-0.7,12.2-2.1c1.9-0.7,3.9-1.1,5.9-1.1c3.1,0,4.4-1.8,4.8-4.6c0.6-3.9,0.7-7.9,1.7-11.8
				c0.7-2.7,2.5-3.5,4.3-1.6C271.7,14.3,276.4,17.7,279.4,22.6z"/>
			<path class="st10" d="M86.8,181.7c4.8,12.2,9.4,24.5,15.3,36.2c5.9,11.7,10.6,24,17.2,35.4c1.1,1.8,2.7,4-0.6,5.5
				c-1.1,0.5-0.4,1.3,0,1.9c1.6,2.6,1.9,5.6,2,8.5c-4.2,0-8.5,0-12.7,0c-3.4-2.8-7.2-4.8-11.1-6.8c-0.8-0.6-1.4-1.3-1.5-2.3
				c1.6-2.9,4.8-4.4,7.3-2.9c2.3,1.3,4.6,1.7,7.1,1.5c1.9,0.3,3.2,1.7,4.6,2.7c-3.6-4.8-9.5-7.1-14-11.1c-3.4-2.2-7.1-4-10.5-6.5
				c-4.3-3.1-4.8-6.5-2.2-11c1.9-3.3,1.8-7.1,0.4-10.4c-2.5-6.2-4.5-12.6-7.4-18.6c-3.3-6.9-5-14.5-8.8-21.2
				c-0.5-3.1,0.2-6.3-0.5-9.4c-0.5-2.3,1.1-3.3,3.5-2.2c1.6,1.3,1.9,3.3,2.5,5c0.2,1.1,0.8,2,1.3,2.9c2.6,4.8,5.7,9.3,8.7,14.3
				C87.4,188.8,84.5,185.4,86.8,181.7z"/>
			<path class="st11" d="M-21.9,241.5c0-5.7,0-11.5,0-17.2c2.1-0.5,3.7-1.8,5.4-3c1.1-0.8,2.4-1.3,3.8-1.3
				c6.9-2.5,14.3-3.4,21.3-5.6c4.5-1.5,9.4-2.1,14.1-3.1c9-2,18.3-2.7,27.2-4.9c1-0.2,2-0.4,3-0.3c3.6,0.1,4.8,2,3.2,5.2
				c-3.1,6.2-8.4,10.8-14.8,12.4c-7,1.8-12.9,5.7-19.6,8c-10.5,3.6-20.6,8.1-31.1,11.6C-13.7,244.8-17.9,243.7-21.9,241.5z"/>
			<path class="st12" d="M257,269.2c-19.7,0-39.5,0-59.2,0c-3-1.7-2.6-4.3-2.1-7.2c1.9-9.9,5.7-19.2,8.9-28.7
				c1.6-4.5,3.5-9,4.8-13.6c0.9-2.1,1.2-4.8,4.3-5.2c3,4,3.1,6.5,0.3,10.3c-0.9,1.2-1.2,2.4-1,3.8c1,8.3,3.9,16.1,5.1,24.4
				c0.5,3.2,3.2,4.8,6.5,5.2c3.3,0.4,5.5-0.9,6.9-3.8c1-2,1.8-4.1,2.5-6.2c1.6-4.2,6.9-7,11.2-6c2.8,0.6,4.3,2.7,4.4,5.4
				c0.1,4.8,2.3,8.6,5.4,12C257.6,262.4,257.9,265.6,257,269.2z"/>
			<path class="st13" d="M257,269.2c-0.2-0.6-0.7-1.2-0.6-1.7c1.2-4.8-2.5-7.5-4.8-10.6c-1.8-2.3-2.6-4.7-2.8-7.5
				c-0.1-2.9-0.3-5.7-3.8-6.3c-4-0.7-8.8,1.9-9.7,5.2c-0.6,2.1-1.3,4-2.2,5.9c-2.7,5.3-4.3,6.2-10,5.2c-3.3-0.6-6.1-3.8-6.5-8.1
				c-0.7-7.9-4.1-15.3-4.9-23.2c-0.1-1.3-0.7-2.7,0.6-3.4c3.8-2,3-4.9,1.9-8c-0.2-0.7-0.4-1.4-0.6-2.1c-1.1-1.9-0.1-3.1,1.5-4
				c0.4,0,0.8,0.1,1.1,0.4c1.3,2.4,1.8,5.1,2.9,7.6c1.6,3.7,2,7.1-1.3,10.3c-1.4,1.4-1.7,3.4-1.2,5.3c1.2,4.5,2,9,3.3,13.4
				c0.7,2.4,2.1,4,4.7,4.2c2.6,0.2,3.1-2.2,4-3.8c1.1-1.9,0.5-3.9,0.5-5.9c-0.1-4.6,1.3-5.7,6-5.6c4.8,0.1,9.6-1.4,14.4-1.7
				c3.8-0.2,6.9,0.1,9.1,3.6c0.5,0.7,1,1.6,2,1.6c5.7,0.1,10.5,4.1,16.3,3.5c1-0.1,2,0.4,2.7,1.1c0,7.6-0.1,15.2,0,22.8
				c0,1.6-0.3,1.9-1.9,1.9C270.7,269.1,263.8,269.2,257,269.2z"/>
			<path class="st14" d="M5.8,72.6c0.5,0.1,1,0.2,1.4,0.4c5.8,3.9,5.5,3.7,10.9-1c7-6.1,14-12.2,20.4-19c3.6-3.8,7.1-7.4,13-6.9
				c1.4,0.1,1.8-1.5,1.4-2.5c-2-5.5,2.1-7.8,5.4-10.6c1,0.8,1.1,2,1,3.1c-0.7,7.7-1.8,15.3-3.6,22.8c-0.3,0.4-0.7,0.5-1.2,0.3
				c-2-1.2-3.4-2.9-4.4-4.9c-1.1-2.3-2.3-1.9-3.3,0.1c-0.5,1-1,2-1.3,3.1C44,64,42.5,70.5,40.9,77c-0.2,1-0.5,1.9-0.9,2.8
				c-0.5,1.1-0.9,2.7-2.5,2.3c-1.4-0.3-0.9-1.9-1-2.9c-0.2-5.4,2.6-10,3.5-15.2c0.1-0.8,0.6-1.6,0.8-2.5c0.2-1.1,0.6-2.4-0.5-3.1
				c-1.2-0.8-2.1,0.2-2.9,1C31.4,65.7,25.4,72,19.3,78.3c-2.1,2.2-1.6,4.4,0.1,6.7c1.3,1.7,3.4,2.8,4.5,5.8c-2.3-1.2-3.9-2-5.5-2.9
				c-1.9-1-2.9-0.5-2.8,1.6c0,5.1-0.1,10.1,0.2,15.2c0.1,2.5,2.2,3.7,4.5,4.3c4.3,1.1,8.7,2.2,13,3.4c1.3,0.4,2.9,0.7,3,2.3
				c0.1,1.6-0.9,2.7-2.2,3.6c-4.7,3.5-9.5,7-14,10.8c-2.7,2.2-4.9,2.6-7.6,0.3c4.6-0.2,6-3.6,7.1-7.2c1.1-3.7,0.4-5.4-3.4-6.4
				c-6-1.5-12.1-1.4-18.2-0.6c-4.7,0.6-9.4,0.1-14.1,0.7c-2,0.2-4.2-0.6-5.8-2.1c0-1.5,0-3,0-4.5c3.4-2.9,6.4-6.1,9.6-9.2
				c1.1-1.1,2-2.6,4-2.1c0.9,1.6-0.3,2.5-1,3.6c-0.6,1-1.8,1.7-1.6,3.6c4.3-2.6,7.2-6.3,10.5-9.5c4-3.7,7.5-7.9,11.8-11.3
				c2.8-2.3,2.5-3.4-0.5-5.5C8.7,77.3,5.9,76,5.8,72.6z"/>
			<path class="st15" d="M279.4,244.5c-4.9,0-10,0.4-14.3-2.8c-0.4-0.3-1-0.3-1.5-0.3c-3.3,0.2-6-0.3-7.4-4.1
				c-0.5-1.3-2.5-2.3-4.2-1.8c-4.7,1.3-9.8-0.1-14.3,2.2c-0.9,0.5-1.9,0.3-2.9,0.1c-3.8-0.9-5.6,0.6-4.8,4.4
				c0.7,3.2,0.1,5.8-1.7,8.4c-0.9,1.3-1.3,3.3-3.4,2.7c-2.4-0.6-5.2-0.9-5.9-3.8c-1.4-5.4-2.8-10.8-4-16.2c-0.5-2.4,0.6-4.7,2.6-6.2
				c1.6-1.2,1.8-2.6,1.4-4.5c-0.8-4-3.8-7.4-3.4-11.7c-0.6-0.9-0.3-1.4,0.6-1.8c0.4,0,0.9,0,1,0.3c3.2,4.8,8.2,7.6,12.7,10.8
				c5.8,4.1,12,8.3,19.9,5.8c1.5-0.5,3-0.2,4.4,0.2c7.7,2.2,14.7,6.1,22.3,8.6c1.2,0.4,2.2,1.2,2.8,2.3
				C279.4,239.5,279.4,242,279.4,244.5z"/>
			<path class="st16" d="M279.4,210.1c0,6,0,12,0,17.9c-1.1,1.1-2.5,1-3.9,0.8c-4.3-0.9-8.6-1.9-12.4-4.1c-5.9-3.4-12-6.1-18.7-7.3
				c-0.5-0.1-1-0.2-1.4-0.5c-6.4-5.5-14.8-6.2-22-9.9c-2.2-1.1-4.1-2.3-4.1-5.2c0.3-2.3,0.7-4.5,2.1-6.4c2-1.9,4.3-1.4,6.7-0.8
				c17,4,33.6,9.4,50.5,13.7C277.5,208.7,278.6,209.2,279.4,210.1z"/>
			<path class="st17" d="M220.3,171.3c5,0.3,10-0.1,14.8-1.5c5-1.5,9.7,0.1,14.3,1.1c4.3,0.9,8.8,1.8,12.9,3.8
				c3.8,1.8,4.2,5.3,0.9,8.1c-4,3.4-9,4.5-13.9,5.8c-0.2,0.1-0.5,0-0.7,0.1c-1.8,0.7-4.4,0.9-4.7,3.1c-0.3,2.5,2.5,2.8,4.3,3.4
				c2.7,0.8,5.5,1.5,8.1,2.7c2.4,1.1,4.7,0.9,5.8-2c0.5-1.2,1.3-2.2,2.4-2.8c2.1-1.4,4-0.6,4.5,1.8c0.2,0.8,0.1,1.7,0.1,2.6
				c-0.2,5.7-0.2,5.7,5.2,7.5c1.8,0.6,3.3,1.9,5.3,1.7c0,0.5,0,1,0,1.5c-1.2,0.9-2.3,0.4-3.5,0c-6.3-2.1-12.5-4.7-18.8-6.6
				c-10.5-3.9-21-7.9-32-10.1c-3.1-0.6-4.4-1.9-4-5c0.3-2.6-0.2-5.2-0.8-7.7C219.8,176.1,218.8,173.7,220.3,171.3z"/>
			<path class="st18" d="M-8.4,98c-3.2,3.1-6.5,6.2-9.7,9.3c-1.1,1.1-2.1,2.1-3.8,1.9c0-4.7,0-9.5,0-14.2c3-4.4,3.6-9.7,5.2-14.6
				c0.7-2.1-0.7-4.4-1.6-6.4c-1.3-2.7-2.4-5.4-3.5-8.2c0-2.7,0-5.5,0-8.2c1.4-0.7,2.4,0.1,3.4,0.9C-10.5,65.4-2.2,72,6.3,78.2
				c2.3,1.7,2.9,3.8,0.8,6c-4.2,4.6-8.6,8.9-13.2,13.2C-6.7,98-7.4,98.5-8.4,98z"/>
			<path class="st19" d="M279.4,22.6c-4.1-3.2-7.8-6.8-11.2-10.8c-0.7-0.8-1.4-2-2.7-1.7c-1.5,0.3-0.9,1.8-1.1,2.8
				c-0.5,3.7-1,7.3-1.5,11c-0.5,4.2-1.7,4.9-6,5.4c-5.6,0.7-11.3,1.7-16.8,3.1c-2.4,0.6-4.1,0-6-1.1c-2.1-1.3-2.7-2.5-1.1-5
				c4.5-6.9,10.3-12.4,16-18.1c1.3-1.3,2.6-2.6,4-4c5-5,5.2-4,0.1-10.4c-1.1-1.4-2.4-2.5-3-4.2c0.9-1,2.1-0.7,3.3-0.6
				c2.7,2.4,4,5.6,5.4,8.7c0.9,2,0,3.9-1.3,5.5c-0.9,1.2-2.1,2.1-3,3.8c1.6-0.1,2.5-1,3.5-1.6c3.9-2.2,6.5-2,9.3,1.3
				c3.7,4.5,7.6,8.8,12,12.7C279.4,20.6,279.4,21.6,279.4,22.6z"/>
			<path class="st20" d="M68.8,211.6c-0.3,4.4-2.2,8.3-3.1,12.6c-0.7,3.2-1.6,6.2,0.2,9.3c0.4,0.7,1,1.6,0.1,2.4
				c-0.7,0.6-1.5,0.2-2.1-0.2c-1.7-1.1-3.1-0.5-4.5,0.4c-1.9,1.2-3.8,2.3-6,3c-1.2,0.4-2.6,1.7-3.7,0.2c-0.9-1.1-0.7-2.8,0.1-3.9
				c2.4-3.2,2.9-7.1,4.4-10.6c0.3-0.7,1.3-1.6,0.5-2.3c-0.9-0.9-2-0.1-2.7,0.5c-6.4,6-15,9.3-20.6,16.4c-2.5,3.2-5.6,4.6-9.8,2.6
				c-3.4-1.6-6.9-0.2-10,1.5c-4.6,2.5-9.1,5.2-13.6,7.7c-3.9,2.2-7.9,2.9-12.2,1.1c-2.5-1-5.2-0.3-7.8-0.5c0-1.2,0-2.5,0-3.7
				c2.9-1.2,5.9-0.5,8.7,0.2c2.9,0.8,5.2,0.2,7.8-1.3c6.4-3.6,12.6-7.6,19.8-9.3c1.6-0.4,3.2-0.4,4.8-0.8
				c13-2.7,23.2-10.3,32.9-18.8c1.1-1,2.2-2,3.4-2.9c3.8-2.9,7.9-5.6,9.4-10.6C68.3,205.9,68.9,208.6,68.8,211.6z"/>
			<path class="st21" d="M218,201.9c-0.1,1.7,0.5,3.1,2.1,3.5c4.8,1.5,9,4.5,14.3,4.8c2.8,0.2,4.5,3.2,7.1,4.4
				c0.9,0.4,1.5,1.4,2.5,1.5c8.5,1,15.5,5.8,23.2,9.1c3.9,1.6,8,2.8,12.2,2.8c0,3,0,6,0,9c-8.2-3.2-16.4-6.4-24.7-9.6
				c-1.1-0.4-2.4-1.3-3.6-0.7c-6.6,3.3-12.4,0.1-17.6-3c-6.4-3.8-13.1-7.5-17.1-14.3C215,206,215.5,203.8,218,201.9z"/>
			<path class="st22" d="M45.6,269.2c0.4-3.1,1.4-5.8,4.3-7.3c1.4-0.8,1.7-1.9,1.7-3.4c0.4-6.9,3.3-8.4,9.4-4.9
				c2.2,1.3,4.4,2.8,6.4,4.5c3,2.6,5.9,2.1,8.6-0.2c1.7-1.5,3.1-1.7,4.9-0.3c1,0.8,2.1,1.4,3.4,0.5c1.3-0.9,1-2.2,0.9-3.4
				c-0.1-1.8-0.5-3.7-1.6-4.9c-2-2.1-2.1-4.3-1.4-6.7c1.7-0.1,1.6,1.3,2,2.2c1.4,3.6,3.1,7,5.7,9.9c1.9,2.1,3.8,4.2,4.3,7.2
				c0.2,1.3,1.5,1.9,2.5,2.6c1.3,1,3.1,1.9,2,4.1C81,269.2,63.3,269.2,45.6,269.2z"/>
			<path class="st23" d="M-21.9,241.5c0.5,0,1-0.1,1.5,0c7.7,2.8,14.7,0.1,21.3-3.3c5-2.6,10.4-3.9,15.7-5.7c4.5-1.5,9-3,12.8-6.4
				c1.8-1.6,4.8-2,7.3-2.3c6.1-0.9,10.8-4.1,15-8.2c1.1-1,2-2.2,2.6-3.6c0.5-1.3,2.4-2.4,1.3-4c-1.1-1.6-3.1-1-4.5-0.6
				c-7.1,1.9-14.4,2.3-21.6,3.8c-4.6,1-9.3,2.4-13.8,2.7c-6.1,0.4-11,5.1-17.3,3.9c-2-0.4-3.6,1.5-5.5,2.1c-1.9,0.6-3.7,2.3-5.9,0.9
				c1.4-1.8,3.5-2.2,5.4-3.1c12.3-4.6,25.1-7.5,37.3-12.1c1.6-0.6,3.4-1,5.1-1.1c5.5-0.8,11.2-0.5,16.4-3.2c1.6-0.8,3.5-1.2,5.4-1.3
				c2.6-0.1,5.1-0.1,6.4,2.7c1.2,2.5,0.8,5.9-1.5,7.9c-9.7,8.5-19.2,17.3-31.5,22.2c-5.7,2.2-11.2,4.7-17.4,5.4
				c-3.2,0.4-6.1,2.2-8.9,3.8c-3.3,1.9-6.6,3.8-10.1,4.7c-5.4,1.4-10.8,1.4-15.6-2.3C-21.9,243.5-21.9,242.5-21.9,241.5z"/>
			<path class="st24" d="M-21.9,256.5c4.2,0.5,8.3,1.2,12.2,2.8c4.1,1.6,8.2,1.2,11.3-2c2.8-2.8,6.1-4.6,9.5-6.4
				c2.6-1.4,4.6-0.8,5.4,1.8c1.1,3.4,3.4,5.7,5.8,8c2.5,2.4,3.7,5.2,3.7,8.6c-15,0-30.1-0.1-45.1,0.1c-2.7,0-3.1-0.7-3-3.1
				C-21.7,262.9-21.9,259.7-21.9,256.5z"/>
			<path class="st17" d="M222.5,107c0.1,6.1,0.8,6.4,6.2,4c4.2-1.8,9-2.1,13.2-3.6c7.7-2.6,14.2,0.8,21.1,2.2
				c5.5,1.1,11,2.7,16.5,4.1c0,1,0,2,0,3c-8,6.5-18.2,8.1-27.1,12.4c-2.7,1.3-5.1,1.3-7.8,0.1c-5.8-2.5-11.7-4.9-17.6-7.2
				c-3.1-1.2-4.2-0.3-4.5,3.1c-0.3,3.2,0.8,6.4-0.7,9.5c-1-0.7-1.3-1.8-1.3-2.9c-0.2-7.4-0.3-14.8,0.1-22.2c0-0.7,0.2-1.5,0.7-2.1
				C221.5,106.9,221.9,106.8,222.5,107z"/>
			<path class="st14" d="M0.6,124.9c-2,0.3-4.6-2.1-5.9,0c-1.1,1.8,1.2,3.7,2.1,5.6c0.2,0.4,0.3,0.9,0.5,1.3c-2,0.9-3.2-0.7-4.6-1.2
				c-1-0.3-1.9-0.9-2.8-0.2c-1.1,0.9-0.4,2.1,0,3.1c1.3,2.7,2.6,5.3,3.8,8c3.1,7.6,0.1,14.6-1.5,21.8c-0.4,1.6-1.5,2.7-3.3,2.5
				c-1.8-0.2-1.7-1.7-2-3.1c-1.3-8.5-2.9-16.8-5.8-24.9c-1-2.8-2.1-5.6-1.7-8.7c0.1-1.2-0.3-2.2-1.5-2.8c0-2.5,0-5,0-7.5
				c3.6-1.4,6.9,0.8,10.4,0.7c0.9,0,1.9,0.4,2.9,0.4c2.5,0.2,4.7,1.3,7,2.3C-0.6,122.9,0.8,123.3,0.6,124.9z"/>
			<path class="st25" d="M-8.4,98c5-4.8,10-9.7,14.9-14.6c1.2-1.2,1.7-2.5,0-3.8C-3,73-11.8,65.4-20.9,58.2c-0.3-0.2-0.7-0.3-1-0.5
				c0-1.5,0-3,0-4.5c4.7,1,8,4.3,11.7,6.9C-4.7,64,0.5,68.4,5.8,72.6c1.7,2.3,3.6,4.5,6.3,5.7c3.4,1.6,4,3.6,1,6
				c-5.3,4.2-9.6,9.3-14.5,13.9c-2.6,2.4-4.9,4.9-7.6,7.1c-0.9,0.7-2.3,2.2-3.5,0.8c-1-1.1,0.4-2.2,0.9-3.3
				C-10.9,101.1-8.6,100.3-8.4,98z"/>
			<path class="st3" d="M-21.9,21.8c0-9.2,0-18.4,0-27.6c2.1-2,4.3-3.8,7.4-3.8c3.9,1.9,7.2,4.8,10.4,7.7c1.9,1.7,1.8,3.6,0.1,5.5
				c-5,5.5-10,11-14.7,16.7C-19.6,21.3-20.4,22.4-21.9,21.8z"/>
			<path class="st26" d="M-14.4-8.8c-2.9,0-4.7,2.8-7.5,3c0-1.7,0-3.5,0-5.2c1.3-0.7,2.7-0.4,4-0.4c97.8,0,195.5,0,293.3,0
				c1.3,0,2.7-0.3,4,0.4c0,2.5,0,5,0,7.5c-2.4,1.7-4.3,0.9-6.1-1c-0.7-2,1.1-3,2-4.4c-3-0.5-5.2,0.4-7.3,2.2
				C264.8-4,262.3-4,259.3-7c-1.6-1.6-3.7-1.9-5.3-3.3c-1.2,0-2.5,0-3.8,0c-0.7,0-1.5,0-2.2,0c-3.5,2-7,2-10.5,0
				c-6.7,0-13.5,0-20.2,0c-1.7,1.6-3.9,1.4-6,1.4c-9,0.1-18.1-0.2-27.1,0.2c-5.7-0.2-11.5-0.1-17.2-0.1c-24-0.1-48-0.1-71.9,0
				c-1.5,0-3,0.2-4.4-0.6c-1.1-1.2-2.6-0.8-3.9-0.8c-31,0-61.9,0-92.9,0C-8.6-8.1-11.8-10-14.4-8.8z"/>
			<path class="st19" d="M221.7,35.3c0.2,0.1,0.6,0.2,0.6,0.4c1.3,4.9,4.8,5.2,8.8,4.1c5-1.4,9.9-0.2,14.8,0
				c11.2,0.6,22.3-2.4,33.5-1.5c0,1,0,2,0,3c-1.4,1.4-3.2,1.2-4.9,1.1c-10.2-0.3-20.4,0-30.5,1.7c-1.5,0.2-3,0.2-4.4,1.2
				c0.1,1.5,1.5,1.8,2.4,2.5c4.2,2.9,9.2,4.5,13.7,6.9c1.4,0.7,2.6,0.5,3.9,0c5.2-2,10.4-4,15.4-6.5c1.4-0.7,2.7-1.9,4.5-0.8
				c0,0.5,0,1,0,1.5c-6.2,2.6-12.4,5.1-18.5,7.8c-3.4,1.5-6.4,0.9-9.7-0.5c-8.4-3.7-16.9-7.2-25.4-10.8c-0.6-0.2-1.2-0.2-1.8-0.2
				C221.4,42.2,220.8,38.9,221.7,35.3z"/>
			<path class="st27" d="M254-10.3c2.5-0.4,4.4,0.5,6,2.5c2,2.5,4.8,3.1,6.9,0.4c2.9-3.6,6.5-3.2,10.7-2.7c-1.6,1.8-2.9,3.4-4.2,5
				c-0.1,0.6-0.5,1.1-1,1.5c-4,3.9-3.8,3.8-0.5,8c2.4,3.1,5.7,5.5,7.5,9.2c0,2,0,4,0,6c-5.5-1.9-8.3-6.8-11.8-10.9
				c-3.4-4.1-5.1-4.6-9.6-1.8c-1.5,0.9-3.8,3-4.8,1.7c-1.5-1.8,1.2-3.3,2.5-4.6c2.7-2.6,3.5-5.1,1-8.4C255.5-6.1,253.9-7.9,254-10.3
				z"/>
			<path class="st28" d="M-21.9,244.5c2.1-0.3,3.7,1.2,5.7,1.6c7.1,1.4,13-1.3,18.9-4.7c3.6-2.1,7.4-4.2,11.7-4.4
				c5.4-0.3,10-2.8,14.6-5.1c6.6-3.3,13.8-5.7,19.6-10.6c4.2-3.6,8.3-7.4,12.3-11.2c2-1.9,2.3-4.3,1.3-6.9c-1.1-2.7-3.5-2-5.5-1.9
				c-1.7,0.1-3.6,0.3-5.1,1.1c-5.2,2.9-11.1,2.3-16.7,3.3c0-1.9,1.6-2.1,2.8-2.4c6.3-1.7,12.5-3.5,18.7-5.6c2-0.7,3.9-0.5,5.6,1
				c1.4,1.3,2.5,2.8,3,4.7c0.1,0.5,0,1.1-0.1,1.6c0,5-3.8,7-7.1,9.7c-6.4,5.3-12.3,11.2-19.5,15.4c-7,4-13.9,7.8-22.3,8.6
				c-7.7,0.8-14,5.5-20.6,9.2c-3.1,1.7-5.7,3.1-9.4,1.4c-2.5-1.1-5.5,0-8.1-1.2C-21.9,247-21.9,245.7-21.9,244.5z"/>
			<path class="st29" d="M180.5,269.2c3.4-6.3,6.6-12.7,10.4-18.8c3.6-5.8,6.5-12,9.5-18.1c1.4-2.8,3-5.3,5.6-7.2
				c1.1,1.4,0.5,2.8,0,4.2c-2,6.1-4.2,12.1-6.4,18.1c-2.3,6.5-5.4,12.8-6.1,19.8c-0.1,0.8-0.5,1.4-1,1.9
				C188.5,269.2,184.5,269.2,180.5,269.2z"/>
			<path class="st30" d="M257.7,200.4c7.4,1.9,14.4,5.1,21.7,7.5c0,0.7,0,1.5,0,2.2c-11-2-21.5-5.7-32.3-8.6c-7.5-2-15.1-4-22.6-6
				c-1.7-0.5-3.4-0.5-5,0.5c-0.9-3.5,0.5-5.6,3.9-5.6c3.9,0,7.5,1.4,11.1,2.5C242.3,195.1,249.9,198.2,257.7,200.4z"/>
			<path class="st31" d="M279.4,47.2c-5.9,2.6-11.8,5.1-17.7,7.7c-3.1,1.4-5.8,1.4-8.8-0.3c-4.7-2.5-9.7-4.4-14.1-7.5
				c-0.9-0.6-2.1-1.2-1.6-2.6c0.4-1.1,1.6-0.9,2.6-1.1c13.1-2.5,26.4-2.3,39.7-2.2C279.4,43.2,279.4,45.2,279.4,47.2z"/>
			<path class="st32" d="M279.4-11.1c-100.5,0-200.9,0-301.4,0c0.7-1.5,2-0.7,3-0.7c43.1-0.1,86.2,0,129.3,0c55.2,0,110.4,0,165.7,0
				C277.2-11.8,278.6-12.6,279.4-11.1z"/>
			<path class="st33" d="M-14.4-8.8c-0.5-1.2,0.1-1.5,1.2-1.5c2.3,0,4.7,0,7,0c2.8,3.2,5.3,6.9,10.4,6.8c1,0,1.6,0.6,1.6,1.7
				c-0.1,2,0.9,4.7-1.3,5.8c-3.7,1.8-5.9,5.2-9.1,7.5c-1.4-1.9,1.3-3,0.9-5.2c-5.7,4.2-9.8,9.5-13.9,15.3c2.7,0,3.6-3.3,6.2-2.6
				c-2.6,4.4-6.2,7.8-10.5,10.5c0-2.5,0-5,0-7.5C-17.4,16.9-13,12-8.5,7.1c0.7-0.8,1.4-1.8,2.1-2.5c3.8-4,3.8-4.2-0.4-7.5
				C-9.3-5-11.9-6.9-14.4-8.8z"/>
			<path class="st34" d="M279.4,148.9c-2.2,2.5-1.6,5.9-2.8,8.7c-0.8,1.8-1,4.4-3.3,4.4c-2.2-0.1-2.7-2.7-3.1-4.5
				c-0.8-3.5-1-7,0.4-10.5c1.3-3.3,2.9-6.5,3.8-10c0.6-2.6,2.6-4.1,5-5.1C279.4,137.4,279.4,143.1,279.4,148.9z"/>
			<path class="st35" d="M98.8,269.2c-0.1-0.5-0.2-1.2-0.4-1.4c-5.6-2.4-5.6-8.9-9.5-12.6c-3.5-3.3-5.1-7.7-6.5-12.2
				c-3.8-9.5-7.5-18.9-11.3-28.4c0.2-0.1,0.4-0.1,0.5-0.2c3.1,1.9,4.8,5.1,6.1,8.2c2.2,5.5,6,10.2,8.3,15.6c0.6,3.2,3.2,5.3,4.6,8.1
				c0.8,1.6,2.1,3.2,0.3,5c-0.8,0.8-0.1,1.6,0.5,2.2c1,0.9,1.9,1.9,2.8,2.9c1.1,0.9,1.2,2.4,1.7,3.6c0.5,0.5,1,1,1.5,1.5
				c2,2.2,4.8,3.9,4.5,7.5C100.8,269.2,99.8,269.2,98.8,269.2z"/>
			<path class="st36" d="M-8.4,121.2c-4.5-0.6-9.1-0.8-13.5-2.2c0-1.7,0-3.5,0-5.2c5.8,1.4,11.8,1.2,17.6,0.6
				c5.2-0.6,10.4-0.4,15.6-0.6c2.5-0.1,4.9,0.7,7.2,1.5c2.6,0.9,3.5,2.7,2.9,5.2c-0.6,2.8-1.7,5.5-3.2,7.9c-1.5,2.4-3.7,1.3-5.7,1.1
				c-2.3-0.8-4.8-1.3-6.7-3c1.9-1.6,3.8-0.2,5.7,0c3.1,0.3,3.1,0,2.8-3.1c-0.5-4.4-2.9-6-7.1-6.5c-5.2-0.6-10.4-0.3-15.6-0.4
				c-1,0-2.3-0.2-2.6,0.9c-0.5,1.2,1,1.5,1.7,2.1C-8.9,119.9-8.1,120.3-8.4,121.2z"/>
			<path class="st37" d="M-21.9,40.5c8.4-1.5,16.8-0.1,25.3,0c2.5,0,6.2,0,6.3,2.4c0.1,2.3-3.7,2.4-6.2,2.8
				C-5,47-13.5,46.3-21.9,46.5C-21.9,44.5-21.9,42.5-21.9,40.5z"/>
			<path class="st10" d="M138.5,261.7c0,2.5,0,5,0,7.5c-4,0-8,0-12,0c-0.3-2.1-1.7-3.8-2.5-5.8c-1.3-3.4,0.1-5.3,3.6-5.2
				c1,0,2,0,3-0.2C134.1,257.5,137,258,138.5,261.7z"/>
			<path class="st38" d="M-7.7,218.3c-1.7,0.8-3.5,1.6-5.2,2.4c-3.1,0.8-5.3,4-9,3.6c0-0.2,0-0.5,0-0.7c1.9-0.3,3.8-1.2,3.5-3.2
				c-0.4-3.3,0.7-2.9,2.9-1.9c2.4,1.1,9.6-1.6,11-3.8c0.4-0.7,0.6-1.4,0.3-2.1c-0.3-0.7-0.7-1.3-0.9-2c-1-3.3,0.3-8.9,2.4-9
				c3.6-0.2,4.9,3,5.9,5.7c0.9,2.6,2,4.2,5,3.7c-0.1,2.4-2.1,2.5-3.6,3C0.3,215.1-3.7,216.6-7.7,218.3z"/>
			<path class="st39" d="M192.5,269.2c-0.1-4.7,1.3-8.9,2.8-13.3c2.6-7.6,6.2-14.8,8.1-22.7c0.7-2.7,1.7-5.4,2.5-8.1
				c0.5-0.7,1-1.5,1.5-2.2c1.2-0.8,0.7-3.3,3-3c-2.9,10-6.5,19.8-10.5,29.4c-0.8,2-1.2,4.3-1.3,6.5c-0.1,2.2-0.6,4.1-1.6,6
				c-1.5,2.6-0.6,5,0.8,7.4C196,269.2,194.2,269.2,192.5,269.2z"/>
			<path class="st40" d="M279.4,13.6c-4.2-3-6.9-7.2-10.3-10.9c-1.9-2.1-1-3.7,0.7-5.3c1.1-1,2.3-1.9,3.6-2.5c1.8,1.1,3.8,1.8,6,1.5
				C279.4,2.1,279.4,7.9,279.4,13.6z"/>
			<path class="st41" d="M-21.9,65.9c3.6,3.8,5.1,8.7,6.6,13.5c0.7,2.4-4.7,14.7-6.6,15.6C-21.9,85.3-21.9,75.6-21.9,65.9z"/>
			<path class="st42" d="M101.8,269.2c-1.2-2.7-3.6-4.6-4.5-7.5c3.7,2.2,8.5,2.9,10.5,7.5C105.8,269.2,103.8,269.2,101.8,269.2z"/>
			<path class="st43" d="M64.4,204.1c-0.3-1.7-1.5-3-2.4-4.5c-0.9-2-3.4-2.9-3.8-5.2c1.1-1.5,0.1-2.5-0.7-3.6
				c-1.9-2.8-3.6-5.6-3.8-9.1c2.6-1.9,1.7-4.7,1.5-7.2c-0.8-10.4-2.1-20.7-2.1-31.1c0.1-10.9-0.9-21.7-1.3-32.6
				c-0.2-2.8,0.4-5.4,0.9-8.1c0.2-1.3,0.7-2.6,2.3-2.5c1.3,0.1,1.8,1.3,2,2.4c0.9,4.4,1.3,8.8,1.6,13.3c0.7,9.7,2.1,19.2,4.3,29.2
				c2.4-5.4,3.2-10.6,3.3-15.8c0-5,0.7-9.8,2.7-14.3c1.9,1.8,1.1,4.3,1.3,6.4c0.5,4.9,1.1,9.7,2.4,14.5c2.8,7.8,1.2,15.7,0.6,23.5
				c-0.1,0.8-0.5,1.7-1.3,1.6c-2.5-0.2-3.1,1.5-3.7,3.3c-0.2,0.7-0.7,1.4-1.3,1.8c-4,2.6-4.5,5.9-2.4,10c1,2,1.2,4.3,1.4,6.5
				c0.1,1.6-0.1,3.2-2.2,3.2c-2.6,0-2.1,1.7-1.8,3.1c0.7,3.8,1.7,7.5,3.1,11.1C65.5,201.4,66.9,203.2,64.4,204.1z"/>
			<path class="st44" d="M68.8,115.2c-1.4,11.4-0.6,23.1-6.3,34.5c-1.2-6.7-2.5-12.7-3.3-18.9c-1.2-9.3-2.1-18.7-3.1-28
				c-0.1-0.9,0-2-1.2-2c-0.9,0-1,1-1,1.7c-0.3,2.7-0.5,5.4-0.8,8.1c-1.3,1.5,0.6,4.3-2.2,5.2c-0.3-10.3,0.1-20.6,0.8-30.8
				c0.1-0.8,0.1-1.5,0.7-2.1c0.6,1.8,2.5,2.5,3.5,4c0.9,1.4,0.8,3.3,1.4,4.9c-0.9-2.9-1-5.8,0.4-8.5c0.8-1.5,1.7-3.4,4.2-2.3
				c1.4,5.5,1.8,11.2,3.5,16.6c1.1,3.9,2.5,7.7,3.4,11.7C69.1,111.4,69.3,113.3,68.8,115.2z"/>
			<path class="st45" d="M-8.4,121.2c-0.2-0.2-0.3-0.4-0.5-0.5c-1.7-0.8-4.6-1.1-4.2-3.4c0.5-2.9,3.5-2.1,5.6-2.1
				c5.6,0,11.1-0.4,16.7,0.7c3.3,0.6,6.2,1.3,5.8,5.6c-0.1,0.6,0.2,1.2,0.4,1.8c0.5,1.2,2.1,2.1,0.8,3.6c-1.2,1.4-2.9,1.1-4.5,0.8
				c-1.9-0.4-3.9-0.8-5.8-1.3c-1.7-0.5-3.5-1-5.2-1.5C-2.1,123-5.3,122.1-8.4,121.2z"/>
			<path class="st46" d="M58.3,194.4c2,1.2,3.4,2.9,3.8,5.2c-1.7-1.4-3.3-1.6-5.5-0.8c-7.1,2.4-14.3,4.6-21.5,6.8
				c-7.3,1-13.9,4.5-21,6.4c-7.3,1.9-14.5,4.2-21.8,6.3c3.5-2.6,7.6-3.7,11.5-5.2c1.5-0.6,3.1-1,4.2-2.3c0,0,0,0,0,0
				c3.2-1.3,6.5-2.5,9.7-3.7c12.2-4.6,24.6-8.7,37.2-12C56.1,194.9,57.2,194.7,58.3,194.4z"/>
			<path class="st25" d="M-0.9,183.2c-1.9-0.3-3-1.3-2.9-3.2c0.1-1.9,1.7-2.5,3.2-2.6c7-0.7,13.6-3,20.3-4.3c2.3-0.5,4.7-0.6,7,0.1
				c0.9,0.3,2.7,0.1,2.4,1.7c-0.2,1.2-1.6,0.9-2.6,0.9c-1.4,0.1-2.8-0.2-4.1,0.2c-2,0.5-3.9,1.2-1.9,4c1.5,2.2,2.3,4.9,3.3,7.4
				c0.9,2.5-0.3,3.8-2.7,3.2c-6.9-1.8-13.9-3.7-20.5-6.6c2.4-1.8,4.8,0,7.1,0.3c2,0.2,5.1,1.9,5.7-0.4c0.7-2.6-2.8-2.7-4.8-3.5
				c-1.1-0.4-2.2-0.5-3.3-0.7C0.8,178.9,0.6,179-0.9,183.2z"/>
			<path class="st47" d="M50.8,116c1.3-1.5,0.7-3.8,2.2-5.2c0.5,7.9,1.5,15.7,1.4,23.6c-0.3,13.5,0.9,26.8,2.3,40.1
				c0.2,1.8,0.1,3.7,0,5.6c-0.1,2-1.1,2.7-3,1.7c-0.9-4.7-1.3-9.4-1.5-14.2c-0.8-6.5-0.1-13-0.3-19.4c0.3-2.8,0.6-5.6,0.2-8.4
				c-0.2-0.2-0.4-0.4-0.6-0.6c0-1.2,0-2.5-0.1-3.7c-1-4.5,0.3-9-0.7-13.5C50.8,120,50.8,118,50.8,116z"/>
			<path class="st48" d="M61.3,80.8c-3.5,2.1-4.1,5.4-3.6,9.1c0.1,0.7,0.5,1.4,0.5,2.2c0,1.1,0.6,3-1.1,3c-1.4,0.1-0.7-1.8-1.1-2.7
				c-1-2.2,0.6-5.8-3.4-6.5c-0.3,0-0.2-1.8-0.3-2.8c0-8,2.3-15.8,2.3-23.9c0.2,0,0.4,0,0.7-0.1c1.7,1.7,1.4,4.1,1.8,6.2
				c0.5,2.3,0.9,4,3.6,2c0.5-0.3,0.9,0.2,1.2,0.6c-0.2,3.2,0.5,6.3,0.5,9.5C62.4,78.7,62.4,80,61.3,80.8z"/>
			<path class="st49" d="M-0.9,183.2c-1.1-3.6-0.2-5.5,3.1-5.1c3.7,0.4,7.4,0.9,10.8,2.7c1.5,0.8,3,1.8,2.3,3.7
				c-0.7,1.8-2.6,1.8-4.2,1.6c-3.6-0.5-6.9-2.1-10.6-2.2C0.1,183.7-0.4,183.5-0.9,183.2z"/>
			<path class="st43" d="M52.3,146.6c0,7,0,14,0,21c-0.9-0.9-0.7-2.1-0.7-3.2c0-8.4,0-16.9,0-25.3c0.2,0,0.5,0,0.7,0
				C52.9,141.6,52.9,144.1,52.3,146.6z"/>
			<path class="st43" d="M50.8,122c1.5,4.4,0.4,9,0.7,13.5C50,131,51.1,126.4,50.8,122z"/>
			<path class="st38" d="M17.8,207.1c-3,2-6.2,3.2-9.7,3.7C11,208.9,14.3,207.7,17.8,207.1z"/>
			<path class="st50" d="M90.6-9.5c1.5-0.9,3.1-0.8,4.7-0.8c28.1,0,56.1,0,84.2,0c1.6,0,3.3-0.2,4.7,0.9c0.9,0,1.7,0.4,2.2,1.1
				c2,3.1,4.6,5.7,7,8.4c0.6,0.7,1.4,1.5,0.4,2.6c-0.4,0.2-0.7,0.2-1.1,0.2c-2.1-0.8-3.9-2.3-6.1-2.7c-0.7-0.1-1.5-0.6-2.2-0.4
				c-7.2,2.3-13.9-0.9-20.7-2c-9-1.5-17.9-4.2-27.1-4.8c-10.7-0.7-20.8,1.9-30.8,5.1C102.9-1,100-0.1,97.2,1c-2,0.8-4.1,1.3-6-0.4
				c-1.4-1.2-2.2-0.3-3,0.8c-1,1.4-1.8,3.1-3.9,3c-1.9-1-0.9-2.4-0.6-3.8c0.7-3.3,3.5-5.5,4.5-8.7C89-8.6,89.8-9.1,90.6-9.5z"/>
			<path class="st51" d="M61.3,67.4c-1.3,0.8-1.2,3.5-3.4,2.8c-1.7-0.6-1.6-2.6-1.8-4.1c-0.3-2.3-0.5-4.6-0.8-6.9
				c-0.2-7,2-13.7,2.6-20.5c0.2-1.8,0.4-3.7,0.4-5.5c0.2-0.3,0.4-0.6,0.7-0.8c1.4,1.8,1.8,4.2,3.7,5.7c1.1,3.1-0.2,6.2-0.5,9.2
				c-0.5,5.4,0.3,10.8,0.1,16.2C62.3,64.7,62.6,66.3,61.3,67.4z"/>
			<path class="st52" d="M88.2-8.2c2.4,0.7,1.1,1.8,0.2,2.6C85.6-3,85,0.5,83.8,3.9c0.9,3.8-2.4,4.3-4.5,5.8
				c-0.9,0.5-1.8,1.1-2.6,1.7c-1.3,0.8-2.7,1.6-4.1,2.2c-1,0.4-2.1,0.7-2.9-0.4c-0.7-1,0.2-1.7,0.6-2.6c1.5-3.1,3.4-5.8,6.4-7.4
				C81.6,0.4,83.6-5.1,88.2-8.2z"/>
			<path class="st53" d="M70.3,10.6c-0.6,2-0.3,3.2,2.2,2.2c0.5,0.8,0.2,1.5-0.3,2c-2.9,2.6-3.7,6.3-5,9.8
				c-1.5,3.3-2.3,6.8-3.3,10.2c-0.3,1.1,0,2.6-1.8,2.7c-4.6,0.3-2.5-3.3-3.1-5.3c-0.2-3.1,0.7-5.8,2.4-8.4
				C64.4,19.4,67.3,15,70.3,10.6z"/>
			<path class="st54" d="M-11.4,18.8c-1.9,1.4-3.7,2.9-5.6,4.2c-0.6,0.4-1.3,0.9-2,0.3c-0.8-0.7-0.2-1.3,0.2-1.9
				C-15,15.5-10.3,10.2-5,5.4C-4.2,4.7-3.2,4.3-2.3,5c1.1,0.8,0.3,1.8-0.1,2.6C-3,9-4.7,9.7-4.7,11.4C-6.7,14-8.5,16.9-11.4,18.8z"
				/>
			<path class="st10" d="M88.3,172.8c-3.4-10.3-6.4-20.6-8.5-31.2c0.4-0.1,0.7-0.3,1.1-0.4c1,2.5,2.1,5,3,7.5
				c1.5,4.2,3,8.4,4.2,12.7c0.9,3.3,2.7,3,4.9,1.6c4.8-3,5.3-5.3,3.1-10.5c-3-7.2-6.6-14.1-11.1-20.5c-2.4-3.4-5.9-6.1-6.9-10.4
				c-0.1-0.6-1-1.4-1.6-1.4c-3.1-0.4-4.5-2.8-6.3-4.8c-1.3-0.6-1.7-1.5-1.1-2.9c0.8-0.8,1.8-0.5,2.7-0.5c2.6-0.2,4.7,0.8,6.9,2.2
				c6.1,4,12.8,7.2,19.1,10.9c4.6,2.7,9.2,5.5,13.8,8.1c6.5,5.1,6.5,5.1,0.8,11.3c-2.3,2.6-4.6,5.2-7,7.7c-2.1,2.3-1.7,3.2,1.4,3.8
				c1.5,0.3,3,0.5,4.3,1c0.3,0.2,0.6,0.4,0.8,0.7c-3.4,4.2-6.7,8.5-9.3,13.3c-1.2,2.1-5.1,2-7.9,1.6c-3.7-0.4-4-0.3-2.8,3.3
				c0.7,2,0.5,3.9,0.6,5.9c-2.2,0-2.1-1.9-2.6-3.3C89.5,176.6,90.1,174.3,88.3,172.8z"/>
			<path class="st55" d="M202.1,110.7c-0.2,0.5-0.4,0.9-0.6,1.4c-0.2,0.3-0.6,0.5-1,0.5c-7.6-0.1-15-1.8-22.6-2.4
				c-4.7-0.4-5.2-0.3-7.5,4.2c-3.2,6.4-6.6,12.8-9.9,19.2c-0.9,1.7-2,4.3-4.6,1.5c-1.7-8.2-2.5-16.5-3.4-24.9
				c-0.1-1.2-0.3-2.4-0.6-3.6c-0.3-1.2-0.4-2.5-0.3-3.7c0.4-5.4,5.2-11,10.4-12c2.7-0.5,4.6,1.9,7.1,2.1c1.7,0.2,3.4,0.3,5.2,0.2
				c4.2-0.4,7.9,0.9,11.4,3.4c2.8,2,5.9,4.1,9.8,3.4c3.4,1.4,3.5,5.2,5.4,7.7C201.4,108.5,201.4,109.8,202.1,110.7z"/>
			<path class="st56" d="M200.8,112.2c0.2,0,0.4-0.1,0.6-0.1c-0.5,1.3-0.9,2.6-1.4,3.9c-1.4,3.9-3.8,7.2-6,10.6
				c-5.6,8.7-10.6,17.7-16.4,26.3c-2.8,4.1-9.1,6-13.9,4.3c-2.5-5.8-4.8-11.7-6.6-17.8c-0.3-2.6,1.7-3.7,3.5-4.8
				c4.5-2.9,9-5.8,13.6-8.4c7.9-4.5,15.3-9.6,23.6-13.5C198.6,112.3,199.6,111.5,200.8,112.2z"/>
			<path class="st57" d="M163.9,157c7,0.2,11.9-2.3,15.6-8.8c6.2-11.1,12.8-22.1,20.5-32.2c-1.2,7.3-4.9,13.8-6.4,20.9
				c-2.1,10.1-5.4,19.8-8,29.8c-0.9,3.5-4.1,4.8-6.8,5.1c-7,0.8-10.2,6-13.3,10.8c-1.7,2.6-3.1,3.7-5.9,3.7c-0.7-0.9,0.1-1.4,0.6-2
				c0.7-0.6,1.6-0.9,2.3-1.6c-0.5-4.8-4.3-7.2-7.6-9.8c0.2-3,2.9-2.8,4.8-3.7c1.7-0.6,3.5-1.2,5.1-2.2c0.2,0.1,0.4,0.2,0.7,0.3
				c1.8,0.6,4,3.1,5.3,1.4c1.3-1.7-1.1-4-2.2-5.8c-2.4-3.7-6.5-4.7-10.5-5.6c0.4-0.6,1-0.9,1.6-1C161.2,155.8,162.7,155.9,163.9,157
				z"/>
			<path class="st58" d="M160.9,184.7c-0.6,0.4-1.2,0.8-1.3,1.6c-4.4,8.1-10.7,12-20.3,9.9c-3.5-0.7-7.4,0.2-11.1,0.5
				c-2.1,0.1-3.5-0.6-4.8-2.2c-2.1-2.6-4.5-5-6.7-7.4c-1.1-2.7,0.5-3.4,2.5-2.7c7.1,2.4,14.3,1.8,21.7,1.6c5.8-0.2,11.6,0.3,17.1-2
				C158.9,183.5,160.5,182.6,160.9,184.7z"/>
			<path class="st59" d="M69.6,112.2c-0.1,1.1,0.2,2.1,0.8,3c0.4,7.2,2.4,14.1,3.9,21.1c0.5,2.4,0.9,4.8,1.3,7.3
				c2.2,9.7,4.7,19.2,5.9,29.1c0.2,1.7,0.6,3.5-0.3,5.1c-0.7,1.2-1.6,2.9-3.3,0.9c-0.5-0.7-1-1.5-1.5-2.2c0.2-0.5,0.3,0.2,0.2-0.3
				c-0.3-4.8-0.3-9.8-2.1-14.3c-0.8-1.9-1.7-3.7-0.9-5.6c2-4.7,0.6-9.3-0.1-13.9c-0.3-1.8,0-4-1.7-5.6c-2.2-4.2-1.6-8.9-2.2-13.3
				c-0.4-2.8,0.8-5.7-0.8-8.3c-1.5-5.7-3-11.5-4.5-17.2c-0.1-3.6-2-7.1-0.8-10.8c0.7-0.9,1.8-1.2,2.7-1.8c2.2-1.5,4.6-0.3,4.1,2.2
				c-0.6,2.9,1,2.4,2.4,1.8c3-1.2,5.9-1.4,9-0.5c0.4,0.1,0.7,0.3,1,0.6c0.6,0.6,0.9,1.3,0.7,2.1c-0.7,1.3-1.9,1.3-3.2,1.4
				c-1.2,0.1-2.5,0-3.7,0c-5.8,0.2-7.1,1.8-6.2,7.5c0.2,0.7,0.3,1.5,0.3,2.2c0.2,1.8,1.3,3.4,0.8,5.3
				C70.5,109.4,70.7,111.1,69.6,112.2z"/>
			<path class="st60" d="M112.3,157.7c0,0-0.2,0-0.2,0l-0.2,0c-1.9-1.4-0.9-3.1-0.4-4.7c1.6-5.1,3.7-10,6.5-14.5
				c0.4-0.5,1-0.6,1.6-0.6c2.4,1.1,3.4,3.8,5.5,5.2c2.2,2.8,4.9,5.2,6.3,8.6c0.9,2.6,0.4,4.1-2.7,4.6c-2.5,0.4-4.9,0.1-7.4,0.3
				c-1.3,0.1-2.8-0.4-3.7,1.1C115.7,157.7,114,157.7,112.3,157.7z"/>
			<path class="st61" d="M160.2,169.7c-1.7,1.1-4.1,1-5.3,3c-2.2,0.2-4.5,0.5-6.7,0.7c-4.6-1.6-8.9-1.2-12.8,1.7
				c-7.7-1.2-15.2-2.8-22.3-6.2c-0.9-1.4,0.1-1.8,1.2-1.8c5.1,0,10-1.4,15.3,0.8c6.6,2.6,13.5,0.3,20.1-1.2c2.9-0.6,5.6,0,8.4,0.4
				C159.2,167.3,160.6,168,160.2,169.7z"/>
			<path class="st62" d="M77.8,178.7c2.9,0.8,3.2-1.8,2.8-3c-1.7-5.9-0.8-12.1-2.9-17.9c-1.6-4.4-1.5-9.4-2.1-14.2
				c1.5,2.3,1.8,5,2.5,7.6c2.6,10.2,5.4,20.5,8.8,30.5c0.2,3.4,0.6,6.8,1.9,10.1c0.4,1,0.8,2.4-0.4,2.9c-1.1,0.4-1.7-0.8-2.2-1.6
				C83.4,188.2,79.7,184,77.8,178.7z"/>
			<path class="st63" d="M174.5,94.3c-2,0-3.9,0-5.9,0c-1.1-1.6-2.9-2.2-4.5-2.9c-0.8-0.4-2.1-0.4-1.6-1.9c3.2-2.4,7-2,10.7-1.9
				c0.5,0,1.2,0.3,1.2,0.7c0.1,3.2,2.3,1.9,3.9,1.9c7.2-0.3,14.3-1.2,21.1-4c1.3-0.5,2.4-1.3,3.6-2c1.6-0.9,3.2-1.7,4.7,0.1
				c0.2,0.4,0.2,0.7-0.1,1.1c0.2,3.5-0.3,7-0.8,10.5c-0.2,0-0.5,0-0.7,0c-2.4-4-6.1-3.5-9.8-2.9c-5.9,1-11.6,2.8-17.7,1.1
				C177.3,93.7,175.8,93.6,174.5,94.3z"/>
			<path class="st64" d="M160.9,184.7c-1.1-1.1-2.2-0.5-3.4,0.1c-3.8,1.8-7.4,3.5-12,2.4c-3.3-0.7-6.8-0.2-10.3,0.3
				c-5.2,0.8-10.4,0.1-15.3-2c-1.7-0.7-3.2-1.3-3.2,1.5c-0.5-0.4-1-0.7-1.4-1.2c-0.5-0.6-1.6-1.1-1-2.1c0.4-0.8,1.3-0.5,2.1-0.4
				c3.1,0.2,6.2,0.6,9.3,0.7c12.3,0.3,24.6,0,36.9-1.4C162.4,183.6,162,184.4,160.9,184.7z"/>
			<path class="st65" d="M174.5,94.3c0.2-0.1,0.4-0.4,0.6-0.4c8.9,0.4,17.5-1.9,26.2-2.6c3.5-0.3,5.3,0.8,4.7,4.5
				c-0.7,1.7-0.3,3.7-1.5,5.3c-1.2-3.6-4-5.4-7.4-6.4c-0.8-0.2-1.7-0.8-2.4-0.1c-0.6,0.6-0.2,1.4,0,2.1c0.4,1.2,0.9,2.3,0.7,3.6
				c-0.8,1.6-2,1.4-3.5,0.9c-2.8-1.1-5.7-2.2-7.9-4.1C181.2,94.5,178,94.1,174.5,94.3z"/>
			<path class="st66" d="M160.2,169.7c-2.6-3.3-6.4-2.8-9.5-2.1c-6.5,1.6-13,3.3-19.7,2.1c-1.2-0.2-2.8-0.2-3.6-0.9
				c-4.2-3.7-8.8-0.5-13.2-1.2c-0.7-0.1-1,0.6-1.1,1.3c-0.6-0.2-1.3-0.5-1.2-1.2c0.1-1.3,1.3-0.8,2.1-1c8.1-1.7,16.2-1.4,24.3,0.2
				c1.4,0.3,2.7,0.2,4-0.1c7.5-2.1,15-0.3,22.5,0C163.7,168.6,162.2,169.5,160.2,169.7z"/>
			<path class="st67" d="M195.5,100.3c-1.1-1-1.4-2.3-1.8-3.6c-0.3-1.1-1.7-2.2-0.4-3.3c1.1-1,2.5-0.7,3.8,0c1,0.5,2,1.1,3,1.3
				c3.4,0.8,5,2.8,4.4,6.4c-0.8,3.2-2.4,6.2-2.5,9.6c-2.6-1.6-3.1-4.5-4.5-6.9C196.9,102.6,196.2,101.5,195.5,100.3z"/>
			<path class="st68" d="M117.5,157.8c0.4-1.7,1.8-1.4,3-1.4c1.7,0,3.4,0,5.2-0.1c4.9-0.2,5.1-0.5,4.6-5.1c0.1-0.1,0.3-0.2,0.4-0.3
				c2.2-0.1,4.1,0.8,6.2,1.3c3.3,0.9,6.1,0.6,8.5-2.1c0.4-0.5,0.9-0.8,1.6-0.6c1,2.2,0.7,4.7,1.3,7c-1.4,0.5-3-0.3-4.4,0.5
				c-7.2,1.6-14.4-1.2-21.6,0C120.6,157.3,119,157,117.5,157.8z"/>
			<path class="st69" d="M135.4,175.1c3.8-4.7,8.4-5.3,12.8-1.7C144,174.3,140,177.1,135.4,175.1z"/>
			<path class="st70" d="M88.3,172.8c0.3-1,0.8-1.9,1.4-0.3c0.7,1.8,1.1,3.8,1.5,5.7c0.3,1.3,0.5,2.7,1.6,3.6c0,0.1,0,0.3,0,0.4
				c-0.6,1.4,1.8,3.7-0.4,4.1c-1.5,0.3-2.1-2.4-2.5-4C89.2,179.1,88.8,175.9,88.3,172.8z"/>
			<path class="st56" d="M143.8,157.1c1.3-1.3,3-0.5,4.5-0.8c4-2.2,9-1.9,11.3,0.7c-0.5,0-1.1,0.1-1.6,0.1
				C153.2,157.1,148.5,157.1,143.8,157.1z"/>
			<path class="st71" d="M207.5,85.3c0-0.2,0-0.5,0-0.7c-1-1.6-2.5-1.2-4-1.2c-2.3,0.1-4.7,0.2-5.6-2.5c-0.8-2.4,0.8-3.8,2.4-5.3
				c3.8-3.4,4.9-7.9,4.1-12.8c-0.7-4.2-2.6-8-3.6-12.1c-0.6-2.9-2.6-5-5.1-6.6c-8-5.3-16.4-10-23.8-16c-3-2.4-6.8-2.2-10.3-2.7
				c-7-1-14.2-1.1-20.9-3.9c-1-0.4-2.2-0.7-3.3-0.5c-7.2,1.7-14.7,0.5-21.9,2.4c-0.5,0.1-1,0.3-1.5,0.2c-7-0.7-12.1,3.3-17.2,7
				c-2.7,1.9-5.5,3.5-8.3,5c-4.3,2.2-7.7,5.5-11.2,8.6c-2.6,2.2-3.5,5.4-4.3,8.5c-1,4-2.4,7.8-3.3,11.8c-0.8,3.4,0,4.4,3.4,4.6
				c4,0.2,8,0.4,12-0.3c2-0.4,4.3-1.6,5.8,0.7c1.6,2.3-0.7,3.8-1.8,5.6c1.9,1.4,4.2,1.2,6.1,1.8c0.7,0.2,1.5,0.5,1.5,1.4
				c0,0.8-0.6,1.5-1.3,1.6c-4.2,0.4-6.7,3.6-9.7,5.9c-1.9,1.5-3.8,1.9-6.3,1.1c-2.7-0.8-5.4-1.7-8.3-1.7c-1.5-0.1-2.9-1.2-4.6-0.4
				c-1.2,0.5-2.1-0.3-2.7-1.4c-0.6-6.4-0.7-12.8,0.1-19.2c0.5-3.9,0.5-8-0.2-11.9c-1.3-6.7,0.2-13,1.8-19.3c0.7-2.6,1.7-5.2,1.9-7.9
				c0.5-6.4,4-11,9.1-14.5c0.7-0.5,1.5-1.1,2.2-1.6c11.1-5.5,23-9.1,34.8-12.9c13.3-4.3,26.6-3.9,40.1-0.6
				C167-1.2,180.2,3.3,193,8.8c2.9,2.2,6.5,2.8,9.5,4.8c1.6,1.3,3.5,2.3,5.2,3.6c1,0.8,2.5,1.3,2.1,3.1c-0.2,2.4-0.8,4.8,1.4,6.8
				c0.8,0.7,0.9,2,0.8,3.2c-0.5,5.3-0.2,10.8-4.1,15.2c-0.8,0.9-0.5,1.9,0.6,2.5c1.1,0.7,2.2,1.1,3.4,0c0.7-0.7,0.7-2.6,2.3-1.7
				c1.5,0.8,2.4,2.1,2.3,4c-0.1,2.7-0.8,5.1-2.5,7.3c-2.7,3.6-3.1,7.6-2.2,11.9c0.9,4.8-0.9,9.5-1,14.2
				C210.8,85.4,208.9,85.4,207.5,85.3z"/>
			<path class="st72" d="M210.5,219.8c-1,1-2,2-3,3c1.9-4.9-0.1-9.8,0-14.7c0-0.7-0.3-1.1-1.1-1.1c-4.9,0.2-3.5-3.3-2.9-5.6
				c0.5-2.2,2.4-5.3,0.2-6.3c-1.8-0.8-3.1,2.7-4.4,4.6c-1.5,2.1-1.5,4.8-3,6.8c-0.9,1.2-1.6,3.2-3.7,1.5c3.6-6.9,7.7-13.5,10-21.1
				c1.4-4.7,2-9.4,3.2-14.1c1.9-7.4,5.6-14.3,6.8-21.9c1.1-6.4,2.2-12.9,4-19.1c1.4,1.1,1.3,2.7,1.1,4.1c-1,6.1-0.5,12.3-1.8,18.4
				c-0.4,2.1-1.7,4.8,1.7,6.3c1.3,0.6,0.8,2.7,0.8,4.2c-1.7,4.4-3.1,8.9-5.2,13.1c-0.6,1.1-1.3,2.2-0.1,3.4c2.3,2.4,1.8,5.2,1.5,8.1
				c-0.4,4.3-1.5,8.5-0.3,12.9c0.6,2.2-1.3,3.9-1.8,6.1c2.4-0.5,3.6,0.1,2.7,2.8c-0.5,1.2-1,2.5-1.5,3.7
				C212.2,216.2,211,217.9,210.5,219.8z"/>
			<path class="st4" d="M185,220.6c-1.2,3.2-3.7,5.5-6,7.9c-3.4,3.6-7.4,6.7-10.3,10.8c-0.6,0.8-1.4,1.5-2.5,1.4
				c-2.8-0.4-4.5,1.5-5.8,3.4c-2.5,3.5-6.1,6.2-8.2,10.1c-0.9,1.7-2.6,3.1-4.3,0.6c-1.8-2.6-2.7-1.7-3.6,0.5
				c-0.3,0.7-0.8,1.2-1.3,1.8c0-4.4,2.5-8,3.9-12c2-5.6,4.4-11,8.8-15.2c0.9-0.9,1.7-2.1,3.3-2.6c0.3,4.8-2.8,8.4-3.7,12.7
				c4.6-3.2,7.1-8.2,10.6-12.2c3-3.6,5.9-7.4,10.4-9.3c2.1-0.9,4.6-2.7,6,1.2C182.7,220.9,184,220.5,185,220.6z"/>
			<path class="st73" d="M221.7,35.3c0.8,3.2,1.5,6.5,2.3,9.7c1.4,10.8,0.9,21.7,1.3,32.6c0.3,8.7,0.1,17.6-2.5,26.1
				c-0.3,1-0.2,2.2-0.3,3.3c-0.2,0-0.5,0-0.7,0c-2,1.8-1.5,4.2-2,6.4c-0.5,2.4,0.5,5.5-2.5,7c-1.3-8.6,1.5-16.8,3.2-24.9
				c1.4-6.8,0.1-13.3-0.5-19.8c-0.4-5.5-1.9-11,0.2-16.4c1.6-4.1-1.2-8,0-12.2c1.9-6.4-1.4-12-3.7-17.7c0.4-0.7,0.9-1,1.7-1
				c1.8,0.4,1.2,2.3,2,3.3C220.5,32.9,220.8,34.2,221.7,35.3z"/>
			<path class="st74" d="M217.2,120.5c1.1-2.4,1.5-4.9,1.4-7.4c-0.1-2.5,1-4.5,1.6-6.7c0.1-0.5,0.2-1.2,0.8-0.9
				c0.4,0.2,0.5,1,0.8,1.5c0,9.2,0,18.4,0.1,27.7c-0.8,8.5-1.6,16.9-2.3,25.4c-0.9,1.4,0.1,3.1-0.6,4.6c-0.6,0.3-1.1,0.4-1.6-0.1
				c0-1.2,0-2.5,0-3.6c-1.4-0.6-1.7,1.1-3.3,0.7c0.6-10,2.3-19.9,2.5-30C216.3,127.9,216.6,124.2,217.2,120.5z"/>
			<path class="st71" d="M177.1,204.1c-1,0-1.8,0.2-2.2-0.7c-0.5-1,0.2-1.6,0.9-2.1c4.9-3,7.6-7.5,8.5-13.1c0.2-0.9,0.6-1.9,1.4-2.1
				c3-0.5,5.2-2,7-4.3c0.3-0.5,1.1-0.5,1.6,0.1c1.8,1.7,1.3,5.9-0.3,7.8c-2.9,3.5-7.4,5.8-8.7,10.7
				C184.1,204.9,179.6,202.6,177.1,204.1z"/>
			<path class="st71" d="M161,218.2c0.6-7.8,4.9-12,12.5-14.1c-1.3,3.6-1.4,6.8-0.5,10.2c0.6,2.3-1,3.8-2.8,4.8
				c-1.6,0.9-1.4,4.7-4,3.3c-2.2-1.1-0.1-3.3,0.1-5c0.1-1.1-0.1-2-1.2-2.4c-1.1-0.4-1.5,0.4-1.8,1.3
				C162.8,217.1,162.1,217.8,161,218.2z"/>
			<path class="st71" d="M209,106.8c-0.3,3.6-0.7,7.1,3.9,8.5c1.2,0.4,1.5,1.9,1.1,3.2c-0.2,1-0.5,1.9-0.5,2.9
				c-0.3,5-0.3,4.8-5.2,4.8c-2.5,0-3.2-1.4-3-3.2C206,117.4,205.8,111.8,209,106.8z"/>
			<path class="st71" d="M197.4,175.8c-0.6,0-0.9,0.1-1.3,0c-1.4-0.2-2.9,2.2-4,0.4c-1.2-2,1.6-2.3,2.4-3.5c1.2-1.9,3.4-3.1,3.4-5.8
				c0-1.4,1.7-1.7,3-1.2c1.3,0.5,1.5,1.6,0.7,2.7c-1,1.5-1.5,2.8-1.2,4.8C200.7,174.6,200.4,177.3,197.4,175.8z"/>
			<path class="st71" d="M200,155.9c0.4-1.6,0.7-3.3,0.2-5.2c-0.2-1,0.4-2.5,1.5-2.6c1.5-0.1,1.9,1.3,2,2.6c0.1,1.7-0.2,3.5,0.4,5.2
				c0.6,1.4,0.3,2.7-1,3.7c-0.6,0.5-1.3,0.8-2.1,0.4C199.6,158.9,200.1,157.4,200,155.9z"/>
			<path class="st75" d="M218,28.5c-0.5,0.3-1,0.5-1.5,0.8c-2.6-2.8-3.2-6.9-6.7-9c-2-2.6-5.4-3.5-7.6-5.9c0.6-0.9,1.7-0.9,2.6-1.2
				c1.6,0.2,2.9,0.9,3.5,2.6c3.2,2.1,5.3,5.2,7.5,8.2C217,25.3,218.8,26.3,218,28.5z"/>
			<path class="st71" d="M209.3,144c-0.2-3.8-1.6-5.8-4.5-6.3c-2.7-0.5-1.3-1.9-0.4-2.8c2.4-2.2,5.9-0.8,6.7,2.7
				C211.6,139.6,210.7,141.3,209.3,144z"/>
			<path class="st71" d="M209.6,98.3c-0.8-2.3-2.2-3.8-0.6-5.6c0.4-0.5,1.2-0.5,1.6,0.1C211.8,94.6,211.2,96.2,209.6,98.3z"/>
			<path class="st39" d="M217.2,164.5c0.5,0,1,0,1.5,0c0.9,0.8-0.1,2.1,0.8,3c0.3,1.2,0.5,2.5,0.8,3.7c0.4,5.5,3.2,10.7,1.9,16.5
				c-0.5,2.1,1.2,2,2.5,2.2c11.4,2.2,22.2,6.4,33,10.4c-5.6-0.5-10.5-3-15.7-4.6c-5.1-1.6-10.2-3.3-15.4-4.6
				c-4.7-1.1-6.2-0.2-7.1,4.8c-0.5,2-1,4-1.5,5.9c-1.1,2.4-1.2,4.9-1.5,7.5c-0.3,0.5-0.5,1-0.8,1.5c-0.2,0-0.5,0-0.7,0
				c-0.4-3.8-2-2.3-3.6-0.4c-0.2-2.5-0.5-4.4,1.3-6c0.4-0.4,0.8-1.2,0.6-1.6c-2.5-5.7,0.3-11.4,0.2-17.1c0-1.7,0.2-3.5-2.1-4.2
				c-1.2-0.4-1.7-1.5-0.7-2.7C214.3,174.8,214.6,169.1,217.2,164.5z"/>
			<path class="st72" d="M219.5,167.5c-1-0.8-0.7-2-0.8-3c0.2-1.5-0.5-3.2,0.8-4.5C219.5,162.6,219.5,165,219.5,167.5z"/>
			<path class="st35" d="M71.8,136.9c2.4,1.5,1.9,4.3,2.3,6.3c0.8,4.5,3.4,9.1,0.2,13.8c-0.8,1.2-0.9,3.6,1,4.2c2.8,0.8,2.4,2,1.5,4
				c-1.3,2.8,0.3,5.3,1.1,7.8c0.6,1.8,1.4,3.5-1.6,3.5c-0.5-1.7-1-3.5-1.5-5.2c-2.6-1.1-1.5-4.7-4.4-6.3c-1.4,6.9,1.6,12.9,2.5,19.1
				c0.1,0.5,0.4,1.1,0.5,1.6c1.4,8.4,3.9,16.6,5.4,25c0.2,0.9,0.1,1.7,0.1,2.6c-0.2,3.2-1.5,3.8-4.5,2.5c-1-0.5-1.7-2-3.3-1.2
				c0,0,0,0,0,0c-0.7-1-1.5-2-2.2-3c-1.3-2.2-2-4.7-3.8-6.6c-0.2-0.3-0.4-0.6-0.6-0.9c1.2-1.3,0.1-2.3-0.3-3.4
				c-1.8-4.8-3.6-9.5-3.5-14.7c0-1.9,0-3.6,2.5-1.2c1.4,1.3,2.2,0.1,1.9-1.2c-0.5-2.4-0.4-4.9-1.5-7.2c-2.5-5.5-2.1-7.2,2.8-10.7
				c1.1-0.8,1.3-2.1,1.6-3.3c1-3.5,0.9-3.5,4.2-1.9C72.4,152.6,74.5,144.7,71.8,136.9z"/>
			<path class="st76" d="M208.2,15.8c-1.3-0.7-2.5-1.4-3.8-2.1c-2.2,0.6-2.8-1.6-4.2-2.4c-0.4-0.4-0.7-0.8-0.9-1.2
				c-0.7-3.3-4.4-4.6-5.2-7.8c-3.7-3.6-6.9-7.6-9.9-11.8c1.1-1.2,2.5-0.9,3.8-0.9c9.8,0,19.5,0,29.3,0c0.2,5,0,9.8-2.1,14.5
				c-0.8,1.9-1,4-0.9,6.2C214.3,16.7,214.2,16.8,208.2,15.8z"/>
			<path class="st76" d="M237.5-10.3c3.5,0,7,0,10.5,0c0.2,3.8,3.5,5.3,5.8,7.4c2.2,2,1.9,3.3,0.1,5.1c-7.2,6.9-14.2,13.9-21.6,20.6
				c-2.2,2-4.7,3.6-6.5,5.9c-0.4,0.5-1.1,1.4-1.8,0.9c-1-0.6-0.3-1.5,0-2.3c2.4-6.1,4.9-12.2,7.4-18.3c0.5-1.3,1.1-2.5,1.1-3.9
				c-0.1-1.8,0.9-2.5,2.7-2.8c3.2-0.5,4.2-2.5,3.5-5.7C238-5.6,237.2-7.9,237.5-10.3z"/>
			<path class="st19" d="M220.2,23.3c0.1-3.7,0.2-7.3-2.2-10.6c-1.7-2.3-0.1-4.6,0.5-6.5c3.5,3.9,3.4,8.7,3.2,13.6
				C221.7,21.2,221.7,22.6,220.2,23.3L220.2,23.3z"/>
			<path class="st19" d="M218,28.5c-0.8-1.5-1.5-3-2.3-4.5c1.6,0,3.1,0.1,4.5-0.8c0,0,0,0,0,0c0,2.7,0,5.5,0,8.2
				C219.5,30.5,218.7,29.5,218,28.5z"/>
			<path class="st42" d="M72.5,185.5c0-0.5,0-1,0-1.5c-0.4-0.5-0.4-1,0-1.5c2.9,4.5,4,9.8,6.2,14.6c2.1,4.5,4.1,9.2,5.8,13.8
				c2.2,6,6.3,11.6,5.3,18.5c-0.2,1.5-0.4,3-1.2,4.2c-0.7,1.1-2.7,1.1-2,3.4c0.6,2.3,1.3,4.3,3.3,5.6c2.7,1.8,5.5,3.3,8.3,5
				c1.1,0.6,2.3,0.9,2.9,2.2c1.3,3.2,4.9,4,7,6.5c0.8,1,2.5,1.4,2,3.2c-3,0.7-5.5,0.6-8.3-1.5c-1.7-1.3-4.3,0.4-6,2.2
				c-0.8-1-1.5-2-2.3-3c2.2-4.7-1.5-7.3-3.7-10.5c-1.8-2.6-4.3-4.7-4.5-8.2c-0.9-2.3-1.9-4.4-3.3-6.6c-2.2-3.4-3.7-7.1-2.6-11.5
				c0.7-2.9-0.6-6.1-1-9.1C77.1,202.6,75.1,194,72.5,185.5z"/>
			<path class="st62" d="M72.5,182.5c0,0.5,0,1,0,1.5c-2-5.8-4.2-11.6-3.7-17.9c0.1-1.1,0-2.4,1.4-2.8c1.5-0.5,1.7,1.1,2.4,1.8
				c1.5,1.8,1,4.3,2.3,6.1c-1.4-0.2-3.8-0.6-2.6,1.6C73.9,176.2,72.1,179.3,72.5,182.5z"/>
			<path class="st77" d="M110,259.5c-2.4-2.1-4.8-4.1-7.2-6.3c-1-0.9-2.8-1.5-1.8-3.5c3,2.7,6.8,4.5,10,7c2.2,1.7,3.7,3.9,5.7,6.3
				C113.5,262.9,112.1,260.6,110,259.5z"/>
			<path class="st3" d="M12.4,104.1c0.5,3.5-1,4.8-3.2,5c-6,0.5-11.6,2.4-17.5,3.7c-1.4,0.3-3.3,0.9-4.2-0.5c-1.1-1.7,1-2.6,1.9-3.5
				C-4.9,103,1.2,97.7,6.6,91.7c2.5-2.8,3.4-2.4,4.6,1.2C12.6,96.9,10.9,101.2,12.4,104.1z"/>
			<path class="st78" d="M252.5,177.3c1.6,0,3.2,0,4.9,0c1.4,0,2.9,0,3.2,1.8c0.3,1.8-0.8,2.8-2.3,3.3c-2.8,1-5.6,2.2-8.5,2.7
				c-2.9,0.5-5.8,1.3-8.6,2.2c-2.6,0.8-7.4-1.4-8.7-3.8c-1.4-2.5,0.7-3.1,2.2-3.7C240.4,177.7,246.5,177.4,252.5,177.3z"/>
			<path class="st79" d="M257.4,115.3c3.9,0,7-0.1,10.1,0c1.4,0.1,3,0.5,3.3,1.9c0.4,1.6-1.4,1.9-2.4,2.3
				c-5.8,2.3-11.6,4.6-17.4,6.7c-3.2,1.1-6.4,0.2-9.4-1.2c-3.4-1.6-6.8-3.2-10.1-4.8c-0.8-0.4-1.7-0.8-1.6-1.8c0.1-1,1.2-1.3,2-1.5
				c2.1-0.4,4.2-1.1,6.2-1C244.8,116.3,251.4,114.5,257.4,115.3z"/>
			<path class="st80" d="M267.4,42.7c2.1,0.1,4.4-0.2,6.8,0.6c2.1,0.7,2.5,1.8,0.8,3.1c-5,3.6-10.7,5.9-16.6,7.5
				c-2.3,0.6-7.2-3.2-7.3-5.4c-0.1-3.5,2.7-4.1,5.3-4.6c3.2-0.5,6.3-1.4,9.6-1.1C266.4,42.8,266.8,42.7,267.4,42.7z"/>
			<path class="st62" d="M72.5,185.5c2.2,4.2,3.5,8.7,4.5,13.2c1.5,6.7,1.8,13.7,4.1,20.3c0.2,0.6,0.5,1.4,0.2,1.8
				c-2.7,4.1-0.2,7.6,1.5,10.9c1.1,2.2,2.3,4.3,2.5,6.9c-5-6.4-7.3-14.4-12-21c-0.7-1-1.5-2-2.2-3c0-1.4,0.1-2.8,2-1.3
				c0.6,0.5,1,1.1,1.7,1.5c0.7,0.4,1.7,0.8,2.4,0.6c1.1-0.3,0.6-1.4,0.6-2.2c0.3-5-1.5-9.7-2.7-14.4C74,194.4,73.5,189.9,72.5,185.5
				z"/>
			<path class="st62" d="M89.8,246.7c1,0.9,2.1,1.7,3,2.6c4,3.9,4,3.9,0.7,7.8c-1.3-1.1-2.6-2.2-3.8-3.5c-1.1-1.2-2.6-2.2,0.3-3.4
				C92.6,249.3,89.1,248,89.8,246.7z"/>
			<path class="st81" d="M64.3,86.8c-1.7,3.7,0.7,7.5,0,11.2c-1.6-5.6-3.3-11.2-3-17.2c0.4-4.5-1.1-9,0-13.5c0-10-0.8-19.9,0.8-29.9
				c1-3.4,2-6.8,2.9-10.2c0.3-1.2,0.5-2.4,1.5-3.3c1.4,1.6,0.7,3.3,0.1,4.9c-1.4,3.7-1.7,7.7-2.9,11.5c-1,3.1-0.9,6.4-0.5,9.6
				c1.2,10.2,0.1,20.5,0.7,30.8c0.1,1.2-0.4,2.5,0.5,3.6C64.9,85.2,65,86,64.3,86.8z"/>
			<path class="st44" d="M52.3,146.6c0-2.5,0-5,0-7.5c0.2-1,1.3-1.2,1.1-0.3C52.8,141.4,53.8,144.2,52.3,146.6z"/>
			<path class="st82" d="M200,9.9c0.2,0.3,0.5,0.5,0.7,0.8c0.8,2.1-0.7,2-1.9,1.7c-2-0.5-3.7-1.7-5.6-2.4c-3.9-0.6-7.2-2.8-10.8-4.2
				C170,0.9,157.2-2.8,144-5.2c-10-1.8-19.8-0.4-29.6,2.2C104.8-0.4,96,4.5,86.1,6.3c-2.7,0.5-4.6,3-7.6,2.8
				c1.9-1.6,4.8-2.2,5.3-5.2c1.7-0.2,2.4-1.4,3.1-2.8c1.7-3.5,2.7-3.5,5.4-0.9c1.5,1.5,3.1,0.2,4.5-0.3c5.9-2.1,11.7-4,17.7-5.6
				c12.8-3.5,25.5-2.9,38.3,0c8,1.8,16,4,24.2,4.5c1.1,0.1,2.1,0.7,3.2,1c0.4,0.1,0.9,0.3,1.3,0.4c1.2-4,3.5-1.1,5.5-1
				c2.7,0,4.2,1.9,6.1,3.3C195.9,4.5,198,7.1,200,9.9z"/>
			<path class="st83" d="M200,9.9c-2.9-1.9-4.9-4.6-6.8-7.5c0.3,0,0.6,0,0.8,0C196.6,4.5,199.3,6.3,200,9.9z"/>
			<path class="st84" d="M64.3,84.6c-0.7-0.7-0.7-1.5-0.7-2.4c0.2-7.7-0.8-15.4-0.9-23.1c-0.1-6.2-1.2-12.3,0.2-18.5
				c0.9-4.1,1.9-8.2,3-12.3c0.4-1.4,1-2.8,0.8-4.4c0.6-4.5,3-8,5.9-11.2c1.3-0.7,2.6-1.4,3.9-2.1c-0.3,0.5-0.4,1.3-0.8,1.6
				c-4.6,2.8-6.6,6.9-7.2,12.3c-0.6,5.6-2.4,11-4,16.4c-1.3,4.5,0.5,9,0.6,13.5c0.2,9.8-1.3,19.5-0.7,29.3c0.2,0.2,0.3,0.4,0.2,0.5
				C64.5,84.5,64.4,84.6,64.3,84.6z"/>
			<path class="st85" d="M119.7,138.5c-0.5,0-0.9,0-1.4,0c-2.3-1.5-4.4-3.3-6.8-4.6c-5.1-2.8-10.3-5.4-15.3-8.5
				c-5.3-3.3-10.7-6.2-16.2-9.1c-2.6-1.4-4.7-4.3-8.3-3.3c-0.5-0.6-0.4-1.2,0.1-1.7c9.3-0.6,18.4-2.6,27.7-3.2
				c4.5-0.1,6.2,3.2,7.8,6.4c2.7,5.9,6.1,11.4,9.2,17c1,1.1,1,3.1,2.9,3.4c3-3.6,6.1-7.1,9.4-10.4c1.2-1.2,2.4-3.2,4.2-2.4
				c2,0.9,1.1,3.3,1.2,5c0,0.9-0.1,1.7-0.7,2.4c-3.2,1.2-5.7,3.2-7.8,5.9C124.3,137.3,122,138.1,119.7,138.5z"/>
			<path class="st56" d="M111.5,133.9c2.8,0.7,5.1,2.2,6.8,4.6c-0.7,4.3-3.9,7.6-4.8,11.8c-0.6,2.5-2.3,4.7-1.8,7.4
				c-1.9-0.2-3.9-0.4-5.8-0.7c-3.7-0.6-4.2-2-1.8-4.8c3.1-3.5,6.3-6.9,9.6-10.3c3.4-3.5,3.5-3.5-0.6-6.4
				C112.5,135,112,134.4,111.5,133.9z"/>
			<path class="st4" d="M71.9,111.4c0,0.5,0,1.1-0.1,1.6c-0.7-0.2-1.5-0.5-2.2-0.7c0.8-1.1-1.8-3.5,1.4-3.7
				C72.4,109.1,72.8,110.1,71.9,111.4z"/>
			<path class="st86" d="M200.8,112.2c-9.3,4.8-18.3,10.2-27.2,15.6c-4.5,2.7-9,5.6-13.6,8.2c-1.4,0.8-2,1.6-2,3.1
				c-0.9,0.3-1.4-0.1-1.9-0.7c-0.4-0.9-0.5-1.8,0-2.7c0.1-0.1,0.3-0.2,0.4-0.4c2.4,1.2,2.4-1.1,2.9-2.2c3.9-7.4,7.7-14.8,11.5-22.2
				c0.7-1.4,1.5-2.7,3.3-2.4C183.1,109.8,192.1,110.2,200.8,112.2z"/>
			<path class="st87" d="M152.8,106.2c1.8,6.5,1.8,13.3,2.9,20c0.5,3,1.2,6.1,0.9,9.2c0,0-0.1,0.1-0.1,0.1c-3.5,0.4-5.2-2.4-7.3-4.3
				c-1.2-1-1.7-2.8-3.7-3.4c-1,2.5-0.2,5.2-0.7,7.6c-0.3,1.1-0.2,3.5-2.5,1.4c-0.5-12.6-1.7-25.2-1-37.9c0-0.2,0.1-0.5,0.2-0.7
				c1.2-2,1.9-0.9,2.4,0.5c0.6,1.7,0.4,3.4,0.3,5.2c-0.1,2.3,0.3,4,3.2,3.8c0.4,0,0.8,0,1.1,0.2
				C150.8,109.7,151.7,107.8,152.8,106.2z"/>
			<path class="st88" d="M152.8,106.2c0,0.9,0,1.7,0,2.6c0,0.9-0.1,1.8-1,2.2c-1.1,0.5-1.6-0.4-2-1.2c-0.7-1.3-2-1.7-3.2-1.3
				c-3.8,1.5-3.3-1-3.5-3.3c-0.2-2.7,0.9-5.5-0.8-8c-2.7-4-2.2-8.4-1.5-12.8c0.2-0.4,0.4-0.7,0.8-0.9c1.6-0.1,1.6,1.3,2,2.3
				c0.6,1.5,1.7,2.7,3,3.8c2,1.6,2.8-0.6,4-1.3c0.8-0.4,1.1,0.1,1.5,0.6c0.7,3.2,1.2,6.3,0.5,9.6c-0.3,1.3-0.4,2.7,0.2,4
				C152.7,103.8,152.8,105,152.8,106.2z"/>
			<path class="st89" d="M152.7,102.6c-1.2-4.7-1.5-9.4-1.4-14.2c3.1-3,7.5-2.4,11.2,1.5c1.8,1.7,5.6,0.9,6.1,4.4
				c-2.2-0.7-4.3-3.2-6.4-2.4c-2.9,1.1-5.4,3.4-8,5.2C152.2,98.5,152.9,100.7,152.7,102.6z"/>
			<path class="st90" d="M156.5,138.4c0.5,0.3,1,0.5,1.5,0.8c1.7,4.4,3.4,8.8,5.1,13.2c0.6,1.5,1.3,3,0.9,4.7c-1.5,0-2.9,0-4.4,0
				c-3.7-1.4-7.5-0.4-11.3-0.7c-4.1-1.4-1-4.5-1.6-6.7c-0.4-0.7-0.1-1.3,0.3-2c1.1-1.9,3.1-3.1,4.1-5c0.4-0.7,1-1.4,1.6-1.9
				C154.1,140,154.9,138.6,156.5,138.4z"/>
			<path class="st4" d="M162.5,89.8c-3.6-1.2-7.1-3.7-11.2-1.5c-1.3,1.2-1.5,4.6-4,3.3c-2.9-1.5-5.7-3.8-5-7.8
				c-1.2-1.4-0.5-2.6,0.4-3.6c5-6,10.1-11.8,15.6-17.2c1.3-1.2,2.9-1.9,4.6-2.4c1.4-0.3,2.8-0.3,4.2,0c1.7,0.7,3.6,0.4,5.4,0.7
				c7.7,1.4,15.4,2.2,23.1,3.6c0.5,0.1-0.1,0,0.4,0.1c7.4,1.8,7.3,1.7,6-5.5c-1.4-7.3-5.3-12.3-11.5-16.2
				c-6.8-4.2-13.4-8.6-19.7-13.6c-0.3-0.1-0.7-0.3-1-0.4c-2-0.9-4.1-0.1-6.1-0.7c-6.2-0.6-12.4-0.5-18.5-1.9c-0.6-0.1-1.3,0-1.8-0.3
				c-3.8-2.2-7.4-2-11.6-0.3c-3.6,1.4-8.1,0.3-12.2,0.5c-4,0.2-7.9,1.1-11.9,0.9c-0.9,0-1.7,0.4-2.5,0.8c-0.4,0.4-0.9,0.7-1.3,1
				c-7.1,4.5-14,9.6-21.1,14c-5.2,3.2-7.7,7.9-9.5,13.3c-0.5,1.5-0.9,3.1-1.3,4.7c-1.3,4.9-0.7,5.6,4.3,4.3c6.2-1.3,12.6-1.3,18.8-3
				c4-1,8.2-1.4,12.3-1.7c8.1-1.4,13,3.4,17.5,8.9c1.9,2.4,4.2,4.6,6,7.1c0.8,1.2,1.7,2.4,1.6,4.1c-1.4,3.3-4.4,5.2-6.8,7.6
				c-1.3,0.9-2.6,0.7-3.9,0.1c-1.3-0.6-2.5-1.2-3.9-0.6c-0.3,0.1-0.7,0.1-1,0.1c-4.2-1.2-8.4-2-12.8-2.1c-3.9-0.1-5.6,0.6-7,4.2
				c-0.9,2.3-2.7,1.7-4.3,1.9c-0.8,0-1.5-0.1-2.3-0.2c-2.6-0.9-5.6-0.8-8-2.3c-0.2,0-0.5,0-0.7,0c-2.1-1.1-4.3-1.5-6.7-1.2
				c-3.1,0.3-4.1-0.9-3.8-4c3-1,5.6,0.9,8.4,1.4c2,0.4,3.5,0.9,5-0.8c0.6-0.7,1.8-1,2.4-1.8c2.4-2.9,5.2-4.8,9-5.1
				c-2.3-0.5-4.7-0.8-7-1.4c-0.9-0.2-2.1-0.6-2.3-1.6c-0.3-1.3,1.1-1.5,1.9-1.8c1.5-0.6,2.3-1.7,1.8-3.2c-0.6-1.8-2.1-1.2-3.5-0.7
				c-5.1,1.7-10.4,0.8-15.6,0.7c-2.9,0-3.5-2.7-3-5c1.5-6,3.1-12,5.2-17.9c1.8-5,6.5-8,10.7-10.6c7-4.3,13.9-8.7,20.8-13.1
				c0.7-0.5,1.6-1.1,2.4-1c5.3,0.5,10.3-1.7,15.5-1.6c4.5,0.1,8.9-0.3,13.3-1.3c1.2-0.3,2.5-0.4,3.7,0.1c8.8,3.7,18.2,3.6,27.4,4.9
				c3.5,0.5,5.6,3.1,8.2,4.8c6.9,4.6,13.9,9.1,21,13.5c2.4,1.5,4.3,3.3,5.2,6.1c1.4,4.6,2.8,9.2,4.1,13.9c1.2,4.2-1.6,11.4-5.5,13.9
				c-1.4,0.9-1.8,2-1.6,3.4c0.3,1.8,1.7,1.9,3.2,1.9c2.2,0.1,4.5-0.3,5.7,2.3c-0.9-0.4-2-1.2-2.8-0.4c-3.1,3.6-7.9,3.2-11.7,5.2
				c-4.4,2.3-9.5,1-14.3,1.7c-2.4,0.3-5,1.5-7.6,0.5c0.5-1.6,2.4-1.1,3-3C170.1,88,166.3,89,162.5,89.8z"/>
			<path class="st91" d="M71.9,111.4c-0.3-1-0.6-1.9-0.9-2.9c-0.4-1.7-0.9-3.5-1.3-5.2c1.3-2.2,3-4,5.2-5.3c1.7-1,3.4-1.6,5.1,0.1
				c1.2,1.2,2.5,0.8,3.8,0.2c5.4-2.9,11.3-2.7,17.1-3.3c2.3-0.2,4.4,0.8,5.5,3.1c0.5,3.1-0.8,5.8-1.6,8.6c-0.7,2.4-2.8,1.9-4.5,2.4
				c-7.1,0.9-14.2,1.9-21.3,2.8C76.6,112.2,74.1,113.3,71.9,111.4z"/>
			<path class="st92" d="M90.5,91.3c0.7,0,1.5,0,2.2,0c6-0.4,12.3,1.3,18-2c2.1-1.2,4.6-0.9,6.8-1.7l0,0c4.4-0.4,6.9,1.8,6.9,6.1
				c-0.7,2.1-0.5,4.3-0.6,6.5c0,1.4,0.2,3-1.3,3.9c-1,0-1.2-0.8-1.4-1.4c-2.2-5.8-6.2-8.2-12.4-7.4c-1.6,0.2-3.2,0.1-4.9,0.2
				c-8.4-0.4-16.8-0.6-25.2-0.8c-2.4-0.1-4,1.7-5.6,3.3c-1.1,1.1-1.8,2.7-3.5,3.1c-2.5-6.7,0.9-9.7,5.9-9.1c2.4,0.3,5.1,0.9,7.6-0.6
				C85.5,89.8,88,91.1,90.5,91.3z"/>
			<path class="st93" d="M69.6,101c0.9-1.8,1.8-3.6,3.3-4.9c2.4-2.2,5-3,8.6-2.8c7.5,0.3,15,0.9,22.6,1c1.4,0.4,3.4,0.4,2.9,2.8
				c-0.2,0.6-0.6,1-1.3,0.9c-4-4-8.7-1.2-13-1.2c-3.4,0-6.8,1.4-9.8,3.2c-1,0.6-2.6,1.5-3.1-0.2c-1.1-3.5-2.9-1.6-4.4-0.8
				c-2.1,1.1-3,3.7-5.5,4.3C69.6,102.5,69.6,101.8,69.6,101z"/>
			<path class="st94" d="M71,84.6c0.1,2.5,1.5,3.2,3.9,3c2.4-0.2,4.9-0.1,6.6,2.2c-3.2-0.6-6.3-0.6-9.2,1.2
				c-1.5,0.9-2.8-0.8-4.2-0.4c-0.4-1.3,0.6-1.7,1.1-2.3c1-1,0.6-1.8-0.4-2.4c-1-0.7-1.9-0.7-2.3,0.6c-0.5,1.9-1.4,1.1-2.3,0.3
				c0-0.7,0-1.5,0-2.2c0-0.3,0-0.5,0-0.8C66.5,84.9,68.9,83.2,71,84.6z"/>
			<path class="st94" d="M90.5,91.3c-2.5,0-5,0-7.5,0c-0.3-0.5-0.5-1-0.8-1.5C85.1,89.8,87.9,90.1,90.5,91.3z"/>
			<path class="st56" d="M156.5,138.4c-0.8,1.2-1.7,2.3-3,2.9c-3.8,0.4-7.4-0.1-11.1-1.4c-3.2-1.1-6.9-1-10,1.3
				c-1.9,1.3-3.9,1.5-6,0.8c-2.3-0.7-0.6,1.2-1.2,1.7c-0.3,0.3-0.6,0.3-0.9,0c-1.9-1.4-3.4-3-4.5-5.1c3.6-2.3,6.7-5.2,9.6-8.4
				c1-1.1,2.6-0.6,3.9-0.7c2.1,1.6,0.1,4.5,2.1,6.1c2.2,1.7,5.4,0,7.5,2c1.8-2.9,0.4-6,0.8-9c0.1-1-0.4-2.4,1.1-2.8
				c1.3-0.3,2,0.5,2.7,1.5c2.2,3.5,5.2,6.2,8.9,8.1C156.5,136.4,156.5,137.4,156.5,138.4z"/>
			<path class="st68" d="M124.3,143.6c0.3,0,0.5,0,0.8,0c4.3,0.9,6.4,3.8,5.3,7.4c0,0-0.2,0.1-0.2,0.1
				C128.2,148.7,126.2,146.1,124.3,143.6z"/>
			<path class="st95" d="M130.3,151c0.1-3.8-3-5.3-5.3-7.4c-0.8-1-1.7-2.1-2.5-3.2c1.2-1,2.2-0.3,3.1,0.1c2.5,1.2,4.5,0.9,6.9-0.8
				c3.6-2.5,8-2,11.8-0.6c2.5,1,4.8,1.9,7.4,0.9c1-0.4,1.7,0.1,1.8,1.2c-0.5,0.5-1,1-1.5,1.5c-1.3,1.9-4,2.6-4.5,5.2
				c-0.3,0.5-0.5,1-0.8,1.5c-2.2,3.8-4.8,4.9-9.1,3.8C135.1,152.8,132.5,152.6,130.3,151z"/>
			<path class="st83" d="M193.2,9.9c1.9-0.4,3.1,1.3,4.7,1.6c1.2,0.2,2.4,1.1,2.8-0.9c1.7,0.4,2,2.6,3.7,3.1
				c-0.3,1.8-1.6,0.2-2.3,0.7C199.2,12.8,195.8,12.2,193.2,9.9z"/>
			<path class="st96" d="M106.3,97.3c0.4-1.9-1.3-2.1-2.3-2.9c1.7-0.1,3.5-0.1,5.2-0.4c6.6-1.3,12.8,3.5,12.9,10.1
				c1.6,1.5,1.2,3.4,1,5.2c-0.6,7.1-1.7,14.2-2.1,21.3c-0.1,2.2-0.8,4.4-2,6.3c-1.8-1-2-3-3-4.5c-3.9-9.6-5.8-19.8-8.8-29.6
				C106.7,101,106.7,99.1,106.3,97.3z"/>
			<path class="st97" d="M119,136.9c1-10.9,2.1-21.9,3.1-32.8c1.4-2,0.4-4.2,0.7-6.3c0.2-1.4-0.4-2.9,0.7-4.2
				c1.1,0.9,1.1,2.1,1.3,3.4c0.1,1,0.2,2,0.5,2.9c0.9,2.7,3.6,4.2,5.6,4.2c2,0,1-3,1.1-4.7c0.2-4.2-0.2-8.4,0.2-12.6
				c0.1-1.1-0.4-3.9,2.5-2.2c0.8,1.8,0.7,3.6,0.7,5.5c0,13.6,0,27.3,0,40.9c0,2.1,0.3,4.3-1.3,6c-1.8-2.3-0.5-5-0.9-7.4
				c0-2.2,0-4.5,0-7.5c-4.1,3.4-7,6.9-10,10.3C121.8,133.8,121,135.9,119,136.9z"/>
			<path class="st98" d="M106.3,97.3c2.6,3.6,3.1,8.1,4.1,12.2c1.8,7.7,5,15,5.7,23c-3.4-5.3-6.3-10.8-9.2-16.4
				c-1.5-2.9-2.2-6.8-6.7-6.9c3.5-0.3,3.6-3.2,4.3-5.6c0.5-1.8,0.7-3.6,1.1-5.5C105.8,97.8,106,97.5,106.3,97.3z"/>
			<path class="st99" d="M134.1,136.9c0-17.7,0-35.3-0.1-53c2.4-1.8,4.9-1.8,7.3,0.1c0.3,4.5,0.6,8.9,0.9,13.4
				c0.3,11.5,0.6,22.9,0.9,34.4c0,2-0.1,3.9-0.2,5.9C140,137.3,137,138.3,134.1,136.9z"/>
			<path class="st100" d="M141.3,83.9c-2.4,0-4.9,0-7.3-0.1c-1.5,1.5-0.7,3.3-0.8,5c-0.1,5.2,0,10.4-0.1,15.6c0,0.8,0.2,1.8-0.8,2.3
				c-1,0.4-1.6-0.4-2.3-0.9c-0.9-0.7-1.7-1.7-2.7-1.9c-3.4-0.9-3.9-3.4-4-6.2c0-1.4,0-2.7,0-4.1c-0.1-4-1.3-5.1-6-5.9
				c1.2-1.4,2.5-0.6,3.7-0.1c1.2,0.5,2.3,1.6,3.8,0.8c2.8-1.7,6.1-2.9,6.7-6.7c-1.9-5.7-6.8-9.2-10.4-13.7c-3.5-4.4-7.8-7-13.7-5.8
				c0.3-1.9,1.8-2,3.1-1.9c16.6,0.3,33.1-0.1,49.7,0.2c0.2,0,0.5,0.1,0.7,0.2c0.5,0.2,0.9,0.5,1.2,0.9c-2.7,1.4-4.8,3.3-6.8,5.5
				c-4,4.6-8,9.1-12.1,13.6c-0.9,1-1.5,1.9-1.4,3.3C142,83.9,141.7,83.9,141.3,83.9z"/>
			<path class="st56" d="M147.5,148.1c-0.5-3.4,2.6-3.8,4.5-5.2C151.3,145.3,149,146.4,147.5,148.1z"/>
			<path class="st101" d="M161.7,61.4c-16.1,0-32.1,0-48.2,0.1c-1.9,0-4-0.6-5.8,0.7c-4.2,0.5-8.5,1-12.7,1.5
				c-1.8,0.8-3.9,0.4-5.8,0.9c-2.8,0.7-4.7-2-4-5.1c0.6-2.5,2.4-4.3,4.4-5.8c3-2.3,6-4.5,9.2-6.4c2.4-1.5,3.8-3.3,3.4-6.4
				c-0.4-3.9,1.2-7.5,2.3-11.2c0.4-1.3,1.5-2.1,2.8-2.1c12.3,0.1,24.6-0.7,36.9,0.4c3.2,3.6,7,5.8,12,5.8c1.7,0,3.4,0.5,5.2,0.8
				c7.5,1.2,8.3,2,9.5,9.5c0,0.6,0,1.2,0,1.9c-0.5,4.1-3.2,7.4-4.3,11.4c-0.4,1.5-1.8,3.1-3.9,1.5c-0.4-3.5,1.7-6.1,3-9.1
				c1.5-3.6,1.2-4.1-2.7-4.1c-17.2-0.1-34.4-0.1-51.7,0c-3.9,0-4.3,0.6-2.5,4.1c5.8,11.5,3.3,9.5,15.2,9.7c10.6,0.1,21.2,0,31.8,0
				c1.9,0,3.8-0.2,5.5,0.8C161.9,60.5,162,60.9,161.7,61.4z"/>
			<path class="st102" d="M170.7,28.6c7.8,5.3,15.6,10.7,23.3,16c4.4,3,7.2,7,8.2,12.3c0.5,2.4,1.4,4.8,1.9,7.2
				c0.5,2.1-0.1,3.7-2.6,2.9c-1.8-0.6-3.8,0.4-5.4-1.1c-0.7-2.8-2.5-4.8-5-6.2c-3.8-2.2-7-5.1-10-8.3c-1.7-1.7-3.1-3.5-3.5-6
				c-0.3-2.3-2.3-3.5-3.8-4.9C170.5,37.3,169.1,32.1,170.7,28.6z"/>
			<path class="st103" d="M144.5,28.6c-10.9,0-21.7,0-32.6,0c-6.5,0-7,0.3-7.8,6.8c-0.3,2.5-1.1,4.9-0.3,7.7c0.7,2.7-2,3.9-4,5.2
				c-4,2.5-7.9,5.1-11.4,8.3c-0.9,0.9-1.7,1.9-2,3.1c-0.9,2.8,0.6,4.7,3.6,4.4c1.7-0.1,3.5-0.2,5.2-0.3c-6.4,1.8-12.9,2.4-19.5,3
				c-2.1-0.5-2.5-1-1.2-2.5c1.6-1.9,3.6-3.4,5.6-4.9c3.6-2.7,6.3-6.4,9.6-9.4c1.3-1.2,0.4-1.8-0.4-2.7c-2.2-2.4-2.1-3.6,0.5-5.5
				c3.5-2.5,5.9-6.3,10.3-8c2-0.8,2.2-3.5,3.4-5.2c0.3-0.2,0.5-0.5,0.8-0.7c3.3-1.5,6.9-0.9,10.3-1c12.8-0.4,25.7-1.1,38.5,0.5
				c2.9,0.4,5.7,0.1,8.6,0.1c0.7,0,1.3,0.2,1.8,0.5c0.4,0.3,0.8,0.7,1.2,0.8c1.8,0.4,4.3-0.4,5.1,2c1.1,3.3,3.1,6.5,1.6,10.3
				c-0.3,0.4-0.6,0.5-1,0.4c-0.9-0.9-0.5-2.1-0.8-3.1c-0.3-1.1-0.5-2.6-1.6-2.8c-5.4-1.3-9.3-6-15.4-5.7
				C149.8,29.8,146.9,30.5,144.5,28.6z"/>
			<path class="st66" d="M103.3,28.5c0,3.5-0.9,6.2-4.8,7.3c-4.2,1.2-5.8,5.8-9.6,7.9c-1.7,0.9,0.4,2.5,1.8,3.1
				c2.6,1.3,2.6,2.6,0,3.6c-1.8,0.7-2.4,2.4-3.6,3.6c-3.4,3.6-7.2,6.7-11.1,9.8c-0.8,0.6-3.2,1.5-0.3,2.7c-0.9,1-2.1,0.7-3.2,0.7
				c-1.9,0.1-2.9-0.2-2.4-2.7c1.3-6,3.1-11.7,6.1-17c1.7-3,4.8-4.2,7.4-6.1C89.9,37,96.6,32.8,103.3,28.5z"/>
			<path class="st104" d="M170.8,41.2c-0.1-2.7,0.3-5.4-0.8-8c-0.9-2.1-1.6-4.2-4.6-3.3c-1,0.3-2-0.1-2.1-1.4c2.5-0.6,5-0.6,7.5,0
				c0,0,0,0,0,0c-0.1,5.2,1.4,9.8,5.9,12.9c0.8,0.6,1.8,1.1,1.9,2.2c0.9,7.4,7,10.3,12,14.2c1.6,1.3,3.7,2.1,5,3.8
				c0.9,1.3,2.3,2.5,0.6,4.2c-8.1-0.6-16.1-2-24-3.7c1.9-1.8,4.4-1.4,6.6-2.1c3.5-1.1,4-2.5,1.4-5.2c-2-2.2-4-4.4-6.3-6.3
				C171.5,46.6,170.3,44.4,170.8,41.2z"/>
			<path class="st105" d="M162.5,27.8c-19.5,0-39,0-58.5,0c3.7-2.8,8.2-1.7,12.2-2.1c4.6-0.4,9.3-1.9,14-0.3
				c1.3,0.4,2.5-0.8,3.7-1.6c1.6-1.2,3.3-1.6,5.2-0.7c6.8,3.5,14.2,3.8,21.7,3.9c1.1,0,2.3-0.2,3.2,0.7
				C163.5,28.2,163,28.2,162.5,27.8z"/>
			<path class="st94" d="M117.5,87.6c-7.8,4.6-15.9,6.4-24.8,3.7c1.1-0.2,2.2,0.3,3.5-0.6c-1.3-1.4-2.6-3.1,0.9-3.1
				c0.7,0,1.3-0.2,1.3-1c0.1-2.8,2-2,3.5-1.8C107.2,85.5,112.6,85.4,117.5,87.6z"/>
			<path class="st103" d="M170.8,41.2c1.2,5.9,6.6,8.5,10.1,12.7c1.1,1.4,3.2,2.3,2.5,4.6c-0.8,2.2-3,2.5-4.9,2.8
				c-2,0.4-4.1,0.6-6.2,0.8c-1.7-0.2-3.6,0.5-5.2-0.8c0.5-0.8,1.3-1.1,2.1-1.4c3.9-1.7,5.4-5.9,3.2-9.7c-0.9-1.5-1.5-3.1-2.3-4.6
				c0-0.5,0-1,0-1.5C170.9,43.4,169.8,42.1,170.8,41.2L170.8,41.2z"/>
			<path class="st106" d="M170,45.7c1.9,2,4.2,3.9,4.5,6.9c0.6,5.8-1.2,7.8-7.5,8.8c-1.5,0-3,0-4.4,0c-0.3,0-0.5-0.1-0.8-0.1
				c0-0.2,0-0.5,0-0.7c-0.2-1.1,0.3-1.6,1.5-1.5c2.1-0.7,3-1.9,3.2-4.3C166.6,51.5,169.8,49.2,170,45.7z"/>
			<path class="st71" d="M123.3,85.3c-2,0-7.6-3.8-8.3-5.8c-0.8-2.1,0.6-2.3,2.1-2.4c1.6-0.1,7.9,4.3,8.4,5.8
				C126.1,84.9,125,85.4,123.3,85.3z"/>
			<path class="st71" d="M131.8,81.6c1.1,3.5-1.8,6.3-6.7,6.7C127,85.8,129.2,83.5,131.8,81.6z"/>
			<path class="st102" d="M162.5,27.8c0.5,0,1,0,1.5,0c2.2,0.3,4.6-0.7,6.7,0.8c-2.5,0-5,0-7.5,0C163,28.3,162.7,28.1,162.5,27.8z"
				/>
			<path class="st107" d="M163.2,59.1c-0.5,0.5-1,1-1.5,1.5c-15.2,0-30.5,0-45.7,0.2c-2.2,0-3.5-0.8-4.4-2.7c-1.6-3.4-3.2-6.8-5-10
				c-1.5-2.8-0.8-3.8,2.3-3.8c8,0.1,16,0,24,0c10.9,0,21.7,0,32.6,0c3.6,0,4,0.6,2.5,3.9C166.3,51.8,164.4,55.3,163.2,59.1z"/>
			<path class="st106" d="M170.8,41.2c-0.1,1,0.3,2.2-0.7,3c-1.1-5.7-0.8-8.3-8.2-8.5c-3.2-0.1-6.3-1.1-9.5-1.3
				c-3.7-0.3-6.4-2.3-7.8-5.9c2.7,0,5.5,0,8.2,0c2.9,0,5.9-0.5,8,2.6c0.7,1.1,2.9,1.6,4.4,1.7c3.7,0.2,5.1,2.1,4.9,5.6
				C170,39.5,169.9,40.5,170.8,41.2z"/>
		</g>
	</g>
</g>
</svg>
