<?xml version="1.0" encoding="utf-8"?>
<!-- Generator: Adobe Illustrator 18.0.0, SVG Export Plug-In . SVG Version: 6.00 Build 0)  -->
<!DOCTYPE svg PUBLIC "-//W3C//DTD SVG 1.1//EN" "http://www.w3.org/Graphics/SVG/1.1/DTD/svg11.dtd">
<svg version="1.1" id="Слой_2" xmlns="http://www.w3.org/2000/svg" xmlns:xlink="http://www.w3.org/1999/xlink" x="0px" y="0px"
	 viewBox="0 217 1590 939" enable-background="new 0 217 1590 939" xml:space="preserve">
<path fill="#006400"    d="M1603.2,731.7c-0.9-70.1-42.1-98.2-42.1-98.2
	s12.9,26.4,20.1,50.1c7.3,23.6,7.3,131.8,0,161c-4,15.9-31,39.6-54.6,57.9c14.6-34.3,36.7-88.6,40.9-114.3c3.7-22.8,5.6-46,3.4-68.4
	c6-19.7,10.3-36.2,10.3-36.2s-3.7,13.2-11.1,29.7c-1.9-13.6-5.3-26.9-10.9-39.6c-15.6-35.5-27.6-49.2-27.6-49.2s23.2,57,24.8,94.5
	c0.5,11.9-0.1,24-1.3,35.8c0,0.1-0.1,0.3-0.1,0.4c-7.3,3.2-17.1,7.3-27.8,11.3c-4.5,1.7-9.9,4.1-16,6.9c1.1-12.3,2.3-24.1,3.2-31.5
	c2.8-21.9,0.9-83.7,0-81c-0.9,2.8-19.2,74.6-21.1,99.1c-0.5,6.6-1.6,14.8-2.9,23.9c-12.6,6.8-26.2,14.4-39,22.4
	c-0.8-17.6-2.3-31.8-2.3-31.8s-4.5,13.9-10.7,40c-2.9,2-5.8,4-8.6,5.8c-5.4,3.8-11,8.3-16.6,13.1l1.9-4.5c0,0,53.3-105.5,57.8-109.2
	c4.6-3.6,56.8-119.1,56.8-119.1s-56.8,66.4-78.8,98.2c-22,31.8-76.2,152.8-83.5,161.9c-2.8,3.4-16.8,17.1-33,32.6
	c-1.1-4.5-2.3-9.8-3.6-15.6c6.1-16,12.5-33.5,18.2-49.8c18-51,23.8-131.7,23.8-131.7s-19.2,63.7-31.1,104.5
	c-4,13.8-10.1,32.3-16.7,51.8c-2.1-9.3-4.4-18.8-6.5-28C1338.3,761.3,1364,675,1373,617c13.8-89.2,39.5-242.9,39.5-242.9
	s-23.8,81.9-32.1,117.4s-37.6,204.7-37.6,204.7s4.6-27.3,5.6-52.7c0.9-25.4,20.1-106.4,20.1-106.4s-30.2,71.8-42.1,106.4
	c-8.2,23.9-13.9,70.5-21.7,114c-6.1-44.9-13.1-133.2-13.1-133.2s-1.9,99.1,0,143.9c0.4,8.5,1.7,19.9,3.8,32.9
	c-0.9,3.7-2,7.2-2.9,10.6c-7.7,25.3-17.9,54.2-26.4,77.1l0,0c1.2-37.5-15.2-120.6-15.2-120.6s2.3,28.9,3.2,67.2
	c0.7,26.8-1.5,62.7-3.7,85.1c0-3.4,0-7.4,0-11.4c0-10.1-20.1-72.7-20.1-72.7s-2.8,23.7,2.8,51.8c2.8,14.2,3,28.8,2.5,39.9
	l-18.2-51.7l13.8,72.2l-5.6,4.2l-13.8-35.5v49.2l-27.6,9.1c0,0,6.4-22.8,11.9-43.7c5.6-20.9,45.8-168.3,48.6-194.6
	c2.8-26.4,0-60,0-60s-12.9,33.7-14.7,50.1c-1.9,16.4-11,43.7-25.7,80c-8.3,20.8-16.2,35.2-21.3,44c1.2-23.1,2.8-53,3.7-70.4
	c1.7-30.9,19.3-127.3,19.3-127.3s-22,51.8-32.1,127.3c-2.1,15.9-3.6,28.6-4.6,39c-4.2-24-9.7-54.6-14.3-81.4
	c6.9-23.6,12.7-43.2,15.4-53.3c9.1-34.6,29.4-141,29.4-141s-29.4,85.5-39.5,126.4c-2.3,9.1-6,22-10.5,37.2
	c-2-11.8-3.4-21.2-4.2-26.2c-3.8-27.6-41.3-173.7-52.3-204.7c-11-31-36.7-65.5-36.7-65.5s11,34.6,17.5,57.2
	c6.4,22.8,10.1,38.2,10.1,38.2s-77.9-169.2-91.7-196.5s-55.9-81-55.9-81s50.5,104.5,64.3,131.8c13.8,27.3,87.2,175.6,95.4,206.4
	s12.9,64.5,16.6,103.7c2.5,26.5,9.5,62.9,17.9,98.4c-8.6,27.2-17.6,55.1-25.4,79c-1.9-7.6-4.2-17-6.9-27.4
	c23.3-62.3,15.2-115.3,15.2-98c0,14.4-11.4,47.7-14.2,56.8c1.1-9.9-0.5-47.7-0.5-47.7s-4.8,21.5-11.1,45.6
	c-10.5-43.3-21.1-88.8-22.8-101.1c-3.7-24.5-45.8-155.6-45.8-155.6s22,111.8,35.8,161.9c2.4,8.5,4.8,18.3,7,28.6
	c-2.5,8.2-8.6,28.5-14.4,50.5c-10.5-18.5-21.1-37.6-29-51.9c4.1-19.6,10.7-38.2,10.7-38.2s-8.2,16.4-14.7,30.1
	c-0.1,0.1-0.1,0.4-0.3,0.5c-3.2-5.7-5.6-10.1-7-12.9c-5.3-9.8-23.2-34.4-40.5-57.6c6.5-17,12.2-31.3,13-32.9
	c1.9-3.6,18.3-51.8,18.3-51.8s-17.5,23.6-30.2,43.7c-3.7,5.8-8.3,15.1-13,25.2c-1.6-2.1-3.2-4.1-4.6-6.1c4.1-14.7,7.6-28.4,8.5-35.5
	c2.8-20.9,9.1-50.9,9.1-50.9s-8.2,11.8-13.8,18.2c-5.6,6.4-3.7,23.6-12.9,40c-1.6,2.8-3.3,6.2-5,9.8c-4.2-5.6-6.9-8.9-6.9-8.9
	s2.4,4.1,6.1,10.5c-8.2,17-17.1,38.7-17.1,38.7s7.3-85.5,11-128.3c3.7-42.8,0-81.9,0-81.9s-13.8,46.4-17.5,95.5
	c-3.7,49.2-19.3,154.6-19.3,154.6s0.1-22.8,0-38.2c0-6.2-0.8-27.6-1.6-50.9c-0.7,7.6-1.6,15.6-2.9,24.5
	c-6.6,46.9-10.9,109.6-13,147.6c-4.8-19.2-10.6-41.2-14-50.7c-6.9-18.7-13.4-31.4-13.4-31.4s3.7,35.5,9.1,54.2
	c3.6,12.1,11.3,41.7,16.3,61.5c-0.8,0.8-3.8,4.4-8.2,14.6c-10.2-36.2-29.8-103.7-38.4-124.3c-4.2-10.1-11.5-23.6-19.3-36.8
	c5-31.4,8.6-65.3,7.4-90.1c-2.8-53.7-37.5-97.4-37.5-97.4s29.3,92.8,28.4,124.7c-0.5,17-2.3,34.7-5.4,50.7
	c-11.9-19.7-22.9-36.4-22.9-36.4s10.5,21.6,20.4,48c-2.4,9.5-5.2,18.2-8.6,25.2c-10.1,20.9-23.8,69.2-33,95.5
	c-0.5,1.6-1.1,3.2-1.7,4.8c-1.7-4.6-3.4-9.3-5-13.8c2.7-9,5-17.4,6.8-23.7c8.2-30.1,17.5-150.1,13.2-176.5
	c-4.1-26.4-39.9-53.7-39.9-53.7s9.1,8.2,22,37.2c12.9,29.2,13.8,42.8,9.1,76.5c-3.7,26.9-9,68.8-20.4,113.7
	c-2.5-8-4.4-14.6-5.3-18.8c-1.1-5-3.3-12.1-6.4-20c3.4-28.6,5.4-51.1,5.4-51.1l-9.7,40c-9.9-24.9-23.1-52.7-23.1-52.7
	s8.9,50.1,13.4,66c0.7,2.5,1.9,6.6,3.4,12.1l-21.6,89.3c0,0-1.2-58.2-0.3-79.1c0.7-15.2-0.1-65.1-2.7-95.9
	c2.5-9.8,4.8-17.8,6.4-22.7c6.6-19.7-15.6-107.1-15.6-107.1s7.3,39.1,6.4,83.7c-0.1,6.2-0.7,13-1.6,20.3
	c-6.6-12.6-28.6-28.5-28.6-28.5s10.1,12.7,19.2,42.8c1.7,5.4,2.8,11.9,3.6,18.9c-8.1,39-20.1,81.4-23.9,103.5
	c-2.3,13.8-1.1,38.4,1.6,63.3c-1.7,2.7-3.7,5.3-5.7,8.1l-5-29.1c0,0,3.7-82.8,5.6-141.9c1.7-54.3-9.8-81.8-11.7-85.9
	c4.9-15.1,10.3-30.9,17.2-50.6c17.5-50.1,29.4-94.6,29.4-94.6s-35.8,62.8-44,90.1c-8.2,27.3-37.6,111.8-40.4,137.4
	c-1.2,11-1.5,40.1-0.9,73.3c-1.1,2-2,3.8-3,5.8c-18.3-44-41.6-103.7-42.9-123.6c-1.9-30.1,5.6-232,5.6-232S545.2,526.5,547,570.1
	c1.9,43.7,4.9,60.4,16.6,88.2c5.4,13,16.4,38.2,28.4,64.9c-4.8,9.5-8.6,17.2-9.9,20.5c-0.9,2.4-3.8,9-8.1,18.4
	c-11.4-72.1-26.4-162.2-29.3-174.2c-4.6-19.1-35.8-188.3-35.8-188.3s-5.6,16.4-4.6,37.2c0.9,20.9,13.8,101.9,23.9,157.4
	c4.5,24.5,12.3,80.4,19.7,135.1c-3.4,4.9-9,13.4-17.2,26.4c-5.6-12.9-10.9-25-15.5-35.5c6.9-31.9,2.9-77.2,2.9-72.2
	c0,4.5-2.5,26-11.4,52.7c-3-6.9-5.2-11.8-6-13.5c-3.4-7.3-25.2-39.6-45.3-68.6c0.1-0.8,0.3-1.6,0.4-2.3
	c8.2-51.8,3.7-113.7,6.4-152.8c2.8-39.1,0-82.8,0-82.8s-11.9,67.3-16.6,97.4c-2.5,16.2-6.2,63.3-10.1,112
	c-7.2-10.3-12.7-18.2-14.7-21.1c-8.2-11.8-64.3-94.6-64.3-94.6S392.2,551,417,594.3c5.6,9.7,10.9,18,16,25.7
	c-2.5,31.5-4.9,61.1-6.9,80c-0.4,4-0.9,8.2-1.5,12.7c-8.7-22.3-17.5-43.6-25.2-61.1c-0.5-7.8-0.8-14.6-0.8-18.8
	c0-13.6-3.7-33.7-5.6-38.2c-1.5-3.6-0.7,24.9-0.1,42.7c-5.6-11.9-10.2-21.2-13.5-26.4c-19.5-29.9-88.1-123.8-88.1-123.8
	s46.8,74.3,86.3,137.1c5,8.1,10.2,18,15.5,29.5c-0.3,18.8-1.5,65.5-0.8,73.8c0.4,4,0,12.6,0.1,23.1c-2.5,1.9-5.2,3.7-7.9,5.7
	c-1.3-13.4-2.5-25.6-3.3-34.7c-3.7-41.9,6.2-66.4,6.2-66.4s-11.7,17.2-13.5,24.5s-7.3,27.3-2.8,66.4c0.7,6,1.5,11.9,2.3,18.2
	c-5.3,3.7-10.9,7.7-16.4,11.5c-0.7-21.1-2.3-40-5-48.2c-1.7-5.3-5.6-11-10.5-17c7.7-29.3,20.5-66.4,20.5-66.4s-16,31.3-27.4,58.3
	c-9.8-10.9-21.1-22-27.7-31.9c-11.9-18.2-23.2-46.4-23.2-46.4s12.2,39.2,20.5,55.1c4.4,8.5,14.8,24.4,24,39.8
	c-1.1,2.8-1.9,5.6-2.6,8c-6,20.3-6.8,40.9-4.9,74.1c-16.7,11.7-32.9,23.1-46.6,33.3c-2-28.8-4-58-5.6-83.2
	c10.5-16.4,17.5-25.6,14.7-23.2c-3.4,3-8.7,8.3-15.2,15.5c-1.7-26.6-2.9-47.6-3.2-56.4c-0.9-36.4,0-108.3,0-108.3s-11,46.4-14.7,111
	c-1.1,19.5-0.9,46.1-0.3,73.7c-2.5,2.9-5.3,6-8.1,9.1c-5.3,6-10.3,15.1-14.8,25.6c-9.4-31.1-18.9-61.5-24.6-77.4
	c-3-8.3-6.4-17-9.7-25.4c7.7-11.5,12.3-19.1,8.7-14.6c-2.3,2.9-6,6.2-10.5,10.3c-12.6-31.1-25.3-58.4-25.3-58.4s1.9,22.8,10.1,50.9
	c1.1,3.7,2.8,9.5,4.9,16.7c-7.9,7.2-17,15.8-25,26c-1.9,2.4-4.1,5.2-6.6,8.1c-6.4-14-11.8-28.1-15.2-37.4c1.1-2.8,1.7-4.5,1.7-4.5
	l1.9-5l44-120.4c0,0-16.6,17.2-24.8,32.7c-8.2,15.5-25.7,74.6-25.7,74.6s-3.7-55.5-4.6-73.7c-0.9-18.2,4.6-72.7,4.6-72.7
	s-12.9,21.9-18.3,65.5s9.1,101.9,9.1,101.9l-24.8,69.2l-11-69.2c0,0-1.9,27.3-2.8,48.2c-0.4,10.6,3,37,6.6,60.7
	c-0.7,0.8-1.3,1.6-2,2.3c-4.1-18-8.7-37.4-11.9-48.4c-7.3-24.5-22.9-62.8-22.9-62.8s14.7,79.1,21.1,111c0.9,4.6,1.9,9,2.7,13.2
	c-2.9,3.3-5.6,6.6-8.2,9.5c-1.7,2.1-3.6,4.6-5.4,7.6C53.8,780.3,42.7,713,38,697.3C29.9,668.9-0.3,547.9-0.3,547.9
	s-1.9,19.1,2.8,45.4s6.4,70.1,9.1,102.8s11.9,121,11.9,121s-47.7-90.1-58.7-121.9c-11-31.8-64.3-167.3-64.3-167.3
	s15.6,102.8,33.9,162.8c13.9,45.6,70.1,163,96.5,216.8c-10.2,27-19.3,54.2-24.8,71.3C0.7,938-6.6,886.2-11.3,864.5
	c-8.2-38.2-31.1-106.4-31.1-106.4s12.9,99.1,19.2,151.8s11.9,147.3,11.9,147.3v102.8h1604v-102.8
	C1592.8,1057.4,1604.2,801.8,1603.2,731.7z M109.6,800.9c4.1-5,8.2-10.1,12.5-15.1c-0.8,7.7-1.6,16.2-2.1,25.2
	c-1.9,30.1-3.7,49.2-3.7,49.2S111.3,827.6,109.6,800.9z M297.7,1011.7c7.7-17.1,17.9-42.5,27.6-68.9c-0.5,33.5-1.7,59.9-1.7,59.9
	l-20.1,26.4L297.7,1011.7z M338.9,810.5C339.1,810.5,339.1,810.5,338.9,810.5c0,0.1,0,0.3,0,0.4
	C339.1,810.8,338.9,810.7,338.9,810.5z M349.9,945c8.7-9.7,22.7-24.5,37.5-40.5c-0.4,13.9-1.5,22.8-1.5,22.8l-33,47.3
	C352.8,974.6,351.5,961.9,349.9,945z M410.9,918.8c4.8,4.8,9.3,9.3,13.5,13.2c-11.9,28.5-24.2,58.2-23.9,56.2
	C400.8,987.2,405.1,959.2,410.9,918.8z M406.1,778.1c-0.8-4.5-1.1-9.7-0.9-15c5-3.4,9.5-6.5,13.1-8.9c-2.3,13.2-4.9,27-7.4,40
	C408.4,787.1,406.6,781.4,406.1,778.1z M445.9,882.5c-3.8-9-8-18.9-12.1-29c10.1-11.5,17.8-20.8,20.7-25.7c2,6.6,3.8,12.9,5.3,18.3
	C454.7,860.4,448.8,876.5,445.9,882.5z M461.4,812.7c1.1-2.9,2.1-6,3.2-9.1c6.5,24.2,4,17.4,4,17.4s-0.9,2.7-2.3,6.8
	C464.7,822.9,463.1,818,461.4,812.7z M602.5,926.7l6.4,5c-2.8,3.6-4.5,3.7-4.5,3.7L602.5,926.7z M631.1,809.1
	c2.3,5.3,3.8,9.8,4.9,13.6c-0.9,1.1-1.9,2.1-2.9,3.2C632.4,820.5,631.8,814.9,631.1,809.1z M675.4,768.9c0.4-1.6,0.7-2.6,0.7-2.6
	c0,2.1-0.1,4.4-0.1,6.5C675.8,771.6,675.6,770.3,675.4,768.9z M797.8,941.9c0,0,1.5-2.8,4.1-8c1.3,3.8,2.7,7.4,4,10.9L797.8,941.9z
	 M816.3,906.5c1.5-2.7,2.8-5.4,4.4-8.3c3-5.7,5.8-12.1,8.3-18.3c2,7.6,3.7,14.7,5.3,20.8c-3.2,10.7-6.1,20.8-8.5,29
	C823.1,923,819.9,915.1,816.3,906.5z M838.7,852c1.9-6,3.2-11,4-14c1.9,7,3.4,13.2,4.8,18.3c-1.2,4.1-2.5,8.5-3.8,12.9
	C842,863.7,840.4,857.8,838.7,852z M1021,830.3c3.8,0.7,8,1.3,11.9,2.3c-2.5,34.5-4.1,101.8-4.1,101.8S1024.8,881.7,1021,830.3z
	 M1142,948.7c-0.9,8.7-1.9,16.7-2.7,23.5c-4.6-10.7-11-24.9-18.5-41.5c1.5-3.6,3-7.2,4.6-10.9C1131.7,930.6,1137.2,940.4,1142,948.7
	z M1132.6,904.8c4.2-8.5,8.6-16.3,12.9-21.7c0.5-0.7,0.9-1.3,1.5-1.9c-0.4,13.6-1.3,27.8-2.4,41.2
	C1140.6,916.7,1136.5,910.7,1132.6,904.8z M1137,990.9c-0.4,3-0.7,4.6-0.7,4.6l-24.8,6.4c0,0-8.2-30.1-2.8-41.9
	c1.3-2.9,3.4-8.1,6-14.3C1123.2,962.7,1131,978.7,1137,990.9z M1506.9,821.8c0,0,1.1-13.8,2.5-30.3c17.4-12.5,33.1-23.8,44-31.7
	c-3.8,11-8.7,21.9-16.2,31.1c-4.8,6-16.4,18.8-30.9,34.3L1506.9,821.8z M1501.6,854.5c2.4-2.4,4.4-4.5,6.2-6.4
	c15.2-15.8,33.3-51.7,45.7-81.1c-2.9,20.4-7.4,39.2-11,53.4c-4.2,17-25.6,67.8-39,99c-8.5,6-14,9.7-14,9.7L1501.6,854.5z
	 M1451.7,833.1c7.7-5.8,15.2-11.4,22.3-16.3c4.1-2.9,8.3-5.8,12.6-8.9c-2.7,15.8-5.6,32.3-7.8,46.8c-13.8,14.6-27.8,29.3-39.6,41.6
	C1444.5,874.5,1450.5,848.4,1451.7,833.1z M1431.7,923.8c9.4-9.3,21.7-21.3,33.9-33.4c-14.6,23.1-36.7,43.3-36.7,43.3
	S1429.9,929.9,1431.7,923.8z M1394.6,878.8c10.2-8.6,22.4-18.4,34.8-28.5c-8.6,28-19.9,47.8-19.9,47.8l-33.9,26.4L1394.6,878.8z
	 M1295.9,898.1c2.1-7.6,6.1-20.1,11.1-36.3c2,9,3.8,17.8,5.8,26c-5.6,15.6-11,29.9-15.4,40.8c-11.5,10.9-19.9,18.7-19.9,18.7
	S1285.8,934.6,1295.9,898.1z M1137.1,798c1.9,7.2,3.7,14.3,5.6,21.1c2.5,9,3.7,21.2,4.2,34.7c-7.4,6.5-15.9,20.7-23.5,37.1
	c-3.8-5.8-7.2-11.1-9.5-15.4C1119.6,856.4,1128.2,827.6,1137.1,798z M1107.8,895.5c0.4-1.2,0.8-2.5,1.3-4.2c2.8,4.8,5.4,9.4,8.1,14
	c-1.3,3.2-2.5,6.2-3.7,9.4c-2.3-4.8-4.5-9.8-6.9-14.8C1107,898.3,1107.4,896.8,1107.8,895.5z M1101.2,918.8c2,4,4.1,8.1,6.1,12.1
	c-9.3,22.9-19.7,40-19.7,40S1094.7,943.2,1101.2,918.8z M1051.9,982.8v-33.7c0,0,11.3-32.7,26.5-74.3c3.6,6.5,7.4,13.8,11.4,21.5
	C1072.9,945,1051.9,982.8,1051.9,982.8z M1086.6,852.3c3.7,6.4,7.4,12.9,11.1,19.2c-0.7,2.1-1.3,4.1-2,6.1
	c-3.6-7.4-7.4-13.9-11.3-19.6C1085.3,856,1086,854.1,1086.6,852.3z M1062.1,714.2c7.2,31.5,13.9,68.1,17.9,91
	c-1.1,3.4-2.1,6.9-3.2,10.2c-5.6-9.9-14-24.9-23.2-41.2C1057.1,754.9,1060.7,726.4,1062.1,714.2z M1050.7,790.7
	c6.4,10.7,13.8,23.5,21.9,37.2c-1.3,3.4-2.7,7.2-4.2,11c-7.6-7-15-11.9-22.1-15.2C1047.9,810.4,1049.5,798.6,1050.7,790.7z
	 M1059.2,843.5c1.2,1.2,2.8,3.3,4.8,6.4c-12.5,30.6-27.7,63.7-27.7,63.7s4.2-41.2,8.5-77.8C1050.7,837.8,1055.9,840.5,1059.2,843.5z
	 M1015.3,731.7c6.6,12.1,12.9,22.9,18.3,31c2.1,3.2,5.4,8.5,9.7,15.5c-3.8,15.2-7.2,29.9-8.9,41.1c-5.4-1.5-10.3-2.3-14.3-2.4
	c-2.7-37.4-4.9-71.6-4.9-81.5C1015.2,734.1,1015.2,732.9,1015.3,731.7z M1008.6,719.4c-4.1,15.5-7.2,35.5-7.2,48.8
	c0,19.1-9.1,49.2-9.1,49.2s-3.7,8.2-2.8-17.2c0.9-25.4-3.7-50.1-3.7-50.1s-2.8,14.6-1.9,30.9c0.9,16.4-14.7,32.7-14.7,32.7
	s-2.8-19.1,2.8-42.8c5.6-23.6,0-41.9,0-41.9l-20.1,64.5c0,0,5.6-43.7,10.1-67.3c4.4-22.4,17.8-54.6,19.1-57.9
	C989.6,683.3,999.3,701.9,1008.6,719.4z M948.4,616c1.2,2,2.5,4,3.7,6.1c-10.5,23.5-20.4,49.6-20.4,49.6S940.8,642.9,948.4,616z
	 M946.4,690.8c1.9-8.6,9.7-30.5,17.2-50.5c2,3,3.8,6,5.7,8.7c3.6,5.2,7.6,11.8,11.8,19.3c-1.5,1.6-11.4,13-19.1,30.7
	c-8.2,19.1-26.6,106.4-26.6,106.4l-3.7-25.4C931.7,779.9,942.7,708.1,946.4,690.8z M788.6,723.5c3.7-9,9.9-33.8,15.2-63.2
	c1.9,5.6,3.7,11.3,5.3,16.8c8.9,31.4,37.5,110.4,47.8,148c-1.5,4.6-3.3,10.6-5.3,17.4c-14.6-41.5-42.4-152.2-42.4-152.2
	s-3,18.7,5.2,43.2c5.3,15.9,19.1,68.4,28.2,103.3c-1.1,2.1-2.8,5.7-5.2,10.1c-3.6-12.2-7-23.6-9.3-29.9
	c-6.4-18.5-37.6-83.3-37.6-83.3s14.7,34.6,18.7,61.9c2,13.8,9.4,43.5,16.3,70.6c-1.5,2.3-3,4.4-4.8,6.6c-3.2,4.2-7.2,10.1-11.5,16.6
	c-8.3-19.5-17.2-39.2-24.2-51.1c-3.8-6.5-8.1-15.4-12.6-25.4c5.4-30.2,10.9-59.1,10.9-59.1l-14.8,50c-2.1-4.8-4.1-9.8-6.2-15
	C773,761.3,784.7,733.2,788.6,723.5z M767.3,841.4c8,19.6,17.9,46.5,26.9,71.3c-9.5,15.2-17.4,28.2-17.4,28.2l-15.6-27.3
	c0,0-0.9-17.2,0.9-37.2C762.5,870.4,764.7,857.2,767.3,841.4z M753.4,810.4c1.1,2.5,2.1,4.6,3.2,6.5c1.3,2.4,2.9,5.8,4.8,10.1
	l-16.7,56.2c0,0-5.6-26.8-5.6-33.1C739.1,847.5,745.3,830.9,753.4,810.4z M741.3,778.5c1.2,3.6,2.5,7.2,3.7,10.5
	c-9.4,21.3-19.6,41.9-19.6,41.9S733.3,805.4,741.3,778.5z M712.5,781.8c4.2-16.4,8.1-37.9,11.1-59.4c2.8,9.3,5.8,19.5,9.1,29.9
	c-0.9,3.2-1.9,6.2-2.9,9.4c-18.3,57.2-33,101.9-33,101.9S699.6,830.8,712.5,781.8z M672.2,712.6c1.9-12.1,6.9-36.2,12.3-59.9
	c0,25.6-2.9,51.7-5,63.5c-1.9,10.3-2.8,29.9-3.4,50.1c0,0-0.3,0.5-0.8,1.5C672.6,745.1,670.6,722.7,672.2,712.6z M662.9,807.2
	c1.5,11.1,3.2,21.7,5,31c-3,2-5.8,0.9-5.8,0.9l-4.2-24.5C659.9,811.7,661.6,809.2,662.9,807.2z M622.6,619.9
	c7.7-32.1,13.8-53.8,21.1-76.7c-0.3,10.2-2.1,69.8-5.8,121.2c-4.1,56.4,0,120,0,120s-4.8-10.9-12.3-27.3
	c-2.4-24.4-4.2-48.9-5.3-70.6c6.4-21.2,10.6-37.6,10.6-37.6s-4.6,8.7-11.1,21.1C619.2,648.5,620,630.7,622.6,619.9z M618,861.8
	l0.1-0.1c1.7,11.4,3.3,22.4,4.6,31.7c-0.7,2.8-1.3,5.6-2.1,8.5c-3.3,13.1-6.6,21.2-9.4,26.1c-3.7-6.4-8.6-14.6-13.1-22.3l-2.9-14.3
	C604.5,877.2,613.1,865.5,618,861.8z M596,756.2c1.7-4,3.6-8.3,5.3-12.9c2,4.2,3.8,8.6,5.7,12.7c1.2,24.4,2.7,46.5,4.8,60.7
	c1.2,8.3,2.4,17.4,3.7,26.4c-8.5,8.1-16.8,18-24.6,28.6c-1.1-5.8-2.3-12.9-3-20.9c-0.8-6.9-4.1-29.2-8.7-58
	C586.2,777.8,592.1,764.8,596,756.2z M535.4,924.5l-8.9-23.5c7.2-14.3,17.1-34.7,27.3-55.9c3.4,8.9,6.6,17.2,9.5,24.8L535.4,924.5z
	 M549.6,742.8c2.7,20,5.3,39.4,7.6,56.7c-1.3,2.8-2.5,5.6-3.8,8.5c-4.9-11.3-9.9-23.1-15-34.6C544.4,763,547.8,751.8,549.6,742.8z
	 M545.8,824.6c-9.4,20.5-18.8,41.5-26.4,57.8L503.2,840c0,0,12.5-29.7,26.9-53.5C535.6,799.1,540.9,812.1,545.8,824.6z M509.7,740.1
	c4.2,8.9,8.6,18.5,12.9,28.5c-16.4,27.6-28.5,56.8-28.5,56.8l-3.7-19.1C490.5,806.3,501,770.4,509.7,740.1z M493.2,708.3
	c2,3.4,4.1,7.2,6.2,11.3c-14.6,34.5-23.6,69.6-23.6,69.6l-4.5-12.3c2.3-11.1,3.6-21.5,3.6-28.6c0-19.1,0-35.5,0-35.5
	s-3.6,19.1-11.3,42.5l-12.1-33.5l29.5-33.5C484.8,694.3,488.9,701,493.2,708.3z M451.2,645.2c8.6,11.8,17.6,24.1,28,40.1
	c-7.4,4.8-18.7,12.5-32.6,23.1l-3.4-9.5C446.3,678.3,448.9,659.9,451.2,645.2z M437.5,737.5l6-6.8c3.8,12.2,8.3,27.2,13.1,43.9
	c-1.5,3.6-2.9,7.2-4.5,10.7c-4.8-13.5-9.9-27.8-15.4-42C437,741.4,437.3,739.5,437.5,737.5z M433.9,761.9c4.1,12.6,8.1,25,11.7,36.6
	c-1.7,3.3-3.6,6.5-5.6,9.7c-4,6.5-9.4,14-15.6,22.3c-0.1-0.3-0.3-0.7-0.4-0.9C427.3,807,430.6,784,433.9,761.9z M437.6,900.6
	c-2,4.6-4.2,9.8-6.5,15.4c-4.8-4.8-11-10.9-17.2-17.5c1.3-8.7,2.7-17.9,4-27.3c1.9-2.1,3.7-4.1,5.6-6.2
	C428.5,877.7,433.4,890.2,437.6,900.6z M422.4,727.9c-4.2,3.6-9.7,7.8-15.9,12.6c1.1-13.1,1.9-25.8-0.4-35.5
	c-2-8.5-3.6-20.5-4.9-32.6C408.4,689.4,415.5,708.5,422.4,727.9z M393.3,771.2c0.7,8.9,2.1,18,4.5,26c1.5,4.9,4.4,12.9,8.1,22.7
	c-4.5,22.3-8.2,39.6-9.4,45.4c-0.1,0.3-0.4,0.4-0.5,0.7c-0.8-8-5.3-50.5-9.3-90C388.9,774.4,391.1,772.8,393.3,771.2z M356.6,839
	c0.7-11.3,0.9-26.5,0.8-42.1c6.4-4.6,12.6-9.1,18.5-13.4c3.7,28.4,7.6,57.1,10.1,81c-10.1-19.1-18.3-47.6-18.3-47.6
	s0.9,38.6,6.4,56.7c0.9,2.9,3,6.6,6.1,10.9c-13.1,15.2-25,28.8-32.2,36.8c-0.9-11.3-1.9-22.5-2.4-32.2c-0.1-1.3-0.1-2.7-0.3-4.1
	C351.7,864.7,356,847.9,356.6,839z M336.4,734.5c0-0.1,0-0.3,0.1-0.5c4,7.6,6.8,14.2,7.3,18.7c0.5,4.5-0.3,17.4-1.9,33.9
	c-1.5,1.1-2.9,2-4.4,3C335.8,765.9,335,744.8,336.4,734.5z M322.2,823.7c0.4,5.4,0.8,11.1,1.3,17.2c1.2,14.6,1.7,31.9,2,50
	c-1.6,6.5-3.3,11.8-4.9,15.4c-2.4,5.4-6.2,12.6-10.6,20.4c0.3-1.7,0.5-3.3,0.7-4.8c2.8-22.8-5.6-82.8-5.6-82.8s-5.6,43.7-10.1,74.6
	c-4.6,30.9-11.9,49.2-11.9,49.2s-3.4-46.5-7.3-101.5C290.4,849.1,306.6,835.9,322.2,823.7z M256.5,897.2c0,0-1.7-6-4.6-15.8
	c1.1-0.9,2.3-1.9,3.4-2.9C256.1,890.2,256.5,897.2,256.5,897.2z M250.4,781.5c0.8,24.4,2,48.6,3.2,68.6c-3.3,2.6-6.2,5-8.7,7.3
	c-3.6-11.9-7.7-25.7-11.9-39.9C238.4,804.7,244.5,792.5,250.4,781.5z M222.7,845.8c1.1,3.8,1.7,6,1.7,6l-2.1-4.5
	C222.5,846.7,222.6,846.3,222.7,845.8z M164.8,734.5c5.6-7.2,12.3-16.3,18.6-25.2c9.7,33.4,24.8,86,33.8,117.1
	c-0.7,2-1.2,4.1-1.7,6.1l-2.9-6.1c0,0-3.7,20.9-10.1-0.9c-6.4-21.9-7.3-56.4-7.3-56.4l-6.4,30.9c0,0-11-13.6-27.6-41.9
	c-2.1-3.6-4.2-7.6-6.2-11.5C158.9,741.8,162.3,737.5,164.8,734.5z M149.2,759c14.7,30.1,32.1,58.2,32.1,58.2V883l-18.3,16
	c0,0-30.2-58.2-33-70.1c-1.6-6.8-2.5-30.2-3-49.2c7.3-8.7,14.3-17.1,20.7-24.5C148,756.6,148.7,757.8,149.2,759z M109.8,771.7
	c2.3-13.1,11.8-40.7,18.5-59.5c2.8,6.8,7.4,17.8,13.5,31c-4.6,5.6-9.8,11.7-15.4,18.2c-0.1-4.2-0.1-6.9-0.1-6.9s-0.5,3.2-1.3,8.6
	c-5.2,6.1-10.5,12.3-15.9,18.7C109,777.8,109.3,774.4,109.8,771.7z M92.6,822.3c2.4,15,4.4,25.8,4.4,25.8s-2.3-10.5-5.3-24.5
	C92,823.1,92.4,822.7,92.6,822.3z M74.9,848.2c1.5-2.6,3.3-5.7,5.6-9.1c2.7,14.4,4.1,26.5,3.6,39.1c-0.9,20.9-8.2,40.9-8.2,40.9
	s-3.4-23.1-8.3-54.5C70.5,857.3,73.1,851.5,74.9,848.2z M42.1,930.3c1.6,3.3,2.5,5.2,2.5,5.2s-5.6,20.9-11,42.8
	s-20.1,56.3-20.1,56.3s-0.9-7.2-2.4-18.5C17.6,997.5,29.9,963.3,42.1,930.3z"/>
</svg>
